<?xml version="1.0" encoding="UTF-8"?>
<svg width="20px" height="16px" viewBox="0 0 20 16" version="1.1" xmlns="http://www.w3.org/2000/svg" xmlns:xlink="http://www.w3.org/1999/xlink">
    <!-- Generator: Sketch 40.3 (33839) - http://www.bohemiancoding.com/sketch -->
    <title>Icon - Post Analysis</title>
    <desc>Created with Sketch.</desc>
    <defs></defs>
    <g id="â-B1-Global-Navigation" stroke="none" stroke-width="1" fill="none" fill-rule="evenodd">
        <g id="Nav_01" transform="translate(-1559.000000, -60.000000)">
            <g id="nav-/-navbar-1st">
                <g transform="translate(0.000000, 35.000000)">
                    <g id="navbar-1st">
                        <g id="Icon---Post-Analysis">
                            <g transform="translate(1559.000000, 23.000000)">
                                <rect id="trans-frame" x="0" y="0" width="20" height="20"></rect>
                                <g transform="translate(0.000000, 2.666667)" fill="#516B9F">
                                    <path d="M13.8784615,9.24209 C12.5423077,10.57379 10.3676923,10.57379 9.03153846,9.24209 C7.69538462,7.91039 7.69538462,5.74302333 9.03153846,4.41132333 C10.3676923,3.07962333 12.5423077,3.07962333 13.8784615,4.41132333 C15.2146154,5.74302333 15.2146154,7.91039 13.8784615,9.24209 M18.9061538,12.30799 L16.4876923,9.96352333 C16.2323077,9.70975667 15.9,9.58019 15.5661538,9.57559 C16.8576923,7.65815667 16.6546154,5.03079 14.9553846,3.33799 C13.0253846,1.41442333 9.88461538,1.41442333 7.95461538,3.33799 C6.02461538,5.26155667 6.02461538,8.39185667 7.95461538,10.3154233 C9.65307692,12.0082233 12.2892308,12.21139 14.2123077,10.9241567 C14.2176923,11.25689 14.3476923,11.58809 14.6023077,11.8426233 L17.0207692,14.1863233 C17.5415385,14.7053567 18.3853846,14.7053567 18.9061538,14.1863233 C19.4261538,13.6680567 19.4261538,12.8262567 18.9061538,12.30799" id="Fill-1"></path>
                                    <path d="M1.92846154,4.49351 L1.00153846,4.49351 C0.448461538,4.49351 0,4.94047667 0,5.49171 L0,10.99101 C0,11.5422433 0.448461538,11.98921 1.00153846,11.98921 L1.92846154,11.98921 C2.48153846,11.98921 2.93,11.5422433 2.93,10.99101 L2.93,5.49171 C2.93,4.94047667 2.48153846,4.49351 1.92846154,4.49351" id="Fill-3"></path>
                                    <path d="M7.439,2.98133667 L7.439,0.998736667 C7.439,0.446736667 6.99053846,-0.00023 6.43746154,-0.00023 L5.51053846,-0.00023 C4.95746154,-0.00023 4.509,0.446736667 4.509,0.998736667 L4.509,10.9907033 C4.509,11.5427033 4.95746154,11.98967 5.51053846,11.98967 L6.43746154,11.98967 C6.99053846,11.98967 7.439,11.5427033 7.439,10.9907033 L7.439,10.4977367 C6.46284615,9.48267 5.92669231,8.15327 5.92669231,6.73953667 C5.92669231,5.32580333 6.46284615,3.99563667 7.439,2.98133667" id="Fill-5"></path>
                                    <path d="M10.9456154,4.49351 L10.0186923,4.49351 C9.46561538,4.49351 9.01715385,4.94047667 9.01715385,5.49171 L9.01715385,8.46637667 C9.10407692,8.58367667 9.201,8.69637667 9.30638462,8.80141 C9.85792308,9.35187667 10.5925385,9.65394333 11.3756154,9.65394333 C11.5702308,9.65394333 11.761,9.63554333 11.9471538,9.59874333 L11.9471538,5.49171 C11.9471538,4.94047667 11.4994615,4.49351 10.9456154,4.49351" id="Fill-9"></path>
                                </g>
                            </g>
                        </g>
                    </g>
                </g>
            </g>
        </g>
    </g>
</svg>