<?xml version="1.0" encoding="UTF-8"?>
<svg width="19px" height="19px" viewBox="0 0 19 19" version="1.1" xmlns="http://www.w3.org/2000/svg" xmlns:xlink="http://www.w3.org/1999/xlink">
    <!-- Generator: Sketch 40.3 (33839) - http://www.bohemiancoding.com/sketch -->
    <title>Icon - Event Management White</title>
    <desc>Created with Sketch.</desc>
    <defs></defs>
    <g id="â-B1-Global-Navigation" stroke="none" stroke-width="1" fill="none" fill-rule="evenodd">
        <g id="Nav_01" transform="translate(-315.000000, -59.000000)">
            <g id="nav-/-navbar-1st">
                <g transform="translate(0.000000, 35.000000)">
                    <g id="navbar-1st">
                        <g id="Icon---Event-Management-White">
                            <g transform="translate(315.000000, 24.000000)">
                                <rect id="trans-frame" x="0" y="0" width="19" height="19"></rect>
                                <g id="Icon---Event-Management" transform="translate(0.950000, 0.000000)" fill="#516B9F">
                                    <path d="M2.53333333,15.8284883 L4.44251667,15.8284883 L4.44251667,13.919305 L2.53333333,13.919305 L2.53333333,15.8284883 Z M2.53333333,13.295155 L4.44251667,13.295155 L4.44251667,11.3859717 L2.53333333,11.3859717 L2.53333333,13.295155 Z M5.06666667,15.8284883 L6.97585,15.8284883 L6.97585,13.919305 L5.06666667,13.919305 L5.06666667,15.8284883 Z M5.06666667,13.295155 L6.97585,13.295155 L6.97585,11.3859717 L5.06666667,11.3859717 L5.06666667,13.295155 Z M5.06666667,10.7618217 L6.97585,10.7618217 L6.97585,8.85263833 L5.06666667,8.85263833 L5.06666667,10.7618217 Z M7.6,15.8284883 L9.50918333,15.8284883 L9.50918333,13.919305 L7.6,13.919305 L7.6,15.8284883 Z M7.6,13.295155 L9.50918333,13.295155 L9.50918333,11.3859717 L7.6,11.3859717 L7.6,13.295155 Z M7.6,10.7618217 L9.50918333,10.7618217 L9.50918333,8.85263833 L7.6,8.85263833 L7.6,10.7618217 Z M10.1333333,15.8284883 L12.0425167,15.8284883 L12.0425167,13.919305 L10.1333333,13.919305 L10.1333333,15.8284883 Z M10.1333333,13.295155 L12.0425167,13.295155 L12.0425167,11.3859717 L10.1333333,11.3859717 L10.1333333,13.295155 Z M10.1333333,10.7618217 L12.0425167,10.7618217 L12.0425167,8.85263833 L10.1333333,8.85263833 L10.1333333,10.7618217 Z M12.6666667,13.295155 L14.57585,13.295155 L14.57585,11.3859717 L12.6666667,11.3859717 L12.6666667,13.295155 Z M12.6666667,10.7618217 L14.57585,10.7618217 L14.57585,8.85263833 L12.6666667,8.85263833 L12.6666667,10.7618217 Z M0,17.4070717 C0,18.281705 0.709016667,18.990405 1.58333333,18.990405 L15.5166667,18.990405 C16.3909833,18.990405 17.1,18.281705 17.1,17.4070717 L17.1,6.32373833 L0,6.32373833 L0,17.4070717 Z" id="Fill-1"></path>
                                    <path d="M11.7166667,3.16666667 C12.0665833,3.16666667 12.35,2.88293333 12.35,2.53333333 L12.35,1.58333333 L12.35,0.633333333 C12.35,0.283416667 12.0665833,0 11.7166667,0 C11.3670667,0 11.0833333,0.283416667 11.0833333,0.633333333 L11.0833333,1.58333333 L11.0833333,2.53333333 C11.0833333,2.88293333 11.3670667,3.16666667 11.7166667,3.16666667" id="Fill-3"></path>
                                    <path d="M15.5166667,1.58333333 L15.4967167,1.58333333 L14.7645833,1.58333333 L12.9833333,1.58333333 L12.9833333,2.53333333 C12.9833333,3.23158333 12.4152333,3.8 11.7166667,3.8 C11.0181,3.8 10.45,3.23158333 10.45,2.53333333 L10.45,1.58333333 L9.18333333,1.58333333 L7.91666667,1.58333333 L6.65,1.58333333 L6.65,2.53333333 C6.65,3.23158333 6.0819,3.8 5.38333333,3.8 C4.68476667,3.8 4.11666667,3.23158333 4.11666667,2.53333333 L4.11666667,1.58333333 L1.58333333,1.58333333 C0.709016667,1.58333333 0,2.29203333 0,3.16666667 L0,5.6905 L17.1,5.6905 L17.1,3.16666667 C17.1,2.29203333 16.3909833,1.58333333 15.5166667,1.58333333" id="Fill-4"></path>
                                    <path d="M5.38333333,3.16666667 C5.73325,3.16666667 6.01666667,2.88293333 6.01666667,2.53333333 L6.01666667,1.58333333 L6.01666667,0.633333333 C6.01666667,0.283416667 5.73325,0 5.38333333,0 C5.03373333,0 4.75,0.283416667 4.75,0.633333333 L4.75,1.58333333 L4.75,2.53333333 C4.75,2.88293333 5.03373333,3.16666667 5.38333333,3.16666667" id="Fill-5"></path>
                                </g>
                            </g>
                        </g>
                    </g>
                </g>
            </g>
        </g>
    </g>
</svg>