<?xml version="1.0" encoding="UTF-8"?>
<svg width="20px" height="15px" viewBox="0 0 20 15" version="1.1" xmlns="http://www.w3.org/2000/svg" xmlns:xlink="http://www.w3.org/1999/xlink">
    <!-- Generator: Sketch 40.3 (33839) - http://www.bohemiancoding.com/sketch -->
    <title>Icon - Tools &amp; Administration</title>
    <desc>Created with Sketch.</desc>
    <defs></defs>
    <g id="â-B1-Global-Navigation" stroke="none" stroke-width="1" fill="none" fill-rule="evenodd">
        <g id="Nav_01" transform="translate(-1401.000000, -60.000000)">
            <g id="nav-/-navbar-1st">
                <g transform="translate(0.000000, 35.000000)">
                    <g id="navbar-1st">
                        <g id="Icon---Tools-&amp;-Administration">
                            <g transform="translate(1401.000000, 23.000000)">
                                <rect id="trans-frame" x="0" y="0" width="20" height="20"></rect>
                                <g transform="translate(0.000000, 2.666667)" fill="#FFFFFF">
                                    <path d="M15.6010024,10.6533451 C14.5899987,10.0036804 13.4123248,9.6609933 12.2740574,9.28948787 C11.9982117,9.19614165 11.7191359,9.09715707 11.4684845,8.95181262 C11.2443195,8.82213029 11.1609843,8.5596332 11.1080116,8.32658089 C11.0854013,8.20378989 11.0705431,8.07849295 11.064083,7.95382249 C11.8896822,6.85810076 12.4374976,5.0713664 12.4374976,3.6053922 C12.4374976,1.31809657 11.1047816,0.680961629 9.46004331,0.680961629 C7.81530505,0.680961629 6.48323502,1.31809657 6.48323502,3.6053922 C6.48323502,5.12336463 7.07045697,6.9871566 7.94579882,8.06846919 C7.93804671,8.15367111 7.92771057,8.240126 7.91220636,8.32595441 C7.85987965,8.55775374 7.77654453,8.82213029 7.55173348,8.95118613 C7.29979007,9.0959041 7.0213603,9.19300923 6.74551457,9.28760842 C5.60724717,9.65911384 4.42892722,9.99929504 3.41856955,10.6495862 C2.89271843,10.985382 2.53676761,11.6582265 2.34102696,12.2295806 C2.13882623,12.8228616 2.05613711,13.7343968 2.06841127,14.2355846 L9.50913997,14.2355846 L16.9505147,14.2355846 C16.9627888,13.7343968 16.8794537,12.8228616 16.679191,12.230207 C16.4821583,11.6582265 16.1268535,10.9891409 15.6010024,10.6533451" id="Fill-1"></path>
                                    <path d="M2.47292147,8.7864479 L3.03624109,8.35417346 C3.32629902,8.51580651 3.63509119,8.64235642 3.95615754,8.73131724 L4.04013868,9.43423308 C4.06339499,9.62531091 4.20874696,9.76940239 4.39221344,9.81325632 C4.951011,9.58208346 5.52143672,9.39100563 6.08475635,9.20995155 L6.13837507,8.75637663 C6.47236159,8.6718012 6.7908439,8.54587777 7.09188398,8.38487121 C6.87094899,8.04406353 6.67197829,7.66128138 6.49884795,7.24905445 C6.08346433,7.48210675 5.60735589,7.62557175 5.09442494,7.62557175 C3.5323758,7.62557175 2.26038459,6.39202338 2.26038459,4.87718338 C2.26038459,3.36234338 3.5323758,2.12942149 5.09442494,2.12942149 C5.45037576,2.12942149 5.78759233,2.20021426 6.10155257,2.3173669 C6.27274489,1.89073082 6.51952023,1.53488751 6.83994057,1.25234291 C6.62546566,1.1546113 6.40517668,1.06940938 6.17519757,1.00926685 L6.10219858,0.398444268 C6.07442021,0.170403838 5.87609552,0 5.64094834,0 L4.54531751,0 C4.31017033,0 4.11184565,0.170403838 4.08471328,0.398444268 L4.01106828,1.00926685 C3.64801137,1.10323955 3.30045867,1.24607807 2.97745429,1.43277051 L2.47292147,1.04497648 C2.28751696,0.902137966 2.02329938,0.918426568 1.85598312,1.07818017 L1.08141864,1.8299618 C0.91474838,1.99159486 0.899890179,2.2478271 1.04653416,2.42762821 L1.46902388,2.94573105 C1.29976959,3.24143183 1.17121385,3.55655363 1.08723271,3.88420513 L0.411507569,3.95875681 C0.176360387,3.98569565 0,4.17802645 0,4.4054404 L0,5.46795845 C0,5.69599888 0.176360387,5.88832968 0.411507569,5.91526852 L1.1234092,5.99545857 C1.21385043,6.29429177 1.33853011,6.58247473 1.49615625,6.85311612 L1.04653416,7.40316968 C0.899890179,7.58297079 0.916040397,7.83920303 1.08141864,8.00146257 L1.85598312,8.75261772 C2.02329938,8.91425078 2.28751696,8.92865992 2.47292147,8.7864479" id="Fill-4"></path>
                                    <path d="M19.6640755,7.96493579 L19.1375783,7.90541974 C19.0658714,7.63916375 18.9579879,7.38481096 18.819742,7.14612029 L19.1433924,6.74892899 C19.26355,6.60233157 19.2499838,6.39308568 19.114968,6.26027092 L18.4838175,5.64819537 C18.3475096,5.5160071 18.1310967,5.50410389 17.9799307,5.62063005 L17.5826353,5.92572809 C17.3242318,5.77913068 17.0483861,5.66698991 16.7589741,5.59118527 L16.6988953,5.09250345 C16.676931,4.90643749 16.5147828,4.7667314 16.3229182,4.7667314 L15.4275501,4.7667314 C15.2356855,4.7667314 15.0735373,4.90643749 15.050927,5.09250345 L14.9908482,5.59118527 C14.6943302,5.66824288 14.4107324,5.78476904 14.1465148,5.9376313 L13.7343612,5.62063005 C13.5825492,5.50410389 13.3667822,5.51726007 13.2304744,5.64819537 L12.5973858,6.26152389 C12.461078,6.39433865 12.4488038,6.60358454 12.5689614,6.75080844 L12.9139301,7.17368561 C12.7756842,7.41550871 12.6710308,7.67236743 12.6019079,7.94050289 L12.0502164,8.0012719 C11.8583518,8.02319887 11.7142919,8.18044652 11.7142919,8.36651248 L11.7142919,8.68414022 C11.8932363,8.77623347 12.096083,8.85329109 12.3060359,8.92408386 L12.6574646,9.03810408 C12.9908051,9.14585945 13.3273757,9.25800021 13.6633002,9.37640581 C13.6032214,9.1765572 13.5605849,8.96981724 13.5605849,8.75180057 C13.5605849,7.51449329 14.6000129,6.50647941 15.8758802,6.50647941 C17.1517475,6.50647941 18.1911755,7.51449329 18.1911755,8.75180057 C18.1911755,9.81243916 17.4256552,10.698915 16.4043153,10.9325938 C16.6459226,11.231427 16.8274511,11.559705 16.9553608,11.8485144 C17.1549775,11.7827335 17.3507181,11.7056759 17.5348306,11.6054384 L17.9799307,11.9468725 C18.1310967,12.0633987 18.3475096,12.0502425 18.4838175,11.9193072 L19.116906,11.3059787 C19.2532139,11.1731639 19.2654881,10.963918 19.1453304,10.8173206 L18.7990697,10.3906845 C18.9424837,10.1494879 19.0555352,9.89200272 19.1304722,9.62324079 L19.6640755,9.56309825 C19.8559401,9.54179777 20,9.38455012 20,9.19848416 L20,8.33017637 C20,8.14411041 19.8559401,7.98686275 19.6640755,7.96493579" id="Fill-7"></path>
                                </g>
                            </g>
                        </g>
                    </g>
                </g>
            </g>
        </g>
    </g>
</svg>