<?xml version="1.0" encoding="UTF-8"?>
<svg width="19px" height="19px" viewBox="0 0 19 19" version="1.1" xmlns="http://www.w3.org/2000/svg" xmlns:xlink="http://www.w3.org/1999/xlink">
    <!-- Generator: Sketch 40.3 (33839) - http://www.bohemiancoding.com/sketch -->
    <title>Icon - Compile Monitoring</title>
    <desc>Created with Sketch.</desc>
    <defs></defs>
    <g id="â-B1-Global-Navigation" stroke="none" stroke-width="1" fill="none" fill-rule="evenodd">
        <g id="Nav_01" transform="translate(-453.000000, -59.000000)">
            <g id="nav-/-navbar-1st">
                <g transform="translate(0.000000, 35.000000)">
                    <g id="navbar-1st">
                        <g id="Icon---Compile-Monitoring">
                            <g transform="translate(453.000000, 24.000000)">
                                <rect id="trans-frame" x="0" y="0" width="19" height="19"></rect>
                                <path d="M9.44169792,15.9106884 L2.1758077,15.9106884 C1.77895069,15.9106884 1.45299389,15.5850632 1.45299389,15.186975 L1.45299389,2.89210196 L15.9709626,2.89210196 L15.9709626,8.99275852 C16.2683752,8.84508062 16.5980151,8.759776 16.9460707,8.759776 C17.1081283,8.759776 17.2637404,8.77812108 17.4202734,8.81297673 L17.4202734,2.16747128 C17.4202734,0.971372019 16.4460861,0 15.2444657,0 L2.1758077,0 C0.974187283,0 0,0.971372019 0,2.16747128 L0,15.186975 C0,16.3830742 0.974187283,17.3544463 2.1758077,17.3544463 L9.0199798,17.3544463 L9.44169792,15.9106884 Z M6.45746838,7.26006566 L13.7159923,7.26006566 L13.7159923,5.81172154 L6.45746838,5.81172154 L6.45746838,7.26006566 Z M6.45746838,13.0672009 L11.6074017,13.0672009 L13.0677619,11.6234431 L6.45746838,11.6234431 L6.45746838,13.0672009 Z M3.87448103,10.4851308 L5.3283957,10.4851308 L5.3283957,9.04045573 L3.87448103,9.04045573 L3.87448103,10.4851308 Z M3.87448103,7.26006566 L5.3283957,7.26006566 L5.3283957,5.81172154 L3.87448103,5.81172154 L3.87448103,7.26006566 Z M3.87448103,13.0681182 L5.3283957,13.0681182 L5.3283957,11.6234431 L3.87448103,11.6234431 L3.87448103,13.0681182 Z M18.580702,11.6599227 L17.478526,10.5619697 C17.1737472,10.2583586 16.6838912,10.2546896 16.3827955,10.5546316 L15.4979241,11.4443681 L17.6976721,13.6439432 L18.5843851,12.7542068 C18.8854808,12.4542647 18.8817977,11.9635338 18.580702,11.6599227 Z M6.45746838,10.4851308 L13.7159923,10.4851308 L13.7159923,9.04045573 L6.45746838,9.04045573 L6.45746838,10.4851308 Z M11.2231259,15.8180458 C11.1734037,15.8574877 11.1310477,15.9070194 11.1126321,15.9703099 L10.3446999,18.5872357 C10.3115518,18.7000579 10.3446999,18.82297 10.424808,18.9046056 C10.4892627,18.9688134 10.5712123,19 10.6559242,19 C10.6881516,19 10.720379,18.996331 10.7480024,18.9853239 L13.3639439,18.2194168 C13.4237947,18.201989 13.4707546,18.1634643 13.5131106,18.1166844 L17.0958731,14.5641595 L14.7994429,12.2691899 L11.2231259,15.8180458 Z" id="Combined-Shape" fill="#516B9F"></path>
                            </g>
                        </g>
                    </g>
                </g>
            </g>
        </g>
    </g>
</svg>