<?xml version="1.0" encoding="UTF-8"?>
<svg width="19px" height="13px" viewBox="0 0 19 13" version="1.1" xmlns="http://www.w3.org/2000/svg" xmlns:xlink="http://www.w3.org/1999/xlink">
    <!-- Generator: Sketch 40.3 (33839) - http://www.bohemiancoding.com/sketch -->
    <title>Icon - Data Management</title>
    <desc>Created with Sketch.</desc>
    <defs></defs>
    <g id="â-B1-Global-Navigation" stroke="none" stroke-width="1" fill="none" fill-rule="evenodd">
        <g id="Nav_01" transform="translate(-1108.000000, -62.000000)">
            <g id="nav-/-navbar-1st">
                <g transform="translate(0.000000, 35.000000)">
                    <g id="navbar-1st">
                        <g id="Icon---Data-Management">
                            <g transform="translate(1108.000000, 24.000000)">
                                <rect id="trans-frame" x="0" y="0" width="19" height="19"></rect>
                                <g transform="translate(0.000000, 3.800000)" id="Fill-1" fill="#FFFFFF">
                                    <path d="M17.3621998,-2.250052e-15 C16.4593713,-2.250052e-15 15.7245896,0.727398266 15.7245896,1.62115469 C15.7245896,1.93265756 15.8131243,2.22294697 15.9670732,2.47025121 L12.5858368,6.43102688 C12.3895942,6.3489643 12.1747425,6.30318789 11.9486124,6.30318789 C11.57812,6.30318789 11.2363873,6.42600264 10.9617606,6.63199647 L8.11004061,4.59327163 C8.15120643,4.45203467 8.17319913,4.30298222 8.17319913,4.14890554 C8.17319913,3.25514911 7.43841743,2.52830909 6.53558895,2.52830909 C5.63219655,2.52830909 4.89741484,3.25514911 4.89741484,4.14890554 C4.89741484,4.44868518 4.9803104,4.72948435 5.12410882,4.97064786 L2.3062238,8.29948582 C2.10152252,8.20849126 1.87539247,8.15769061 1.6379841,8.15769061 C0.734591705,8.15769061 -0.00019,8.88453063 -0.00019,9.77884531 C-0.00019,10.6726017 0.734591705,11.4 1.6379841,11.4 C2.54081258,11.4 3.27559429,10.6726017 3.27559429,9.77884531 C3.27559429,9.4896724 3.19833788,9.2178052 3.06356211,8.98278243 L5.89272544,5.6405465 C6.09009582,5.72372558 6.30720323,5.77061848 6.53558895,5.77061848 C6.91115657,5.77061848 7.25796451,5.64389599 7.53484695,5.43231967 L10.3781082,7.46546202 C10.3346867,7.61116498 10.3104383,7.76468341 10.3104383,7.92434259 C10.3104383,8.81865726 11.04522,9.54605553 11.9486124,9.54605553 C12.8514409,9.54605553 13.5862226,8.81865726 13.5862226,7.92434259 C13.5862226,7.6228882 13.5021992,7.34041428 13.3567091,7.09813427 L16.7492238,3.12396063 C16.9386994,3.20044072 17.1450924,3.24230939 17.3616359,3.24230939 C18.2650283,3.24230939 18.99981,2.51491112 18.99981,1.62115469 C18.99981,0.727398266 18.2650283,-2.250052e-15 17.3621998,-2.250052e-15"></path>
                                </g>
                            </g>
                        </g>
                    </g>
                </g>
            </g>
        </g>
    </g>
</svg>