<?xml version="1.0" encoding="UTF-8"?>
<svg width="19px" height="19px" viewBox="0 0 19 19" version="1.1" xmlns="http://www.w3.org/2000/svg" xmlns:xlink="http://www.w3.org/1999/xlink">
    <!-- Generator: Sketch 40.3 (33839) - http://www.bohemiancoding.com/sketch -->
    <title>Icon - Global Configuration</title>
    <desc>Created with Sketch.</desc>
    <defs></defs>
    <g id="â-B1-Global-Navigation" stroke="none" stroke-width="1" fill="none" fill-rule="evenodd">
        <g id="Nav_01" transform="translate(-1255.000000, -59.000000)">
            <g id="nav-/-navbar-1st">
                <g transform="translate(0.000000, 35.000000)">
                    <g id="navbar-1st">
                        <g id="Icon---Global-Configuration">
                            <g transform="translate(1255.000000, 24.000000)">
                                <rect id="trans-frame" x="0" y="0" width="19" height="19"></rect>
                                <g fill="#FFFFFF">
                                    <path d="M5.55704762,3.51047619 C6.64638095,3.51047619 7.53304762,4.39714286 7.53304762,5.48647619 C7.53304762,6.57580952 6.64638095,7.46338095 5.55704762,7.46338095 C4.46771429,7.46338095 3.58104762,6.57580952 3.58104762,5.48647619 C3.58104762,4.39714286 4.46771429,3.51047619 5.55704762,3.51047619 L5.55704762,3.51047619 Z M1.22595238,6.74409524 C1.32366667,7.08066667 1.46028571,7.40547619 1.63219048,7.70947619 L1.14180952,8.32833333 C0.981666667,8.531 0.999761905,8.81871429 1.17980952,9.00147619 L2.02485714,9.84652381 C2.20671429,10.028381 2.49533333,10.0446667 2.698,9.88452381 L3.31233333,9.3977619 C3.629,9.57961905 3.96466667,9.72166667 4.31571429,9.82209524 L4.408,10.6128571 C4.43785714,10.8689048 4.65409524,11.061619 4.91014286,11.061619 L6.10533333,11.061619 C6.36228571,11.061619 6.57852381,10.8689048 6.60838095,10.6128571 L6.69614286,9.85014286 C7.07252381,9.75242857 7.43352381,9.60585714 7.77190476,9.41585714 L8.36633333,9.88633333 C8.569,10.0464762 8.85671429,10.028381 9.03947619,9.84833333 L9.88452381,9.00328571 C10.066381,8.82052381 10.0826667,8.53280952 9.92252381,8.33014286 L9.46019048,7.74385714 C9.652,7.41090476 9.80219048,7.05714286 9.90261905,6.68619048 L10.6146667,6.60385714 C10.871619,6.574 11.0634286,6.3577619 11.0634286,6.10171429 L11.0634286,4.90652381 C11.0634286,4.64957143 10.871619,4.43333333 10.6146667,4.40347619 L9.91257143,4.32114286 C9.8157619,3.95471429 9.67190476,3.60457143 9.48733333,3.27614286 L9.92071429,2.72966667 C10.0808571,2.527 10.0627619,2.23928571 9.88271429,2.05652381 L9.03947619,1.21419048 C8.85671429,1.03142857 8.569,1.01514286 8.36633333,1.17528571 L7.83614286,1.596 C7.49142857,1.3942381 7.12319048,1.23952381 6.73685714,1.13547619 L6.65633333,0.448761905 C6.62647619,0.192714286 6.4102381,0 6.15419048,0 L4.95809524,0 C4.70204762,0 4.48580952,0.192714286 4.45595238,0.448761905 L4.37542857,1.13547619 C3.97914286,1.2422381 3.60095238,1.40238095 3.24809524,1.61228571 L2.698,1.17528571 C2.49533333,1.01514286 2.20671429,1.0332381 2.02485714,1.21419048 L1.17980952,2.05833333 C0.997952381,2.24109524 0.981666667,2.52971429 1.14180952,2.73147619 L1.60233333,3.31414286 C1.4177619,3.64709524 1.27752381,4.00085714 1.18614286,4.36909524 L0.448761905,4.4532381 C0.192714286,4.484 0,4.7002381 0,4.95628571 L0,6.15147619 C0,6.40842857 0.192714286,6.62466667 0.448761905,6.65452381 L1.22595238,6.74409524 Z" id="Fill-1"></path>
                                    <path d="M14.4120428,11.6967258 C13.4832496,11.7760936 12.6640597,11.0835144 12.5865815,10.1556661 C12.5072136,9.22687291 13.198848,8.407683 14.1276412,8.33020483 C15.0564344,8.25083695 15.8756243,8.94247133 15.9531024,9.87126451 C16.0324703,10.8000577 15.3408359,11.6192476 14.4120428,11.6967258 M17.6510082,6.72772953 L16.9924437,6.17215436 C16.7892997,6.00019062 16.4907253,6.00869432 16.2979748,6.19105148 L15.9342053,6.53119954 C15.6271272,6.38285719 15.301152,6.27892306 14.9638385,6.21750744 L14.8617941,5.71578905 C14.809827,5.45689858 14.5688888,5.27643114 14.3052741,5.29816282 L13.4464002,5.37091671 C13.1827855,5.39359325 12.9758621,5.60902035 12.9673584,5.87452481 L12.950351,6.3847469 C12.6196515,6.50474358 12.3087939,6.66725876 12.0243924,6.87229245 L11.5888139,6.58411146 C11.3677176,6.43765882 11.0729226,6.47923247 10.9009589,6.68237645 L10.3444389,7.34472031 C10.17342,7.54786429 10.1819237,7.8464387 10.363336,8.03918927 L10.7441129,8.44453237 C10.6127779,8.74216192 10.5182923,9.05301945 10.4644356,9.37332554 L9.92019866,9.48387366 C9.66130819,9.53678558 9.48084075,9.77677894 9.50162758,10.0403937 L9.57532632,10.9002124 C9.59800286,11.1638271 9.81342997,11.3707505 10.0789344,11.3792542 L10.6666347,11.3972065 C10.7734034,11.6778286 10.913242,11.9433331 11.0833161,12.1918302 L10.7545063,12.6878794 C10.6080536,12.9099205 10.6505721,13.2047155 10.8527713,13.3757344 L11.5113357,13.9322544 C11.7144797,14.1032733 12.0139989,14.0947696 12.2058046,13.9133573 L12.6366589,13.5099039 C12.9191707,13.6412388 13.2158554,13.7395038 13.5210438,13.7980849 L13.6400956,14.3876748 C13.6930076,14.6475102 13.9330009,14.8270328 14.1966157,14.8062459 L15.0564344,14.733492 C15.3200491,14.7098707 15.5269725,14.4944435 15.5354762,14.2289391 L15.5543733,13.6516322 C15.8671206,13.5410841 16.1647501,13.3908521 16.4387583,13.2047155 L16.9130758,13.5184076 C17.1351169,13.6648602 17.4299119,13.6223417 17.6009308,13.4201426 L18.1574508,12.7606333 C18.3284697,12.5584342 18.3209109,12.2589149 18.1385537,12.0671092 L17.7558871,11.6608212 C17.8957258,11.3641365 17.9987151,11.0504444 18.0572961,10.7282486 L18.5798013,10.6214799 C18.8386918,10.5695129 19.0191592,10.3295195 18.9983724,10.0659048 L18.9246737,9.20608608 C18.9019971,8.94247133 18.68657,8.73554793 18.4210656,8.72704423 L17.8957258,8.71098168 C17.7870674,8.40484843 17.6406148,8.11666743 17.4592025,7.84927327 L17.7454937,7.41841906 C17.8957258,7.19637796 17.8541521,6.89969327 17.6510082,6.72772953" id="Fill-4"></path>
                                    <path d="M6.78402153,13.8141276 C7.5319004,13.8225098 8.13169366,14.4390675 8.12424281,15.1869463 C8.11586061,15.9348252 7.49930294,16.5346185 6.75142407,16.5271676 C6.00261384,16.5187854 5.40282058,15.9022277 5.41120278,15.1543489 C5.41958498,14.4055386 6.03614266,13.8057454 6.78402153,13.8141276 L6.78402153,13.8141276 Z M3.41810094,14.4036759 C3.15825261,14.4306853 2.95801107,14.6486226 2.95614836,14.911265 L2.94962887,15.431893 C2.94590345,15.693604 3.13962549,15.9171294 3.39947382,15.9497269 L3.78319249,15.9990888 C3.8465247,16.2319278 3.93779759,16.4545218 4.05514844,16.6650083 L3.80740775,16.9695617 C3.64255773,17.17446 3.65466536,17.4669058 3.83814249,17.6541084 L4.20323405,18.0275821 C4.38671118,18.2147847 4.67915696,18.2352745 4.88778071,18.0750813 L5.19512819,17.8375855 C5.41120278,17.9651813 5.64031636,18.0666991 5.87874349,18.1365508 L5.92065451,18.5323771 C5.94673248,18.7922254 6.16560114,18.992467 6.42731218,18.9943297 L6.94887154,18.9999178 C7.21058257,19.0045746 7.43317666,18.8108525 7.46670548,18.5510042 L7.51327328,18.1756677 C7.7731216,18.1123355 8.0208623,18.0154745 8.25556401,17.8869474 L8.54428437,18.1197864 C8.74825133,18.2846364 9.04069712,18.2725288 9.22883103,18.0890516 L9.60137343,17.7239601 C9.78950734,17.5404829 9.80999717,17.2480372 9.64887259,17.0403448 L9.42907257,16.7534871 C9.56505055,16.5271676 9.66936242,16.2859464 9.74200819,16.0316862 L10.0838158,15.9972261 C10.3436642,15.9702167 10.5439057,15.7513481 10.5457684,15.489637 L10.5522879,14.9680777 C10.5560133,14.7063666 10.3622913,14.4837725 10.102443,14.4511751 L9.76901751,14.4074014 C9.70475395,14.1559352 9.60975563,13.9128513 9.48588529,13.6865318 L9.69450903,13.4304089 C9.85935904,13.2264419 9.84725141,12.9339962 9.66377428,12.7467936 L9.29868273,12.3733199 C9.1152056,12.1861173 8.82275981,12.1646961 8.61413607,12.3258207 L8.36453266,12.51768 C8.12983095,12.3751826 7.87836483,12.2662139 7.61479108,12.1917054 L7.58219362,11.8685249 C7.5551843,11.6086766 7.33631563,11.408435 7.0746046,11.4065723 L6.55304524,11.4000528 C6.2913342,11.3963274 6.06874012,11.5900495 6.03614266,11.8498978 L5.99423164,12.1712156 C5.72227568,12.2410673 5.46056465,12.3481732 5.21748073,12.488808 L4.95949512,12.2783215 C4.75552816,12.1134715 4.46308237,12.1255792 4.27587981,12.3090563 L3.90054335,12.6760106 C3.71240943,12.8594877 3.6919196,13.1528648 3.85304419,13.3605572 L4.07377556,13.6455521 C3.94524843,13.8718717 3.84466199,14.1130929 3.77853571,14.3664217 L3.41810094,14.4036759 Z" id="Fill-7"></path>
                                </g>
                            </g>
                        </g>
                    </g>
                </g>
            </g>
        </g>
    </g>
</svg>