<?xml version="1.0" encoding="UTF-8"?>
<svg width="19px" height="18px" viewBox="0 0 19 18" version="1.1" xmlns="http://www.w3.org/2000/svg" xmlns:xlink="http://www.w3.org/1999/xlink">
    <!-- Generator: Sketch 40.3 (33839) - http://www.bohemiancoding.com/sketch -->
    <title>Icon - In-Play Monitoring</title>
    <desc>Created with Sketch.</desc>
    <defs>
        <polygon id="path-1" points="0 16.8062523 19 16.8062523 19 -0.000297391304 0 -0.000297391304"></polygon>
    </defs>
    <g id="â-B1-Global-Navigation" stroke="none" stroke-width="1" fill="none" fill-rule="evenodd">
        <g id="Nav_01" transform="translate(-709.000000, -60.000000)">
            <g id="nav-/-navbar-1st">
                <g transform="translate(0.000000, 35.000000)">
                    <g id="navbar-1st">
                        <g id="Icon---In-Play-Monitoring">
                            <g transform="translate(709.000000, 24.000000)">
                                <rect id="trans-frame" x="0" y="0" width="19" height="19"></rect>
                                <g transform="translate(0.000000, 1.266667)" fill="#ffffff">
                                    <path d="M11.9557945,16.269076 C11.6261426,16.000748 11.5911683,15.5986276 11.5911683,15.5986276 L11.4676419,14.7245176 L7.53265578,14.7245176 L7.40764109,15.5986276 C7.40764109,15.5986276 7.37341088,16.000748 7.04450319,16.269076 C6.7155955,16.5366607 6.45291583,16.8064753 6.7155955,16.8064753 L12.2854463,16.8064753 C12.5466377,16.8064753 12.283958,16.5381473 11.9557945,16.269076" id="Fill-1" fill="#ffffff"></path>
                                    <mask id="mask-2" fill="white">
                                        <use xlink:href="#path-1"></use>
                                    </mask>
                                    <g id="Clip-5"></g>
                                    <path d="M1.14075902,11.3586736 L17.8599851,11.3586736 L17.8599851,1.26255378 L1.14075902,1.26255378 L1.14075902,11.3586736 Z M18.2402381,-0.000297391304 L0.759761877,-0.000297391304 C0.340813849,-0.000297391304 0,0.377294367 0,0.841107865 L0,13.0414841 C0,13.5060409 0.340813849,13.8828893 0.759761877,13.8828893 L18.2402381,13.8828893 C18.6591862,13.8828893 19,13.5060409 19,13.0414841 L19,0.841107865 C19,0.377294367 18.6591862,-0.000297391304 18.2402381,-0.000297391304 L18.2402381,-0.000297391304 Z" id="Fill-4" fill="#ffffff" mask="url(#mask-2)"></path>
                                    <polygon id="Fill-6"  mask="url(#mask-2)" points="6.77683782 9.33617913 8.08502722 9.33617913 8.08502722 2.99516478 6.77683782 2.99516478"></polygon>
                                    <path d="M10.1583363,6.04354927 L11.3266283,6.04354927 C11.512662,6.04354927 11.6733952,6.02050725 11.8088278,5.97367993 C11.9435162,5.9275959 12.0543924,5.86292959 12.1399679,5.7804243 C12.2255434,5.69717573 12.2887949,5.59757475 12.3297223,5.48162138 C12.3706497,5.365668 12.3907414,5.23930856 12.3907414,5.10254304 C12.3907414,4.96652081 12.3706497,4.83495833 12.3297223,4.70859888 C12.2887949,4.58223943 12.2255434,4.4707458 12.1399679,4.3733747 C12.0543924,4.2760036 11.9435162,4.19870135 11.8088278,4.13998137 C11.6733952,4.08200468 11.512662,4.05301634 11.3266283,4.05301634 L10.1583363,4.05301634 L10.1583363,6.04354927 Z M10.1583363,7.10199546 L10.1583363,9.33632779 L8.85014687,9.33632779 L8.85014687,2.99457015 L11.3266283,2.99457015 C11.7016723,2.99457015 12.0365331,3.0473438 12.3319547,3.15140452 C12.6266322,3.25620854 12.8766616,3.40189354 13.0820428,3.58920284 C13.28668,3.77651214 13.4429483,3.99875611 13.5508479,4.25593475 C13.6580034,4.51237009 13.7115811,4.79184746 13.7115811,5.09436684 C13.7115811,5.40208926 13.6580034,5.67933675 13.5508479,5.92610931 C13.4429483,6.17288188 13.28668,6.38323319 13.0820428,6.55716326 C12.8766616,6.73183661 12.6266322,6.86562896 12.3319547,6.9600269 C12.0365331,7.05442484 11.7016723,7.10199546 11.3266283,7.10199546 L10.1583363,7.10199546 Z" id="Fill-7"  mask="url(#mask-2)"></path>
                                </g>
                            </g>
                        </g>
                    </g>
                </g>
            </g>
        </g>
    </g>
</svg>