<?xml version="1.0" encoding="UTF-8"?>
<svg width="19px" height="18px" viewBox="0 0 19 18" version="1.1" xmlns="http://www.w3.org/2000/svg" xmlns:xlink="http://www.w3.org/1999/xlink">
    <!-- Generator: Sketch 40.3 (33839) - http://www.bohemiancoding.com/sketch -->
    <title>Icon - Pre-Event Monitoring</title>
    <desc>Created with Sketch.</desc>
    <defs></defs>
    <g id="â-B1-Global-Navigation" stroke="none" stroke-width="1" fill="none" fill-rule="evenodd">
        <g id="Nav_01" transform="translate(-580.000000, -60.000000)">
            <g id="nav-/-navbar-1st">
                <g transform="translate(0.000000, 35.000000)">
                    <g id="navbar-1st">
                        <g id="Icon---Pre-Event-Monitoring">
                            <g transform="translate(580.000000, 24.000000)">
                                <rect id="trans-frame" x="0" y="0" width="19" height="19"></rect>
                                <g transform="translate(0.000000, 1.266667)" fill="#FFFFFF">
                                    <path d="M11.9557945,16.2420436 C11.6261426,15.9741617 11.5911683,15.5727097 11.5911683,15.5727097 L11.4676419,14.7000526 L7.53265578,14.7000526 L7.40764109,15.5727097 C7.40764109,15.5727097 7.37341088,15.9741617 7.04450319,16.2420436 C6.7155955,16.5091836 6.45291583,16.7785497 6.7155955,16.7785497 L12.2854463,16.7785497 C12.5466377,16.7785497 12.283958,16.5106677 11.9557945,16.2420436" id="Fill-1"></path>
                                    <path d="M1.14075902,11.3398034 L17.8599851,11.3398034 L17.8599851,1.26046566 L1.14075902,1.26046566 L1.14075902,11.3398034 Z M18.2402381,-0.000286376812 L0.759761877,-0.000286376812 C0.340813849,-0.000286376812 0,0.376677739 0,0.839720274 L0,13.0198167 C0,13.4836013 0.340813849,13.8598234 0.759761877,13.8598234 L18.2402381,13.8598234 C18.6591862,13.8598234 19,13.4836013 19,13.0198167 L19,0.839720274 C19,0.376677739 18.6591862,-0.000286376812 18.2402381,-0.000286376812 L18.2402381,-0.000286376812 Z" id="Fill-4"></path>
                                    <path d="M3.38648416,6.03351405 L4.55477617,6.03351405 C4.74080993,6.03351405 4.9015431,6.01051033 5.03697568,5.96376085 C5.17166412,5.91775342 5.28254024,5.8531946 5.36811577,5.77082646 C5.4536913,5.68771626 5.51694278,5.58828084 5.55787021,5.47252021 C5.59879763,5.35675957 5.61888928,5.23061017 5.61888928,5.09407198 C5.61888928,4.95827585 5.59879763,4.82693206 5.55787021,4.70078265 C5.51694278,4.57463324 5.4536913,4.46332494 5.36811577,4.36611569 C5.28254024,4.26890644 5.17166412,4.19173268 5.03697568,4.13311031 C4.9015431,4.07522999 4.74080993,4.04628983 4.55477617,4.04628983 L3.38648416,4.04628983 L3.38648416,6.03351405 Z M3.38648416,7.09020086 L3.38648416,9.32081923 L2.07829476,9.32081923 L2.07829476,2.98960302 L4.55477617,2.98960302 C4.92982023,2.98960302 5.264681,3.04228895 5.56010261,3.1461767 C5.85478009,3.2508065 6.10480946,3.39624935 6.31019073,3.5832473 C6.51482787,3.77024525 6.67109623,3.99211979 6.77899581,4.24887094 C6.88615126,4.50488004 6.93972898,4.78389285 6.93972898,5.08590937 C6.93972898,5.39312029 6.88615126,5.66990693 6.77899581,5.91626931 C6.67109623,6.16263168 6.51482787,6.37263334 6.31019073,6.54627429 C6.10480946,6.7206573 5.85478009,6.85422726 5.56010261,6.94846829 C5.264681,7.04270932 4.92982023,7.09020086 4.55477617,7.09020086 L3.38648416,7.09020086 Z" id="Fill-6"></path>
                                    <path d="M8.69975718,5.94654516 L9.75494067,5.94654516 C9.92609172,5.94654516 10.0771511,5.9242835 10.2058865,5.87901813 C10.335366,5.83449481 10.4432656,5.77067805 10.5288411,5.68756785 C10.6144166,5.6051997 10.6791564,5.50650634 10.7230604,5.39222982 C10.7662202,5.2779533 10.7885442,5.14957772 10.7885442,5.0071031 C10.7885442,4.70879685 10.7029687,4.47430736 10.5333059,4.30289257 C10.362899,4.13221984 10.1024517,4.04614142 9.75047585,4.04614142 L8.69975718,4.04614142 L8.69975718,5.94654516 Z M9.74154623,7.00323198 L8.69975718,7.00323198 L8.69975718,9.32067082 L7.39156778,9.32067082 L7.39156778,2.99019667 L9.75047585,2.99019667 C10.1165903,2.99019667 10.445498,3.03100971 10.7357106,3.11411991 C11.0266674,3.19648805 11.272232,3.31818513 11.4731485,3.47921114 C11.6733208,3.64023715 11.8273568,3.83910798 11.9352563,4.07656569 C12.0424118,4.31476546 12.0959895,4.59006799 12.0959895,4.90321535 C12.0959895,5.13473662 12.0699448,5.34325417 12.0178553,5.52728389 C11.9657659,5.71131362 11.8898641,5.87456579 11.7908941,6.01852453 C11.6919242,6.16174121 11.5728626,6.28714857 11.4337093,6.39474659 C11.2938119,6.50160256 11.1367994,6.59435948 10.9626718,6.67301735 L12.3363451,9.25982228 L12.3363451,9.32067082 L10.9321623,9.32067082 L9.74154623,7.00323198 Z" id="Fill-7"></path>
                                    <polygon id="Fill-8" points="16.4633925 6.57699539 13.9519367 6.57699539 13.9519367 8.27259185 16.8994556 8.27259185 16.8994556 9.320374 12.6437473 9.320374 12.6437473 2.98989984 16.890526 2.98989984 16.890526 4.04658666 13.9519367 4.04658666 13.9519367 5.55518517 16.4633925 5.55518517"></polygon>
                                </g>
                            </g>
                        </g>
                    </g>
                </g>
            </g>
        </g>
    </g>
</svg>