<?xml version="1.0" encoding="UTF-8"?>
<svg width="19px" height="17px" viewBox="0 0 19 17" version="1.1" xmlns="http://www.w3.org/2000/svg" xmlns:xlink="http://www.w3.org/1999/xlink">
    <!-- Generator: Sketch 40.3 (33839) - http://www.bohemiancoding.com/sketch -->
    <title>Icon - Account Management</title>
    <desc>Created with Sketch.</desc>
    <defs></defs>
    <g id="â-B1-Global-Navigation" stroke="none" stroke-width="1" fill="none" fill-rule="evenodd">
        <g id="Nav_01" transform="translate(-965.000000, -60.000000)">
            <g id="nav-/-navbar-1st">
                <g transform="translate(0.000000, 35.000000)">
                    <g id="navbar-1st">
                        <g id="Icon---Account-Management">
                            <g transform="translate(965.000000, 24.000000)">
                                <rect id="trans-frame" x="0" y="0" width="19" height="19"></rect>
                                <path d="M12.4658937,9.96898845 C13.2978026,8.65822572 13.6204064,7.37873638 13.6204064,5.69881174 C13.6204064,4.24052022 13.2813095,2.76591215 12.3464841,2.18055597 C12.7132893,1.98543724 12.8155461,1.97795883 13.2905456,1.91677177 C14.4450583,1.76788326 15.5415155,2.60954522 15.5415155,4.47167132 C15.5415155,5.66481893 15.1219326,7.11903131 14.4899194,8.01100263 C14.4951972,8.1123012 14.5057527,8.21427963 14.5235652,8.31421849 C14.5624888,8.50321851 14.6264818,8.71737321 14.7993288,8.82275092 C14.9899883,8.9410459 15.2057173,9.02058907 15.4155087,9.09605311 C16.2870009,9.39858911 17.1901597,9.67393087 17.964013,10.2035388 C18.3657835,10.476841 18.6389082,11.110467 18.788665,11.5761685 C18.9456787,12.0581865 19.0083522,12.2050355 18.9991161,13.2921255 L16.805542,13.2921255 C16.6201603,12.7842729 16.4110285,12.6170283 16.248737,12.5075715 C15.2433214,11.8202368 14.9213773,11.6536721 13.7134272,11.2117656 L12.7647476,10.8398842 C12.5206506,10.7508231 12.3187758,10.6576828 12.1360329,10.5529849 L12.4658937,9.96898845 Z M9.49978567,17.1 L1.90111297,17.1 C1.88857826,16.5561151 1.97302261,15.5669243 2.17951546,14.9231005 C2.37941108,14.3030716 2.74291765,13.5729061 3.27993099,13.2085032 C4.31173548,12.5028125 5.51506757,12.1336506 6.67749692,11.7304958 C6.95919802,11.6278375 7.243538,11.5224598 7.5008294,11.3654131 C7.7304125,11.2253627 7.81551658,10.9384634 7.86895402,10.6869166 C7.88478734,10.5944561 7.89534289,10.4999561 7.90325954,10.4074957 C7.00933686,9.23474377 6.40964998,7.21149176 6.40964998,5.56420021 C6.40964998,3.08204527 7.76999579,2.39063153 9.44964684,2.39063153 C11.1292979,2.39063153 12.4903034,3.08204527 12.4903034,5.56420021 C12.4903034,7.15506369 11.9308596,9.09469339 11.0877354,10.283082 C11.0943326,10.4183734 11.1095062,10.5543446 11.1325965,10.6875964 C11.1866937,10.9405029 11.2717977,11.2253627 11.5007211,11.3660929 C11.7566931,11.5238196 12.0416928,11.6312368 12.3233939,11.7325354 C13.4858232,12.1356901 14.6884956,12.5075715 15.7209598,13.2125823 C16.2579731,13.5769852 16.62082,14.3030716 16.8220351,14.9237803 C17.0272085,15.5669243 17.1116528,16.5561151 17.0991181,17.1 L9.49978567,17.1 Z M0.210246658,11.5761685 C0.360003448,11.110467 0.633128165,10.5121935 1.03555831,10.2395712 C1.80941167,9.70996324 2.71191074,9.41558551 3.58406262,9.11372937 C3.79319435,9.03826533 4.00760385,8.94920417 4.20024254,8.83158905 C4.37177014,8.7268912 4.43576313,8.5079775 4.47600614,8.31897748 C4.48788113,8.24963215 4.49513806,8.17620769 4.502395,8.1061825 C3.83145819,7.22644859 3.3815281,5.70900958 3.3815281,4.47303103 C3.3815281,2.61090494 4.879096,1.8107142 5.66152575,2.09217467 C5.90892133,2.18123583 5.91353938,2.16491928 6.27770567,2.35459915 C5.43524126,3.01473951 5.10604021,4.10522884 5.1885054,5.50777215 C5.2894428,7.23052773 5.56916473,8.54197031 6.21899045,9.86293089 C6.20645574,9.91527981 6.65968444,10.5448266 6.65176778,10.5638626 C6.47892074,10.6617619 6.02833093,10.8895137 5.80600477,10.9704166 L5.32242888,11.1614562 C5.17267209,11.2131253 5.47416483,11.110467 5.32242888,11.1614562 C4.27017302,11.5183807 3.1822922,12.0309923 2.20194599,12.7006506 C1.84371719,12.9923089 1.84371719,12.9923089 1.62205075,13.2921255 L0.00111492945,13.2921255 C-0.0094406152,12.2050355 0.0545523742,12.0581865 0.210246658,11.5761685 L0.210246658,11.5761685 Z" fill="#FFFFFF"></path>
                            </g>
                        </g>
                    </g>
                </g>
            </g>
        </g>
    </g>
</svg>