<?xml version="1.0" encoding="UTF-8"?>
<svg width="19px" height="19px" viewBox="0 0 19 19" version="1.1" xmlns="http://www.w3.org/2000/svg" xmlns:xlink="http://www.w3.org/1999/xlink">
    <!-- Generator: Sketch 40.3 (33839) - http://www.bohemiancoding.com/sketch -->
    <title>Icon - Dashboard</title>
    <desc>Created with Sketch.</desc>
    <defs></defs>
    <g id="â-B1-Global-Navigation" stroke="none" stroke-width="1" fill="none" fill-rule="evenodd">
        <g id="Nav_01" transform="translate(-190.000000, -59.000000)">
            <g id="nav-/-navbar-1st">
                <g transform="translate(0.000000, 35.000000)">
                    <g id="navbar-1st">
                        <g id="Icon---Dashboard">
                            <g transform="translate(190.000000, 24.000000)">
                                <rect id="trans-frame" x="0" y="0" width="19" height="19"></rect>
                                <g id="Shape" fill="#ffffff">
                                    <path d="M7.59981,0 L11.39981,0 C11.74903,0 12.03365,0.28348 12.03365,0.63289 L12.03365,4.43308 C12.03365,4.7823 11.74903,5.06597 11.39981,5.06597 L7.59981,5.06597 C7.24983,5.06597 6.96654,4.78249 6.96654,4.43308 L6.96654,0.63289 C6.96654,0.28348 7.24964,0 7.59981,0 L7.59981,0 Z"></path>
                                    <path d="M14.56616,0 L18.36692,0 C18.71614,0 18.99924,0.28348 18.99924,0.63289 L18.99924,4.43308 C18.99924,4.7823 18.71614,5.06597 18.36692,5.06597 L14.56616,5.06597 C14.21694,5.06597 13.93232,4.78249 13.93232,4.43308 L13.93232,0.63289 C13.93232,0.28348 14.21694,0 14.56616,0 L14.56616,0 Z"></path>
                                    <path d="M0.63384,0 L4.43308,0 C4.78306,0 5.06692,0.28348 5.06692,0.63289 L5.06692,4.43308 C5.06692,4.7823 4.78306,5.06597 4.43308,5.06597 L0.63384,5.06597 C0.2831,5.06597 0,4.7823 0,4.43308 L0,0.63289 C0,0.28348 0.2831,0 0.63384,0 L0.63384,0 Z"></path>
                                    <path d="M7.59981,6.96578 L11.39981,6.96578 C11.74903,6.96578 12.03365,7.24907 12.03365,7.59924 L12.03365,11.39924 C12.03365,11.74884 11.74903,12.03213 11.39981,12.03213 L7.59981,12.03213 C7.24983,12.03213 6.96654,11.74884 6.96654,11.39924 L6.96654,7.59924 C6.96654,7.24907 7.24964,6.96578 7.59981,6.96578 L7.59981,6.96578 Z"></path>
                                    <path d="M14.56616,6.96578 L18.36692,6.96578 C18.71614,6.96578 18.99924,7.24907 18.99924,7.59924 L18.99924,11.39924 C18.99924,11.74884 18.71614,12.03213 18.36692,12.03213 L14.56616,12.03213 C14.21694,12.03213 13.93232,11.74884 13.93232,11.39924 L13.93232,7.59924 C13.93232,7.24907 14.21694,6.96578 14.56616,6.96578 L14.56616,6.96578 Z"></path>
                                    <path d="M0.63384,6.96578 L4.43308,6.96578 C4.78306,6.96578 5.06692,7.24907 5.06692,7.59924 L5.06692,11.39924 C5.06692,11.74884 4.78306,12.03213 4.43308,12.03213 L0.63384,12.03213 C0.2831,12.03213 0,11.74884 0,11.39924 L0,7.59924 C0,7.24907 0.2831,6.96578 0.63384,6.96578 L0.63384,6.96578 Z"></path>
                                    <path d="M7.59981,13.93308 L11.39981,13.93308 C11.74903,13.93308 12.03365,14.21618 12.03365,14.56559 L12.03365,18.36616 C12.03365,18.71614 11.74903,19 11.39981,19 L7.59981,19 C7.24983,19 6.96654,18.71614 6.96654,18.36616 L6.96654,14.56559 C6.96654,14.21618 7.24964,13.93308 7.59981,13.93308 L7.59981,13.93308 Z"></path>
                                    <path d="M14.56616,13.93308 L18.36692,13.93308 C18.71614,13.93308 18.99924,14.21618 18.99924,14.56559 L18.99924,18.36616 C18.99924,18.71614 18.71614,19 18.36692,19 L14.56616,19 C14.21694,19 13.93232,18.71614 13.93232,18.36616 L13.93232,14.56559 C13.93232,14.21618 14.21694,13.93308 14.56616,13.93308 L14.56616,13.93308 Z"></path>
                                    <path d="M0.63384,13.93308 L4.43308,13.93308 C4.78306,13.93308 5.06692,14.21618 5.06692,14.56559 L5.06692,18.36616 C5.06692,18.71614 4.78306,19 4.43308,19 L0.63384,19 C0.2831,19 0,18.71614 0,18.36616 L0,14.56559 C0,14.21618 0.2831,13.93308 0.63384,13.93308 L0.63384,13.93308 Z"></path>
                                </g>
                            </g>
                        </g>
                    </g>
                </g>
            </g>
        </g>
    </g>
</svg>