<?xml version="1.0" encoding="UTF-8"?>
<svg width="215px" height="50px" viewBox="0 0 215 50" version="1.1" xmlns="http://www.w3.org/2000/svg" xmlns:xlink="http://www.w3.org/1999/xlink">
    <!-- Generator: Sketch 41.2 (35397) - http://www.bohemiancoding.com/sketch -->
    <title>Group</title>
    <desc>Created with Sketch.</desc>
    <defs></defs>
    <g id="Page-1" stroke="none" stroke-width="1" fill="none" fill-rule="evenodd">
        <g id="Group" fill="#FFFFFF">
            <path d="M9.54863666,29.7658868 C10.6084864,29.7658868 10.3772836,28.847214 10.8867481,28.847214 C11.0463393,28.847214 11.1854702,28.9822528 11.1854702,29.2114095 C11.1854702,29.5817431 11.1159047,29.9970896 10.8621955,33.3157695 C10.8396891,33.5428802 10.7926301,33.682011 10.6309928,33.682011 C10.3077182,33.682011 10.4243426,33.4999133 9.89646378,31.8835402 C9.48111727,30.6190863 8.97369888,30.408344 8.09799295,30.408344 C7.61512707,30.408344 7.52305518,30.5290605 7.52305518,30.8032301 L7.52305518,42.4840832 C7.52305518,43.1756454 7.66013999,43.5889459 8.44172799,43.6339588 C9.32152601,43.6810177 9.38904539,43.7280767 9.38904539,43.9797399 C9.38904539,44.1884361 9.272421,44.280508 8.99620535,44.280508 C8.60541134,44.280508 8.14300588,44.1884361 6.66985571,44.1884361 C4.80386551,44.1884361 4.04478397,44.280508 3.72150935,44.280508 C3.51485912,44.280508 3.37368223,44.1884361 3.37368223,43.9797399 C3.37368223,43.7505832 3.51485912,43.7035242 4.08979689,43.6339588 C5.14964659,43.5214265 5.26422494,43.3577431 5.26422494,42.3019855 L5.26422494,30.9157624 C5.26422494,30.504508 5.10258763,30.408344 4.64427424,30.408344 C3.76652227,30.408344 3.25910388,30.8298286 2.50206838,32.1618019 C1.83096664,33.4057954 1.83096664,33.6615506 1.62431641,33.6615506 C1.4872316,33.6615506 1.41766618,33.5674327 1.41766618,33.4283018 C1.41766618,33.1991451 1.50973807,32.7142332 1.96805145,29.8600048 C2.1071823,29.0068053 2.1071823,28.847214 2.40795046,28.847214 C2.84784946,28.847214 2.50206838,29.7658868 3.39823473,29.7658868" id="Fill-20"></path>
            <path d="M18.211578,36.4237072 C18.211578,35.1367468 17.6120877,34.561809 16.7813947,34.561809 C15.8811363,34.561809 15.1916202,35.1367468 14.8008262,36.2886684 L14.8008262,42.6907335 C14.8008262,43.3106842 14.8928981,43.4273086 15.768604,43.7280767 C15.9773003,43.7955961 16.0898326,43.8651615 16.0898326,44.0042924 C16.0898326,44.1413772 16.0243592,44.280508 15.8136169,44.280508 C15.37781,44.280508 14.7558133,44.1884361 13.812588,44.1884361 C13.0739668,44.1884361 12.3578522,44.280508 11.9916107,44.280508 C11.7379015,44.280508 11.6212771,44.2354951 11.6212771,44.0288449 C11.6212771,43.8447011 11.8054209,43.7505832 12.106189,43.6810177 C12.7261397,43.5439329 12.9123295,43.3802496 12.9123295,42.6007076 L12.9123295,30.6190863 C12.9123295,29.5367302 12.496983,29.6062956 12.106189,29.5367302 C11.8524798,29.5101316 11.6908425,29.4896712 11.6908425,29.285067 C11.6908425,29.0763707 11.8524798,29.0068053 12.1512019,28.9392859 C13.71847,28.6160113 14.0867576,27.8794362 14.6166824,27.8794362 C14.7558133,27.8794362 14.8008262,27.9469556 14.8008262,28.2027108 L14.8008262,35.2267727 L14.8458391,35.2267727 C15.7460975,34.0748511 16.599297,33.4057954 17.5670748,33.4057954 C18.9952121,33.4057954 20.1000747,34.1444165 20.1000747,36.3070828 L20.1000747,42.8973837 C20.1000747,43.2697633 20.3292314,43.49892 21.1149115,43.7280767 C21.2745027,43.7730896 21.3890811,43.8651615 21.3890811,44.0288449 C21.3890811,44.1884361 21.2745027,44.280508 21.090359,44.280508 C20.8141433,44.280508 20.2842185,44.1884361 19.1097904,44.1884361 C18.5553131,44.1884361 17.9803753,44.280508 17.427944,44.280508 C17.1496823,44.280508 17.0125975,44.2109426 17.0125975,44.0493053 C17.0125975,43.8651615 17.0821629,43.8181026 17.4033915,43.7280767 C18.0949536,43.5214265 18.211578,43.4048021 18.211578,42.8973837" id="Fill-21"></path>
            <path d="M26.6433167,33.9602727 C24.7302675,33.9602727 24.4049468,36.9311255 24.4049468,37.391485 C24.4049468,37.7618186 24.6156891,37.8784429 25.3747707,37.8784429 C27.537437,37.8784429 28.1614797,37.5756287 28.1614797,36.2395634 C28.1614797,35.2738316 27.7706857,33.9602727 26.6433167,33.9602727 M24.7998329,38.4308743 C24.4049468,38.4308743 24.3128749,38.5004397 24.3128749,39.2370148 C24.3128749,41.444694 25.2826988,43.4048021 27.0341107,43.4048021 C29.4504861,43.4048021 29.3154474,41.5633644 29.7983133,41.5633644 C29.9845031,41.5633644 30.0520224,41.6554363 30.0520224,41.8416261 C30.0520224,42.4165639 28.9676202,44.5567237 26.3875614,44.5567237 C24.0612118,44.5567237 22.1952216,42.6457205 22.1952216,39.0978839 C22.1952216,36.1270311 23.8545616,33.4057954 26.5737512,33.4057954 C28.9676202,33.4057954 30.0520224,35.4804818 30.0520224,37.4856029 C30.0520224,38.2692369 29.8658326,38.4308743 29.3604603,38.4308743 L24.7998329,38.4308743" id="Fill-22"></path>
            <path d="M43.0464345,36.0329132 C43.2980976,36.0329132 43.4167681,35.8978744 43.4167681,35.6646256 L43.4167681,31.335201 C43.4167681,30.5290605 43.3451566,30.41039 42.6085815,30.3224102 C42.0336438,30.2548909 41.9415719,30.1341744 41.9415719,29.9766292 C41.9415719,29.8149918 42.0786567,29.675861 42.3098594,29.675861 C42.5860751,29.675861 43.1159999,29.7658868 44.5666436,29.7658868 C46.1114053,29.7658868 46.3180555,29.675861 46.7088495,29.675861 C47.0096176,29.675861 47.077137,29.7658868 47.077137,29.9316162 C47.077137,30.1341744 46.9175458,30.2057859 46.3855749,30.3224102 C45.8106371,30.4369886 45.6715062,30.5290605 45.6715062,31.0119264 L45.6715062,42.6232141 C45.6715062,43.1756454 45.7881306,43.3822956 46.5021993,43.6360048 C46.9646047,43.7976421 47.1467024,43.7505832 47.1467024,44.0493053 C47.1467024,44.2375411 47.0096176,44.280508 46.7088495,44.280508 C46.3405619,44.280508 46.1114053,44.1884361 44.5195847,44.1884361 C43.2305783,44.1884361 42.5635686,44.280508 42.193235,44.280508 C41.9886308,44.280508 41.8945129,44.1434232 41.8945129,43.9592794 C41.8945129,43.7301228 41.9661244,43.7055702 42.5860751,43.6360048 C43.1159999,43.5684854 43.4167681,43.2697633 43.4167681,42.4390703 L43.4167681,37.0477499 C43.4167681,36.8165472 43.2980976,36.6794624 43.0464345,36.6794624 L39.0852974,36.6794624 C38.8295422,36.6794624 38.7149638,36.8165472 38.7149638,37.0477499 L38.7149638,42.6007076 C38.7149638,43.2697633 38.8090817,43.3127302 39.7748135,43.6360048 C40.0510292,43.7301228 40.2842779,43.7505832 40.2842779,43.9592794 C40.2842779,44.2109426 40.1431011,44.280508 39.8443789,44.280508 C39.4290324,44.280508 38.8090817,44.1884361 37.7267256,44.1884361 C36.3906602,44.1884361 35.6745456,44.280508 35.3512709,44.280508 C35.0750553,44.280508 34.9850294,44.2375411 34.9850294,44.0042924 C34.9850294,43.7730896 35.0975618,43.7505832 35.5354147,43.6360048 C36.2944963,43.4273086 36.4581796,43.2697633 36.4581796,42.5311422 L36.4581796,31.1060443 C36.4581796,30.5515669 36.2944963,30.41039 35.9957741,30.3224102 C35.5845197,30.1832794 35.0975618,30.2958117 35.0975618,29.9991356 C35.0975618,29.7883933 35.2141861,29.675861 35.5129083,29.675861 C35.9753137,29.675861 36.47864,29.7658868 37.794245,29.7658868 C39.1303103,29.7658868 39.6377287,29.6983675 40.0980881,29.675861 C40.2597254,29.675861 40.3988563,29.7474725 40.3988563,29.9070637 C40.3988563,30.2282923 40.1676536,30.1116679 39.3369605,30.3224102 C38.8520486,30.4369886 38.7149638,30.7336647 38.7149638,31.335201 L38.7149638,35.6646256 C38.7149638,35.8978744 38.8295422,36.0329132 39.0852974,36.0329132" id="Fill-23"></path>
            <path d="M53.7370034,38.9812595 C53.7370034,36.8370076 52.9288168,33.9602727 51.4331602,33.9602727 C49.9354575,33.9602727 49.129317,36.8370076 49.129317,38.9812595 C49.129317,41.1255114 49.9354575,44.0042924 51.4331602,44.0042924 C52.9288168,44.0042924 53.7370034,41.1255114 53.7370034,38.9812595 M51.4331602,44.5567237 C48.8735618,44.5567237 47.0096176,41.9541584 47.0096176,38.9812595 C47.0096176,36.0104067 48.8735618,33.4057954 51.4331602,33.4057954 C53.9886665,33.4057954 55.8546567,36.0104067 55.8546567,38.9812595 C55.8546567,41.9541584 53.9886665,44.5567237 51.4331602,44.5567237" id="Fill-24"></path>
            <path d="M63.2531442,36.4237072 C63.2531442,35.0896878 62.6536539,34.561809 61.825007,34.561809 C60.947255,34.561809 60.2311403,35.1572072 59.8423924,36.2886684 L59.8423924,42.6907335 C59.8423924,43.4048021 60.1206541,43.5889459 60.60352,43.7280767 C61.0638794,43.8651615 61.1313988,43.9326809 61.1313988,44.0493053 C61.1313988,44.1884361 61.0638794,44.280508 60.8551831,44.280508 C60.4173302,44.280508 59.7973795,44.1884361 58.8541541,44.1884361 C58.113487,44.1884361 57.4014644,44.280508 57.0311308,44.280508 C56.7794677,44.280508 56.6628433,44.2354951 56.6628433,44.0288449 C56.6628433,43.8447011 56.8469871,43.7505832 57.1477552,43.6810177 C57.7697519,43.5439329 57.9538957,43.3802496 57.9538957,42.6007076 L57.9538957,36.1474915 C57.9538957,35.4559293 57.8372713,35.38841 57.4710298,35.2738316 C57.1477552,35.1817597 56.7794677,35.2738316 56.7794677,35.0201224 C56.7794677,34.6968478 57.2398271,34.7459528 58.1810064,34.2385344 C59.4966113,33.5224198 59.3595265,33.2707566 59.6562026,33.2707566 C59.7973795,33.2707566 59.8423924,33.3587364 59.8423924,33.6369981 L59.8423924,35.2267727 L59.8874053,35.2267727 C60.6485329,34.3060538 61.2705296,33.4057954 62.606595,33.4057954 C64.0347322,33.4057954 65.1395948,34.1894294 65.1395948,36.3070828 L65.1395948,42.8973837 C65.1395948,43.3577431 65.3462451,43.6339588 65.9027685,43.7280767 C66.3610818,43.8181026 66.4306473,43.9122205 66.4306473,44.0963642 C66.4306473,44.1884361 66.3160689,44.280508 66.1298791,44.280508 C65.8557095,44.280508 65.3237386,44.1884361 64.1513566,44.1884361 C63.5968793,44.1884361 63.0219415,44.280508 62.4695102,44.280508 C62.1932945,44.280508 62.0541637,44.2109426 62.0541637,44.0493053 C62.0541637,43.8651615 62.1257751,43.8181026 62.4449577,43.7280767 C63.1344738,43.5214265 63.2531442,43.4048021 63.2531442,42.8973837" id="Fill-25"></path>
            <path d="M70.8766963,40.3623378 C71.7524022,40.3623378 72.3969054,39.2124623 72.3969054,37.1623283 C72.3969054,35.1121943 71.7524022,33.9602727 70.8766963,33.9602727 C70.0009904,33.9602727 69.3564872,35.1121943 69.3564872,37.1623283 C69.3564872,39.2124623 70.0009904,40.3623378 70.8766963,40.3623378 M70.4388433,44.0759038 C69.1273305,44.0759038 68.4357683,45.2257794 68.4357683,46.1239918 C68.4357683,47.7137663 69.5856439,48.7040506 71.1283595,48.7040506 C72.8102059,48.7040506 73.8721016,47.7812857 73.8721016,46.1935572 C73.8721016,44.4196389 72.3969054,44.0759038 70.4388433,44.0759038 M73.9171146,34.9300966 C74.2178827,35.6196127 74.4245329,36.3316353 74.4245329,37.0477499 C74.4245329,38.4738411 73.5263205,40.8288353 70.324265,40.8288353 C69.6777158,40.8288353 68.9861536,41.2871487 68.9861536,41.6554363 C68.9861536,43.4273086 75.3472978,40.712211 75.3472978,45.4549361 C75.3472978,48.0329488 73.1355265,49.2564819 70.5063627,49.2564819 C68.0204218,49.2564819 66.9605721,47.9654295 66.9605721,46.5618447 C66.9605721,44.9966227 68.8511148,44.4196389 68.8511148,44.0288449 C68.8511148,43.7505832 67.3759186,42.6457205 67.3759186,42.1608086 C67.3759186,41.5388119 69.4015001,40.7326714 69.4015001,40.5239751 C69.4015001,40.3398313 67.3309057,39.5807498 67.3309057,37.0252435 C67.3309057,35.0221685 68.7815494,33.4078414 70.8316834,33.4078414 C71.543706,33.4078414 72.0756768,33.5899391 72.4644248,33.7986354 C72.8593109,34.0073317 73.1355265,34.1894294 73.3421768,34.1894294 L75.1836145,34.1894294 C75.3002389,34.1894294 75.3472978,34.2589948 75.3472978,34.561809 C75.3472978,34.8605312 75.3002389,34.9300966 75.1836145,34.9300966 L73.9171146,34.9300966" id="Fill-26"></path>
            <path d="M83.4803143,42.7623449 C83.4803143,43.2431648 83.5723862,43.4273086 84.147324,43.6360048 C84.3989872,43.7301228 84.5156115,43.7055702 84.540164,43.9817859 C84.540164,44.1884361 84.4235397,44.280508 84.2148434,44.280508 C83.7994969,44.280508 83.4332554,44.1884361 82.3283928,44.1884361 C80.9432224,44.1884361 80.6240399,44.280508 80.2066473,44.280508 C79.9754446,44.280508 79.8629123,44.1884361 79.8629123,43.9592794 C79.8629123,43.7505832 79.9754446,43.6810177 80.2311998,43.6360048 C81.1273662,43.49892 81.2235301,43.4048021 81.2235301,42.1874072 L81.2235301,31.1531032 C81.2235301,30.5515669 81.0578008,30.3674232 80.6670067,30.3224102 C80.1841409,30.2733052 79.9304317,30.1587269 79.9304317,29.9991356 C79.9304317,29.8149918 80.092069,29.675861 80.3907911,29.675861 C80.6670067,29.675861 80.922762,29.7658868 82.4409251,29.7658868 C83.707425,29.7658868 83.9836407,29.675861 84.3314678,29.675861 C84.6547424,29.675861 84.7243078,29.7208739 84.7243078,29.9070637 C84.7243078,30.1832794 84.6772489,30.2958117 84.0347917,30.3224102 C83.5969387,30.3428707 83.4803143,30.457449 83.4803143,30.9178084 L83.4803143,35.8978744 L83.5253273,35.8978744 C86.197458,32.3009327 87.1877423,31.1960701 87.1877423,30.7582172 C87.1877423,30.506554 87.0486114,30.3674232 86.6578174,30.3224102 C86.0603732,30.2548909 85.9417027,30.2057859 85.9191963,30.01755 C85.8987359,29.8149918 86.0828796,29.675861 86.3816018,29.675861 C86.8869741,29.675861 87.2082027,29.7658868 88.0409417,29.7658868 C88.8920952,29.7658868 89.3524546,29.675861 89.6552688,29.675861 C89.8823794,29.675861 89.9744513,29.7474725 89.9744513,29.9766292 C89.9744513,30.1116679 89.8823794,30.1832794 89.3770071,30.2958117 C88.4317357,30.4820015 88.1084611,31.0569393 85.4833894,34.5147501 C89.2849352,42.8789693 88.984167,43.1531389 90.0460628,43.6360048 C90.2977259,43.7505832 90.4573172,43.7730896 90.4573172,43.9592794 C90.4573172,44.2375411 90.3222784,44.280508 90.0215103,44.280508 C89.7473407,44.280508 89.5120458,44.1884361 88.2230395,44.1884361 C86.9565395,44.1884361 86.4982261,44.280508 86.3140824,44.280508 C86.0828796,44.280508 85.9417027,44.1884361 85.9417027,43.9326809 C85.9417027,43.7301228 86.1258465,43.6360048 86.3365888,43.6360048 C86.8215008,43.6360048 86.981092,43.4273086 86.981092,43.10608 C86.981092,42.8523708 86.7969483,42.6232141 85.3217521,39.3065802 C84.147324,36.6569559 84.1248175,36.4503057 83.9836407,36.4503057 C83.9161213,36.4503057 83.4803143,36.953632 83.4803143,37.1398218" id="Fill-27"></path>
            <path d="M96.9555462,38.9812595 C96.9555462,36.8370076 96.1494057,33.9602727 94.649657,33.9602727 C93.1560465,33.9602727 92.3478599,36.8370076 92.3478599,38.9812595 C92.3478599,41.1255114 93.1560465,44.0042924 94.649657,44.0042924 C96.1494057,44.0042924 96.9555462,41.1255114 96.9555462,38.9812595 M94.649657,44.5567237 C92.0921047,44.5567237 90.2261145,41.9541584 90.2261145,38.9812595 C90.2261145,36.0104067 92.0921047,33.4057954 94.649657,33.4057954 C97.2072094,33.4057954 99.0731996,36.0104067 99.0731996,38.9812595 C99.0731996,41.9541584 97.2072094,44.5567237 94.649657,44.5567237" id="Fill-28"></path>
            <path d="M106.355063,36.4237072 C106.355063,35.0896878 105.757618,34.561809 104.926925,34.561809 C104.053266,34.561809 103.337151,35.1572072 102.946357,36.2886684 L102.946357,42.6907335 C102.946357,43.4048021 103.222573,43.5889459 103.705438,43.7280767 C104.16989,43.8651615 104.237409,43.9326809 104.237409,44.0493053 C104.237409,44.1884361 104.16989,44.280508 103.959148,44.280508 C103.521295,44.280508 102.899298,44.1884361 101.956073,44.1884361 C101.219498,44.1884361 100.503383,44.280508 100.137141,44.280508 C99.8813861,44.280508 99.7647618,44.2354951 99.7647618,44.0288449 C99.7647618,43.8447011 99.9489055,43.7505832 100.249674,43.6810177 C100.87167,43.5439329 101.055814,43.3802496 101.055814,42.6007076 L101.055814,36.1474915 C101.055814,35.4559293 100.93919,35.38841 100.572948,35.2738316 C100.249674,35.1817597 99.8813861,35.2738316 99.8813861,35.0201224 C99.8813861,34.6968478 100.341746,34.7459528 101.287017,34.2385344 C102.59853,33.5224198 102.463491,33.2707566 102.762213,33.2707566 C102.899298,33.2707566 102.946357,33.3587364 102.946357,33.6369981 L102.946357,35.2267727 L102.989324,35.2267727 C103.752497,34.3060538 104.372448,33.4057954 105.712606,33.4057954 C107.138697,33.4057954 108.245605,34.1894294 108.245605,36.3070828 L108.245605,42.8973837 C108.245605,43.3577431 108.45021,43.6339588 109.004687,43.7280767 C109.465046,43.8181026 109.534612,43.9122205 109.534612,44.0963642 C109.534612,44.1884361 109.420033,44.280508 109.23589,44.280508 C108.957628,44.280508 108.429749,44.1884361 107.253275,44.1884361 C106.70289,44.1884361 106.12386,44.280508 105.571429,44.280508 C105.295213,44.280508 105.156082,44.2109426 105.156082,44.0493053 C105.156082,43.8651615 105.223602,43.8181026 105.546876,43.7280767 C106.238438,43.5214265 106.355063,43.4048021 106.355063,42.8973837" id="Fill-29"></path>
            <path d="M114.602658,40.3623378 C115.478363,40.3623378 116.120821,39.2124623 116.120821,37.1623283 C116.120821,35.1121943 115.478363,33.9602727 114.602658,33.9602727 C113.726952,33.9602727 113.080402,35.1121943 113.080402,37.1623283 C113.080402,39.2124623 113.726952,40.3623378 114.602658,40.3623378 M114.162759,44.0759038 C112.853292,44.0759038 112.159684,45.2257794 112.159684,46.1239918 C112.159684,47.7137663 113.311605,48.7040506 114.854321,48.7040506 C116.536167,48.7040506 117.596017,47.7812857 117.596017,46.1935572 C117.596017,44.4196389 116.120821,44.0759038 114.162759,44.0759038 M117.64103,34.9300966 C117.943844,35.6196127 118.148448,36.3316353 118.148448,37.0477499 C118.148448,38.4738411 117.252282,40.8288353 114.050226,40.8288353 C113.403677,40.8288353 112.712115,41.2871487 112.712115,41.6554363 C112.712115,43.4273086 119.071213,40.712211 119.071213,45.4549361 C119.071213,48.0329488 116.861488,49.2564819 114.230278,49.2564819 C111.746383,49.2564819 110.684487,47.9654295 110.684487,46.5618447 C110.684487,44.9966227 112.577076,44.4196389 112.577076,44.0288449 C112.577076,43.7505832 111.099834,42.6457205 111.099834,42.1608086 C111.099834,41.5388119 113.125415,40.7326714 113.125415,40.5239751 C113.125415,40.3398313 111.054821,39.5807498 111.054821,37.0252435 C111.054821,35.0221685 112.505465,33.4078414 114.555599,33.4078414 C115.269667,33.4078414 115.801638,33.5899391 116.18834,33.7986354 C116.583226,34.0073317 116.861488,34.1894294 117.066092,34.1894294 L118.909576,34.1894294 C119.024154,34.1894294 119.071213,34.2589948 119.071213,34.561809 C119.071213,34.8605312 119.024154,34.9300966 118.909576,34.9300966 L117.64103,34.9300966" id="Fill-30"></path>
            <path d="M128.126994,42.7132399 C128.126994,44.8308933 126.101413,48.7490635 123.357671,48.7490635 C122.297821,48.7490635 121.859968,48.2191387 121.859968,47.4109521 C121.859968,46.7889554 122.297821,46.2590305 122.897311,46.2590305 C124.167903,46.2590305 123.934655,47.8283447 124.442073,47.8283447 C125.037471,47.8283447 125.868164,46.5618447 125.868164,44.3725799 L125.868164,31.7689619 C125.868164,30.7336647 125.636961,30.3899296 124.810361,30.3203642 C124.049233,30.2528448 123.912148,30.2733052 123.912148,29.9745831 C123.912148,29.7883933 123.98376,29.673815 124.462533,29.673815 C125.180694,29.673815 126.052308,29.7658868 126.952566,29.7658868 C128.658965,29.7658868 129.025207,29.673815 129.393494,29.673815 C129.602191,29.673815 129.831347,29.7454264 129.831347,29.9745831 C129.831347,30.2528448 129.645158,30.2528448 128.978148,30.3203642 C128.474822,30.3674232 128.126994,30.6190863 128.126994,31.335201" id="Fill-31"></path>
            <path d="M136.397096,38.9812595 C136.397096,36.8370076 135.590955,33.9602727 134.093253,33.9602727 C132.59555,33.9602727 131.787363,36.8370076 131.787363,38.9812595 C131.787363,41.1255114 132.59555,44.0042924 134.093253,44.0042924 C135.590955,44.0042924 136.397096,41.1255114 136.397096,38.9812595 M134.093253,44.5567237 C131.5357,44.5567237 129.66971,41.9541584 129.66971,38.9812595 C129.66971,36.0104067 131.5357,33.4057954 134.093253,33.4057954 C136.648759,33.4057954 138.516795,36.0104067 138.516795,38.9812595 C138.516795,41.9541584 136.648759,44.5567237 134.093253,44.5567237" id="Fill-32"></path>
            <path d="M144.894308,43.4048021 C146.876922,43.4048021 147.016053,41.5163054 147.478459,41.5163054 C147.611451,41.5163054 147.730122,41.6063313 147.730122,41.9296059 C147.730122,42.621168 146.600707,44.5546776 144.11272,44.5546776 C141.532661,44.5546776 139.781249,42.2549265 139.781249,38.7971158 C139.781249,35.7587435 141.716805,33.4057954 144.575125,33.4057954 C145.377174,33.4057954 146.508635,33.5899391 146.923981,33.8456944 C147.24521,34.0298381 147.292269,34.0973575 147.292269,35.0896878 C147.292269,36.6794624 147.24521,36.7694882 146.78485,36.7694882 C146.369504,36.7694882 146.232419,36.6078509 145.884592,35.9633477 C145.057991,34.4410926 144.941367,33.9602727 144.31937,33.9602727 C143.234968,33.9602727 141.898902,35.5234487 141.898902,38.2446844 C141.898902,41.1480179 143.192001,43.4048021 144.894308,43.4048021" id="Fill-33"></path>
            <path d="M151.531668,39.6503152 L151.531668,42.6886874 C151.531668,43.3106842 151.740364,43.4723215 152.474893,43.7280767 C152.728602,43.8181026 152.914792,43.8181026 152.914792,44.0042924 C152.914792,44.1413772 152.798168,44.280508 152.681543,44.280508 C151.992027,44.280508 151.300465,44.1884361 150.608903,44.1884361 C149.9644,44.1884361 149.31785,44.280508 148.675393,44.280508 C148.466697,44.280508 148.399178,44.2109426 148.399178,44.0288449 C148.399178,43.8447011 148.491249,43.7730896 148.720406,43.7280767 C149.50404,43.5889459 149.641125,43.3802496 149.641125,42.8073579 L149.641125,30.6866057 C149.641125,29.4671647 149.250331,29.4896712 148.974115,29.4426122 C148.720406,29.4221518 148.466697,29.3546324 148.466697,29.1213836 C148.466697,28.9392859 148.765419,28.8881349 148.974115,28.847214 C149.800716,28.6630703 150.35724,28.407315 150.723481,28.2231713 C151.024249,28.0615339 151.253406,27.8794362 151.347524,27.8794362 C151.484609,27.8794362 151.531668,27.9469556 151.531668,28.2027108 L151.531668,38.3838153 C151.531668,38.5904655 151.578727,38.612972 151.62374,38.612972 C151.668752,38.612972 151.854942,38.4288282 152.499445,37.782279 C155.056998,35.2267727 155.308661,35.1101483 155.308661,34.6722953 C155.308661,34.4001717 155.056998,34.2835473 154.435001,34.2364884 C154.132187,34.2119359 153.880524,34.1444165 153.880524,33.9377663 C153.880524,33.8190958 154.019655,33.682011 154.273364,33.682011 C154.98334,33.682011 155.607383,33.778175 156.231426,33.778175 C156.922988,33.778175 157.958285,33.682011 158.142429,33.682011 C158.396138,33.682011 158.420691,33.7515764 158.420691,33.8661548 C158.420691,34.12191 158.324527,34.0502986 157.68207,34.2364884 C156.62222,34.5352105 156.530148,34.8339326 154.08922,37.2769066 C157.657517,43.0815275 157.522478,43.5439329 158.373632,43.7280767 C158.672354,43.7955961 158.788978,43.8651615 158.788978,44.0042924 C158.788978,44.1884361 158.649847,44.280508 158.373632,44.280508 C157.727082,44.280508 157.082579,44.1884361 156.438076,44.1884361 C155.95521,44.1884361 155.472344,44.280508 154.895361,44.280508 C154.639605,44.280508 154.549579,44.1679757 154.549579,44.0042924 C154.549579,43.8651615 154.639605,43.7955961 154.917867,43.7280767 C155.35572,43.6134984 155.400733,43.5439329 155.400733,43.2431648 C155.400733,43.0324225 154.98334,42.4370243 152.751109,38.5454526" id="Fill-34"></path>
            <path d="M163.187968,33.9602727 C161.272873,33.9602727 160.953691,36.9311255 160.953691,37.391485 C160.953691,37.7618186 161.160341,37.8784429 161.921468,37.8784429 C164.086181,37.8784429 164.706131,37.5756287 164.706131,36.2395634 C164.706131,35.2738316 164.315337,33.9602727 163.187968,33.9602727 M161.344485,38.4308743 C160.953691,38.4308743 160.857527,38.5004397 160.857527,39.2370148 C160.857527,41.444694 161.82735,43.4048021 163.578762,43.4048021 C165.997184,43.4048021 165.858053,41.5633644 166.342965,41.5633644 C166.529155,41.5633644 166.596674,41.6554363 166.596674,41.8416261 C166.596674,42.4165639 165.514318,44.5567237 162.936305,44.5567237 C160.605863,44.5567237 158.739873,42.6457205 158.739873,39.0978839 C158.739873,36.1270311 160.399213,33.4057954 163.118403,33.4057954 C165.514318,33.4057954 166.596674,35.4804818 166.596674,37.4856029 C166.596674,38.2692369 166.41253,38.4308743 165.905112,38.4308743 L161.344485,38.4308743" id="Fill-35"></path>
            <path d="M169.086707,39.3045341 C167.496933,34.6252363 167.519439,34.3265142 167.104092,34.2364884 C166.897442,34.1894294 166.756265,34.1648769 166.756265,33.9602727 C166.756265,33.7986354 166.852429,33.682011 167.104092,33.682011 C167.337341,33.682011 167.887727,33.778175 168.787985,33.778175 C169.684151,33.778175 170.353207,33.682011 170.492338,33.682011 C170.746047,33.682011 170.860625,33.7515764 170.860625,33.9377663 C170.860625,34.12191 170.746047,34.1648769 170.469831,34.2364884 C169.778269,34.3981257 169.592079,34.4881515 169.592079,34.8809916 C169.592079,35.0651353 169.661645,35.38841 170.512798,37.9664227 C171.527635,41.008887 171.435563,41.2380437 171.666766,41.2380437 C171.873416,41.2380437 171.897969,40.9413677 172.012547,40.618093 L173.532756,35.7116846 C173.602322,35.4334229 173.694393,35.1797137 173.694393,35.0201224 C173.694393,34.561809 173.393625,34.3265142 172.794135,34.2364884 C172.472906,34.1894294 172.378788,34.1648769 172.378788,34.0052856 C172.378788,33.778175 172.495413,33.682011 172.747076,33.682011 C173.023292,33.682011 173.393625,33.778175 174.038128,33.778175 C174.750151,33.778175 175.100024,33.682011 175.284168,33.682011 C175.468312,33.682011 175.535831,33.7986354 175.535831,33.9132138 C175.535831,34.0748511 175.398746,34.2119359 175.212556,34.2364884 C174.774704,34.3060538 174.498488,34.8809916 174.246825,35.6646256 L170.261135,48.3562235 C170.076991,48.9577598 169.937861,49.2544359 169.062155,49.2544359 C168.141436,49.2544359 168.024811,49.115305 168.024811,48.1741257 C168.024811,47.2043019 168.096423,47.0917696 169.11126,47.0917696 C170.029932,47.0917696 170.169063,47.0447106 170.492338,45.8457301 L170.860625,44.5076187" id="Fill-36"></path>
            <path d="M185.139952,43.9122205 C185.970645,43.9122205 186.823844,43.4273086 187.30671,41.5163054 C187.832543,39.4395729 187.881648,39.39456 188.112851,39.39456 C188.505691,39.39456 188.550704,39.4395729 188.550704,41.9787109 C188.550704,43.1756454 188.481138,43.49892 188.202876,43.7505832 C187.881648,44.0472592 186.615148,44.5546776 185.094939,44.5546776 C181.45503,44.5546776 179.220753,40.9822885 179.220753,36.9311255 C179.220753,32.2763802 181.823318,29.3996453 185.072432,29.3996453 C186.271413,29.3996453 187.261697,29.6308481 187.951213,30.064609 C188.202876,30.2262463 188.229475,30.2733052 188.229475,31.8835402 C188.229475,33.5899391 188.18037,33.682011 187.791622,33.682011 C187.58088,33.682011 187.421288,33.4549004 186.962975,32.1618019 C186.289827,30.2958117 185.739442,30.0441485 184.955808,30.0441485 C182.883168,30.0441485 181.706693,32.0717761 181.706693,36.8370076 C181.706693,41.6533902 183.368079,43.9122205 185.139952,43.9122205" id="Fill-37"></path>
            <path d="M192.837161,42.5536487 C192.837161,43.4048021 193.205449,43.5439329 193.827446,43.7280767 C194.312358,43.8651615 194.494455,43.8181026 194.494455,44.0738578 C194.494455,44.2109426 194.404429,44.280508 194.148674,44.280508 C193.504171,44.280508 192.581406,44.1884361 191.797772,44.1884361 C191.130762,44.1884361 190.279609,44.280508 189.81925,44.280508 C189.563494,44.280508 189.336384,44.2559555 189.336384,44.0472592 C189.336384,43.9122205 189.450962,43.8181026 189.796743,43.7280767 C190.81158,43.49892 190.946619,43.3106842 190.946619,42.1853611 L190.946619,30.4349425 C190.946619,29.8825112 190.668357,29.6513085 190.279609,29.5571906 C189.911321,29.4896712 189.678073,29.4671647 189.678073,29.238008 C189.678073,28.9822528 189.933828,28.9822528 190.162985,28.9147334 C192.143553,28.3397956 192.513887,27.8998966 192.650972,27.8794362 C192.790102,27.8794362 192.837161,27.9469556 192.837161,28.2027108" id="Fill-38"></path>
            <path d="M203.501132,42.5311422 C203.501132,43.0140081 203.777347,43.10608 204.168141,43.1981519 C204.468909,43.2452108 204.743079,43.2902237 204.743079,43.4273086 C204.743079,43.6585113 204.560981,43.6134984 204.031057,43.7730896 C203.593204,43.9142665 202.83003,44.1434232 202.394223,44.4421453 C202.277599,44.5096647 202.167112,44.5567237 202.048442,44.5567237 C201.862252,44.5567237 201.862252,44.327567 201.862252,44.0984103 L201.862252,43.1756454 C201.862252,42.9669491 201.77018,42.8994297 201.6822,42.8994297 C201.450998,42.8994297 200.344089,44.4666978 198.825926,44.4666978 C197.279118,44.4666978 196.31134,43.5684854 196.31134,41.4917529 L196.31134,35.0221685 C196.31134,34.3285603 195.828475,34.2855934 195.439727,34.2589948 C195.183971,34.2385344 194.928216,34.1914755 194.928216,33.9623188 C194.928216,33.780221 195.044841,33.6635966 195.278089,33.6635966 L197.835642,33.6635966 C198.134364,33.6635966 198.201883,33.780221 198.201883,34.0768971 L198.201883,41.3792206 C198.201883,42.715286 198.758407,43.3127302 199.793704,43.3127302 C200.826955,43.3127302 201.610589,42.4861293 201.610589,41.4242335 L201.610589,35.0446749 C201.610589,34.3551588 201.127723,34.3060538 200.734883,34.2855934 C200.48322,34.2589948 200.227465,34.2139819 200.227465,33.9827792 C200.227465,33.7986354 200.344089,33.6840571 200.573246,33.6840571 L203.130798,33.6840571 C203.433612,33.6840571 203.501132,33.7986354 203.501132,34.0994036" id="Fill-39"></path>
            <path d="M208.777874,42.3899653 C208.777874,43.3577431 209.375318,44.0042924 210.275576,44.0042924 C211.748727,44.0042924 212.78607,42.4370243 212.78607,39.2370148 C212.78607,36.8145012 211.959469,34.561809 210.23261,34.561809 C209.328259,34.561809 208.777874,34.9751095 208.777874,35.9162888 L208.777874,42.3899653 Z M206.889377,30.504508 C206.889377,29.9970896 206.862779,29.6308481 206.359452,29.5367302 C205.991165,29.4692108 205.780422,29.3996453 205.780422,29.2134555 C205.780422,28.9822528 206.013671,28.9597463 206.265334,28.8881349 C207.235158,28.6364717 208.640789,27.8794362 208.59373,27.8323773 L208.59373,27.8794362 C208.730815,27.8794362 208.777874,27.9469556 208.777874,28.2027108 L208.777874,33.9827792 C208.777874,34.2119359 208.777874,34.4206321 208.937465,34.4206321 C209.19322,34.4206321 209.909335,33.4057954 211.402945,33.4057954 C213.522645,33.4057954 214.907815,35.6646256 214.907815,38.9342006 C214.907815,41.7475082 213.154357,44.5567237 210.25307,44.5567237 C208.777874,44.5567237 208.477106,43.8181026 207.855109,43.8181026 C207.282217,43.8181026 207.464315,44.7858804 206.889377,44.7858804 C206.680681,44.7858804 206.635668,44.6958545 206.635668,44.3930403 C206.635668,44.0042924 206.889377,43.5889459 206.889377,41.790475 L206.889377,30.504508 L206.889377,30.504508 Z" id="Fill-40"></path>
            <path d="M8.38239278,15.805743 L15.134331,15.805743 L15.134331,13.3300323 L8.38239278,13.3300323 L8.38239278,15.805743 Z M15.6274271,9.34638877 C15.5414934,9.34638877 15.4698819,9.36889523 15.4187308,9.42209232 L14.7496751,10.0543193 L8.74454219,10.0543193 L7.05041951,9.47528941 C8.23916985,8.44613034 9.30720371,7.24510375 10.2545211,5.87220964 L10.7701237,5.87220964 L10.7701237,7.60520712 L10.6596374,9.72695256 C10.6555453,9.84153091 10.7026043,9.89677404 10.8049064,9.89677404 C10.835597,9.89677404 10.8621955,9.89677404 10.8928862,9.88858987 L11.7072109,9.7187684 C12.3087472,9.61032817 12.6074693,9.4261844 12.6013312,9.17861334 L12.5563182,7.55610212 L12.5563182,5.87220964 L13.1619466,5.87220964 C14.1829215,8.03692196 16.3640022,9.81697841 19.7031426,11.2082869 C20.165548,10.5760599 21.0248856,10.2139105 22.2791093,10.1136545 L22.3241222,9.80061007 L20.6484139,9.45687503 C19.8586417,9.29523772 18.7394568,8.87784518 17.2969973,8.21288156 C15.8545378,7.54382586 14.7701356,6.7642839 14.0417446,5.87220964 L21.2683646,5.87220964 C21.4197717,5.87220964 21.4995673,5.82105859 21.4995673,5.72489462 C21.4995673,5.61031628 21.1435561,5.31773229 20.4335795,4.84714265 C19.7276951,4.37655302 19.3184867,4.1412582 19.2080004,4.1412582 C19.0831919,4.1412582 19.0033962,4.16376466 18.9665675,4.20673154 L17.9967436,5.29931791 L12.5563182,5.29931791 L12.5563182,3.16325018 L13.5916154,3.05276391 L17.0678406,2.5392074 C17.1435442,2.52897719 17.3276879,2.56785199 17.6161798,2.65583179 C17.9067178,2.74790367 18.1297363,2.79496264 18.2831895,2.79496264 C18.3936758,2.79496264 18.4468728,2.72539721 18.4468728,2.58422032 C18.4468728,2.48805635 17.9251322,1.80467836 16.8857429,0.546362597 C13.3215379,1.64304105 9.76142501,2.43076718 6.20131212,2.90340286 L2.47751588,3.40263708 L2.5470813,3.74841816 L6.53072487,3.65430023 L9.73482647,3.47424854 L10.7701237,3.3842227 L10.7701237,5.29931791 L1.21101595,5.29931791 L1.73071059,6.06862966 C2.39772025,5.93768298 2.94196739,5.87220964 3.35935993,5.87220964 L7.88929668,5.87220964 C6.6985003,7.9509882 4.37215067,10.1545753 0.916385917,12.4891091 L1.12303615,12.7346341 C2.7619157,12.2006172 4.56447861,11.2532998 6.53072487,9.87835966 L6.53072487,15.6891186 L6.44274506,17.8742914 C6.44274506,17.9418108 6.47957382,17.9990999 6.54300112,18.0543431 C6.6105205,18.1075401 6.6739478,18.1341387 6.73942114,18.1341387 C6.7619276,18.1341387 6.7864801,18.1341387 6.80694052,18.1259545 L7.84428376,17.7985878 C8.20029505,17.6819634 8.38239278,17.5592009 8.38239278,17.4139319 L8.38239278,16.3827268 L15.134331,16.3827268 L15.134331,17.8742914 C15.134331,17.9909158 15.1854821,18.050251 15.2857381,18.050251 C15.3164287,18.050251 15.3471194,18.0420668 15.375764,18.0318366 L16.1246153,17.8333705 C16.697507,17.7044699 16.9839529,17.5223722 16.9839529,17.2829853 L16.9839529,11.2287473 C16.9839529,11.1530438 17.0617025,11.0405115 17.2233398,10.8850123 C17.3870231,10.7336052 17.4688648,10.629257 17.4688648,10.580152 C17.4688648,10.5003564 17.4320361,10.4369291 17.3563325,10.3857781 L15.8688601,9.42209232 C15.7972486,9.36889523 15.717453,9.34638877 15.6274271,9.34638877 L15.6274271,9.34638877 Z M8.38239278,12.7510025 L15.134331,12.7510025 L15.134331,10.627211 L8.38239278,10.627211 L8.38239278,12.7510025 Z" id="Fill-41"></path>
            <path d="M29.0556,8.06352051 C29.3420459,8.47886701 29.5732486,8.68756328 29.7492082,8.68756328 C29.9619966,8.68756328 30.1809231,8.54229431 30.4039417,8.24971032 C30.6269602,7.95712633 30.7394925,7.67068046 30.7394925,7.39651085 C30.7394925,6.55558763 29.4300257,5.78627588 26.809046,5.08652955 L26.6310404,5.43435668 C27.490378,6.08704404 28.2985645,6.96479601 29.0556,8.06352051 L29.0556,8.06352051 Z M30.7926896,3.43741979 C31.1752994,4.03895611 31.4228705,4.38678323 31.5354028,4.49113136 C31.643843,4.5954795 31.7522833,4.64663055 31.8627695,4.64663055 C32.0898802,4.64663055 32.3190369,4.47885511 32.5461475,4.13512007 C32.7732582,3.79547712 32.8878365,3.48857084 32.8878365,3.21644727 C32.8878365,2.40007655 31.4903899,1.58984396 28.7036808,0.769381163 L28.5256752,1.07833349 C29.6509982,2.05224943 30.4039417,2.83997556 30.7926896,3.43741979 L30.7926896,3.43741979 Z M37.0924526,12.4522804 L41.0494976,12.4522804 L41.0494976,10.4389751 L37.0924526,10.4389751 L37.0924526,12.4522804 Z M31.1364246,11.799593 C31.2694174,11.1980567 31.347167,10.8686439 31.3676274,10.8072627 L32.4929504,7.79139693 L35.8627814,7.79139693 C34.8274842,9.7289986 33.1988349,11.5356536 30.9809255,13.2031777 L30.9400046,13.2031777 L30.9400046,13.0783692 C30.9400046,12.8226139 31.005478,12.3949912 31.1364246,11.799593 L31.1364246,11.799593 Z M41.4341535,9.32388231 C41.3543579,9.32388231 41.2909306,9.34638877 41.2459176,9.38321753 L40.7057626,9.86199133 L37.305241,9.86199133 L36.7303032,9.45892108 C37.260228,8.75917475 37.6612522,8.20265135 37.9292837,7.79139693 L40.8633078,7.79139693 C41.0024386,8.23538802 41.3093449,8.78781933 41.7860727,9.45892108 L41.7410598,9.49370379 C41.6367116,9.38321753 41.5364556,9.32388231 41.4341535,9.32388231 L41.4341535,9.32388231 Z M46.8172897,4.62617013 C46.9359601,4.62617013 46.9932493,4.57911116 46.9932493,4.47885511 C46.9932493,4.37859906 46.6761128,4.07169278 46.0418398,3.55609022 C45.4075668,3.04048766 45.0413253,2.78473243 44.9472074,2.78473243 C44.8387672,2.78473243 44.7507874,2.81542305 44.6934982,2.88498848 L43.7482269,4.05532444 L42.3241817,4.05532444 L42.3241817,2.00519047 C42.3241817,1.93153296 42.4530823,1.80877044 42.7006534,1.63894897 C42.9482245,1.47321957 43.0750791,1.3525031 43.0750791,1.27884559 C43.0750791,1.10697808 42.2218796,0.847130755 40.5175267,0.489073424 L40.5748159,2.08089402 L40.5748159,4.05532444 L37.9088233,4.05532444 L37.9088233,2.02565088 C37.9088233,1.93153296 38.0049873,1.79649419 38.2014073,1.62462667 C38.3957813,1.45685124 38.4919452,1.35045706 38.4919452,1.30544414 C38.4919452,1.17858954 38.4039654,1.09879391 38.2280058,1.0496889 L36.1492273,0.489073424 L36.0837539,0.52794822 L36.1492273,1.88447399 L36.1492273,4.05532444 L33.0412896,4.05532444 C33.0719803,4.13921216 33.1415457,4.26402071 33.252032,4.43588823 C33.3604722,4.60570971 33.4320837,4.73665639 33.4607282,4.82463619 C34.1093235,4.69368951 34.5430844,4.62617013 34.7722411,4.62617013 L36.1246748,4.62617013 L36.1246748,7.22055125 L32.6586798,7.22055125 L33.5159714,5.02924038 L33.0658422,4.90033974 L32.1164787,6.73563932 L30.42031,9.78628778 L29.4975451,11.3208192 C29.3113553,11.6195413 28.8243973,11.7566261 28.0325791,11.7320736 L27.1282286,11.701383 L27.1077682,12.1085453 C27.8566195,12.2947351 28.3660839,12.4788789 28.6382075,12.6630227 C28.9103311,12.8492125 29.0658303,12.9822052 29.1047051,13.0722311 C29.1456259,13.1581648 29.1660863,13.3668611 29.1660863,13.6983199 C29.1660863,14.242567 29.1108432,14.7458933 29.002403,15.2082988 C28.8898707,15.6768424 28.8366736,15.9407818 28.8366736,16.000117 C28.8366736,16.4502462 29.0249094,16.8185338 29.4095653,17.1152098 C29.788083,17.4057478 30.2013835,17.5551088 30.6392365,17.5551088 C31.1323326,17.5551088 31.3799036,17.3300442 31.3799036,16.879915 C31.3799036,16.6609885 31.3062461,16.1678924 31.1589311,15.3965346 C31.0116161,14.6251769 30.9400046,14.0031801 30.9400046,13.5305444 L30.9400046,13.313664 C30.9809255,13.313664 31.0423067,13.3382165 31.1159642,13.3873215 C31.1875757,13.4384726 31.2428188,13.4650711 31.2796476,13.4650711 C31.3594432,13.4650711 31.8075264,13.2215921 32.6136669,12.7489564 C33.4218534,12.2722287 34.2955133,11.6604621 35.2428307,10.9177489 L35.2878436,10.9361633 L35.3123961,15.5724942 C35.3123961,16.1433399 35.4106062,16.5443641 35.6193024,16.7694288 C35.8239066,16.9924473 36.2106085,17.1622688 36.7814542,17.2768471 C37.3502539,17.3934715 38.4162417,17.4528067 39.9794177,17.4528067 C41.8945129,17.4528067 43.2755912,17.3709651 44.1144684,17.2113738 C44.9553916,17.0558746 45.6449077,16.6241598 46.1809707,15.9366897 C45.6817365,15.6727503 45.3380014,15.412903 45.1559037,15.1591938 C44.9717599,14.9034385 44.8592276,14.0850218 44.8142147,12.7121277 L44.4070524,12.6998514 C44.1062842,13.999088 43.854621,14.825689 43.6520629,15.169424 C43.4515508,15.511113 43.2101178,15.7198093 42.9318562,15.7914207 C42.6535945,15.8650782 41.7758425,15.8998609 40.2986002,15.8998609 C38.8929695,15.8998609 38.0213556,15.8650782 37.6898968,15.7955128 C37.358438,15.7259474 37.1742943,15.5540799 37.1313274,15.2717261 C37.0944986,14.9975565 37.0740382,14.2487051 37.0740382,13.0272181 L41.0494976,13.0272181 L41.0494976,13.5223603 C41.0494976,13.6267084 41.1129249,13.6799055 41.2459176,13.6799055 C41.3277593,13.6799055 41.6223893,13.6021559 42.1338998,13.4425646 C42.6413182,13.2809273 42.8929814,13.1438425 42.8868432,13.0272181 L42.8009095,11.8916649 L42.8009095,11.0282352 C42.8009095,10.8850123 42.8541066,10.8256771 42.9645928,10.8420454 C43.9262325,11.6481859 44.7385111,12.190387 45.3973366,12.4706947 C46.0050111,11.8712045 46.7681847,11.5724823 47.6745813,11.5724823 L47.7686992,11.2798984 C45.074062,10.627211 43.0280201,9.4650592 41.6305735,7.79139693 L47.0157558,7.79139693 C47.1344262,7.79139693 47.1917154,7.72796964 47.1917154,7.60520712 C47.1917154,7.51518128 46.8848091,7.2328275 46.2689505,6.74382349 C45.6530919,6.26504968 45.3052647,6.02361674 45.2336533,6.02361674 C45.121121,6.02361674 45.0474635,6.0461232 45.0126808,6.08704404 L44.0428569,7.22055125 L42.3241817,7.22055125 L42.3241817,4.62617013 L46.8172897,4.62617013 L46.8172897,4.62617013 Z M37.9088233,7.22055125 L40.5748159,7.22055125 L40.5748159,4.62617013 L37.9088233,4.62617013 L37.9088233,7.22055125 Z" id="Fill-42"></path>
            <path d="M58.5492939,13.9724895 L65.8495714,13.9724895 L65.8495714,12.8573967 L58.5492939,12.8573967 L58.5492939,13.9724895 Z M58.5492939,12.2722287 L65.8495714,12.2722287 L65.8495714,11.3371875 L58.5492939,11.3371875 L58.5492939,12.2722287 Z M58.5492939,10.7663418 L65.8495714,10.7663418 L65.8495714,9.86199133 L58.5492939,9.86199133 L58.5492939,10.7663418 Z M60.5339545,7.92029757 L64.9268065,7.92029757 C65.2787257,8.3561045 65.6163226,8.72234599 65.9375512,9.01902207 L65.6306449,9.28705356 L58.74776,9.28705356 L58.74776,9.25227084 C58.94418,9.162245 59.5395782,8.72029995 60.5339545,7.92029757 L60.5339545,7.92029757 Z M60.8183544,7.35354397 L63.9119697,7.35354397 L63.9119697,6.3734899 L60.8183544,6.3734899 L60.8183544,7.35354397 Z M65.8495714,15.0916744 L63.3718146,15.07326 L63.3288478,15.4026728 C64.7753994,15.6318295 66.8337175,16.4543383 69.5058482,17.8742914 C69.6961301,17.9745474 69.8618595,18.0216064 70.0009904,18.0216064 C70.3836002,18.0216064 70.5738821,17.7617591 70.5738821,17.2359263 C70.5738821,16.1249256 69.2419088,15.4456396 66.5779623,15.1939765 L66.5779623,15.1510096 L67.392287,14.9811881 C67.6050753,14.9341292 67.7073774,14.8215969 67.6991932,14.633361 L67.6112134,12.3315639 L67.6112134,10.2057264 C68.3907554,10.6476714 69.2173563,10.9832223 70.0889702,11.2082869 C70.567744,10.7090527 71.447542,10.4369291 72.7304103,10.3857781 L72.7999757,10.1688976 C69.493572,9.74945902 67.199959,9.00060769 65.9129987,7.92029757 L72.2373142,7.92029757 C72.2884652,7.92029757 72.3150637,7.88960694 72.3150637,7.81799548 C72.3150637,7.74024589 72.2598206,7.66454234 72.1493344,7.59702295 C72.0388481,7.53359566 71.7524022,7.33103751 71.2838586,6.98934851 C70.8194071,6.6517516 70.5125008,6.48193012 70.3651858,6.48193012 C70.3344952,6.48193012 70.2976664,6.49625242 70.2567456,6.52694305 L69.2112182,7.35354397 L65.6736118,7.35354397 L65.6736118,6.37553595 L69.7820639,6.37553595 C69.8536754,6.37553595 69.8945962,6.33870719 69.8945962,6.26504968 C69.8945962,6.23435905 69.6511172,6.04203112 69.1662053,5.69011191 C68.6792473,5.34023875 68.3764331,5.1622331 68.2516246,5.1622331 C68.2004735,5.1622331 68.1513685,5.17860144 68.1084016,5.20519998 L67.3124913,5.79650609 L65.6736118,5.79650609 L65.6736118,4.80417577 L69.8270768,4.80417577 C69.9662077,4.75711681 70.033727,4.70187368 70.033727,4.64663055 C70.033727,4.58320325 69.7677416,4.37041489 69.2378167,4.00417339 C68.7078919,3.63997794 68.372341,3.45583417 68.2393483,3.45583417 C68.1800131,3.45583417 68.1431843,3.46401833 68.1309081,3.47424854 L67.2695244,4.22719196 L65.6736118,4.22719196 L65.6736118,3.91619359 C65.6736118,3.838444 65.7656837,3.76478649 65.9498274,3.68908294 C66.1339712,3.61542543 66.2260431,3.54381397 66.2260431,3.46811042 C66.2260431,3.35557811 65.440363,3.1448358 63.8669568,2.82974535 L63.9119697,3.7115894 L63.9119697,4.22719196 L60.8183544,4.22719196 L60.8183544,3.91619359 C60.8183544,3.87527275 60.9206565,3.81593754 61.1273067,3.73204982 C61.3298648,3.65225419 61.434213,3.56836647 61.434213,3.49470896 C61.434213,3.33511769 60.6157962,3.11209913 58.9789627,2.81337701 C59.0321598,3.63588585 59.0526202,4.10647549 59.044436,4.22719196 L55.8833013,4.22719196 C56.1390566,3.95506839 56.2986478,3.4722025 56.355937,2.76427201 L70.0234968,2.76427201 C69.935517,3.01184308 69.7554653,3.40263708 69.4853878,3.93460797 L69.7268208,4.09419924 C69.837307,4.03077194 70.0500954,3.89573317 70.3692779,3.68294482 C70.6905065,3.4722025 70.9523999,3.32693353 71.1651882,3.25532206 C71.3718384,3.18371059 71.8424281,3.1448358 72.5667269,3.12846746 C72.7263182,3.09163871 72.7999757,3.01593516 72.7774692,2.90340286 C72.4992075,2.65992387 72.0899991,2.3878003 71.5539362,2.08089402 C71.0158271,1.77807982 70.7211971,1.62053459 70.6618619,1.62053459 C70.6250331,1.62053459 70.5779742,1.63894897 70.520685,1.6798698 L69.593828,2.26912987 L63.6152936,2.26912987 L63.5702807,2.25071549 C63.9672128,1.99905234 64.1656789,1.76580356 64.1656789,1.54483104 C64.1656789,0.926926389 63.0424019,0.523856136 60.7938019,0.331528199 L60.5973818,0.546362597 C61.1620894,0.914650138 61.6060805,1.48958791 61.9293551,2.26912987 L56.3354766,2.26912987 L56.2270364,1.53664687 L55.817828,1.55710729 C55.817828,2.37347801 55.1630946,3.14892788 53.8577198,3.87527275 C53.4587417,4.1023834 53.2643677,4.29880343 53.2643677,4.45839469 C53.2643677,4.61389388 53.3666698,4.75302473 53.571274,4.86964911 C53.7779242,4.99036558 53.9743442,5.0497008 54.1666722,5.0497008 C54.7334258,5.0497008 55.2674427,4.8594189 55.7748611,4.47885511 L56.1022278,4.9371685 C56.7058102,4.85123474 57.2787019,4.80417577 57.820903,4.80417577 L59.0689885,4.80417577 L59.0689885,5.79650609 L55.7298482,5.79650609 L56.1820234,6.54535742 C56.7896979,6.43282512 57.2050444,6.37553595 57.4382932,6.37553595 L59.0689885,6.37553595 L59.0689885,7.35354397 L53.1109146,7.35354397 L53.5385373,8.08398092 C54.1175672,7.9755407 54.6208935,7.92029757 55.0485162,7.92029757 L58.2976308,7.92029757 C56.7549152,9.44664482 54.645446,10.7172368 51.9630851,11.7423038 L52.1390447,11.993967 C53.9006867,11.5990809 55.4515865,11.0282352 56.7876518,10.2814299 L56.7876518,13.2031777 L56.6301066,15.3740282 C56.6301066,15.4681461 56.6710275,15.5152051 56.7426389,15.5152051 C56.8960921,15.5152051 57.235735,15.4374555 57.7615678,15.2840023 C58.2853545,15.1325952 58.5492939,14.9934644 58.5492939,14.8666098 L58.5492939,14.5392431 L59.5845911,14.5392431 C57.9088828,15.7955128 55.52729,16.8553625 52.4357207,17.7228843 L52.6362328,17.9909158 C54.3221714,17.808818 56.0797213,17.4343924 57.8986526,16.879915 L60.6301185,16.0574062 C60.6955919,16.0574062 60.7856177,16.0758206 60.9042881,16.1126493 C61.0229586,16.1515241 61.1109384,16.1678924 61.1702736,16.1678924 C61.3237267,16.1678924 61.4014763,16.1044651 61.4014763,15.9714724 C61.4014763,15.8916768 61.3830619,15.8343876 61.3462332,15.805743 L59.8914974,14.5392431 L65.8495714,14.5392431 L65.8495714,15.0916744 L65.8495714,15.0916744 Z M60.8183544,5.79650609 L63.9119697,5.79650609 L63.9119697,4.80417577 L60.8183544,4.80417577 L60.8183544,5.79650609 Z" id="Fill-43"></path>
            <path d="M79.067002,15.3310613 C78.3774859,15.7852826 78.0337508,16.1126493 78.0337508,16.3192995 C78.0337508,16.7203237 78.3222427,16.9167438 78.9012726,16.9167438 C79.359586,16.9167438 79.8199454,16.779659 80.290535,16.5075354 C80.7590786,16.2333658 80.9943735,15.4476857 80.9943735,14.1484491 C80.9943735,13.6676292 80.9595907,13.0906454 80.8859332,12.4154516 L80.433758,12.4543264 C80.2148315,13.9233845 79.7565181,14.87684 79.067002,15.3310613 L79.067002,15.3310613 Z M83.5723862,15.9366897 C83.5723862,16.2476881 83.7442538,16.4031873 84.0879888,16.4031873 C84.4030792,16.4031873 84.683387,16.243596 84.926866,15.9325976 C85.1682989,15.6175072 85.2890154,15.2778642 85.2890154,14.9136688 C85.2890154,14.6517754 85.1028256,14.2609814 84.7283999,13.7351486 C84.3519282,13.2134079 83.8833846,12.6957593 83.316631,12.1801568 L82.9544816,12.2742747 C83.365736,13.0640469 83.5723862,14.2814418 83.5723862,15.9366897 L83.5723862,15.9366897 Z M87.713575,15.4026728 C87.8015548,15.5765863 87.957054,15.6625201 88.1841647,15.6625201 C88.3989991,15.6625201 88.6138335,15.5295274 88.8286679,15.2574038 C89.0455483,14.9852802 89.1560346,14.7008804 89.1560346,14.4103425 C89.1560346,13.8354047 88.2557761,12.9658369 86.4552593,11.799593 L86.1381228,11.9755526 C86.8215008,12.8226139 87.3452875,13.9683974 87.713575,15.4026728 L87.713575,15.4026728 Z M91.8199811,14.9075306 C91.9447897,15.0609838 92.0798284,15.1407794 92.2291895,15.1407794 C92.4399318,15.1407794 92.644536,15.0159709 92.840956,14.7663537 C93.0312379,14.5146906 93.1294479,14.2507512 93.1294479,13.9622593 C93.1294479,13.5694192 92.888015,13.1868094 92.4051491,12.8164758 C91.9161451,12.4522804 91.1100046,12.0123814 89.9703592,11.509055 L89.6818673,11.6850147 C90.4102582,12.3172416 91.1222808,13.3893675 91.8199811,14.9075306 L91.8199811,14.9075306 Z M82.8890082,10.4041924 L87.2163868,10.4041924 L87.2163868,8.19651323 L82.8890082,8.19651323 L82.8890082,10.4041924 Z M82.8890082,7.6236215 L87.2163868,7.6236215 L87.2163868,5.2256604 L82.8890082,5.2256604 L82.8890082,7.6236215 Z M81.0823533,12.2272158 C81.1416885,12.2272158 81.4506408,12.1474201 82.0133023,11.9857828 C82.5759638,11.8241455 82.8603637,11.6768305 82.8665018,11.5438378 L82.8890082,10.9729921 L94.8501691,10.9729921 C94.7028541,12.6671148 94.5187104,13.9315686 94.2977378,14.7745379 C94.0788113,15.6195532 93.7391684,16.0410378 93.282901,16.0410378 C92.5442799,16.0410378 91.328931,15.9469199 89.6389004,15.7668682 L89.518184,16.1126493 C90.6946581,16.3724966 91.4537396,16.6200677 91.7995207,16.8553625 C92.1432557,17.0967955 92.3846887,17.4978197 92.5238195,18.050251 C93.6552807,17.7801734 94.4389147,17.5244182 94.8767677,17.2768471 C95.3125746,17.0313221 95.6563096,16.4727527 95.9038807,15.5970467 C96.1555439,14.7233869 96.3724243,13.3668611 96.5565681,11.5274694 C96.5831666,11.3781084 96.7263896,11.2307934 96.9800987,11.0875704 C97.2338079,10.9423014 97.3586165,10.8359073 97.3586165,10.7622498 C97.3586165,10.5985664 97.1110454,10.381686 96.6159033,10.1157005 C96.1207612,9.85380716 95.8363613,9.69830798 95.7606578,9.65738714 C95.6890463,9.61032817 95.6338032,9.58577567 95.5969744,9.58577567 C95.5458234,9.58577567 95.4905803,9.6164663 95.431245,9.67375547 L94.6823937,10.4041924 L89.1110216,10.4041924 L89.1110216,8.19651323 L95.2777919,8.19651323 C95.4169227,8.19651323 95.4864882,8.13513197 95.4864882,8.01646154 C95.4864882,7.94075799 95.1427531,7.67068046 94.4470989,7.21032104 C93.7514446,6.74996161 93.3831571,6.51875888 93.3401902,6.51875888 C93.2665327,6.51875888 93.2112896,6.54126534 93.1765069,6.58627826 L92.204637,7.6236215 L89.1110216,7.6236215 L89.1110216,5.22770644 L95.3657717,5.22770644 C95.4251069,5.19087769 95.4537515,5.13563456 95.4537515,5.05788497 C95.4537515,4.98422746 95.4414752,4.9371685 95.4087386,4.91670808 L93.6266361,3.63588585 C93.4997815,3.54381397 93.4158938,3.496755 93.3626967,3.496755 C93.2972233,3.496755 93.2481183,3.51516938 93.2174277,3.54995209 L92.2721564,4.64663055 L89.1110216,4.64663055 L89.1110216,2.42872114 L96.6445479,2.42872114 C96.8041391,2.42872114 96.8839348,2.36938592 96.8839348,2.25071549 C96.8839348,2.15045944 96.5340616,1.87424378 95.8281772,1.42206853 C95.1243388,0.965801185 94.7355908,0.744828661 94.6619333,0.744828661 C94.5944139,0.744828661 94.549401,0.750966786 94.5309866,0.771427205 L93.4731829,1.8455992 L83.2061447,1.8455992 L80.9063937,0.875775342 L80.9943735,2.72539721 L80.9943735,9.7289986 L80.8859332,12.0676245 C80.875703,12.1760647 80.9432224,12.2272158 81.0823533,12.2272158 L81.0823533,12.2272158 Z M82.8890082,4.64663055 L87.2163868,4.64663055 L87.2163868,2.42872114 L82.8890082,2.42872114 L82.8890082,4.64663055 Z" id="Fill-44"></path>
            <path d="M109.45277,16.1924449 L117.272742,16.1924449 L117.272742,14.5985783 L109.45277,14.5985783 L109.45277,16.1924449 Z M109.45277,14.0256866 L117.272742,14.0256866 L117.272742,12.5648127 L109.45277,12.5648127 L109.45277,14.0256866 Z M107.912101,11.3024048 C108.096244,11.2164711 108.261974,11.069156 108.409289,10.8604598 L118.330546,10.8604598 L118.310085,11.3781084 C118.160724,11.312635 118.0441,11.2798984 117.95612,11.2798984 C117.880417,11.2798984 117.841542,11.2880825 117.835404,11.3024048 L117.16021,11.993967 L109.651236,11.993967 L107.912101,11.3024048 L107.912101,11.3024048 Z M115.202148,10.2814299 C115.576573,9.99293801 115.922355,9.7187684 116.237445,9.45482899 C116.552535,9.18884355 116.800107,8.9719631 116.976066,8.80214163 C117.152026,8.63436619 117.272742,8.5320641 117.338216,8.5075116 C117.403689,8.47886701 117.518267,8.44203826 117.679905,8.40316346 C117.841542,8.36224262 117.919291,8.28040095 117.919291,8.15559239 C117.919291,8.1269478 117.919291,8.09625718 117.913153,8.06352051 C116.896271,7.49881294 116.309056,7.22055125 116.147419,7.22055125 L116.081946,7.22055125 C115.650231,8.37451887 115.134628,9.39549378 114.543322,10.2814299 L114.023628,10.2814299 L114.023628,7.15507791 L118.330546,7.15507791 L118.330546,10.2814299 L115.202148,10.2814299 L115.202148,10.2814299 Z M108.924891,7.6236215 C109.307501,8.03282988 109.671697,8.68551724 110.015432,9.56940734 C110.132056,9.86812945 110.299831,10.0174905 110.510574,10.0174905 C110.723362,10.0174905 110.92592,9.89677404 111.116202,9.64511089 C111.306484,9.39549378 111.402648,9.17861334 111.402648,8.99037748 C111.402648,8.45431451 110.639474,7.91620549 109.113127,7.37195835 C109.008779,7.45789211 108.949444,7.53973378 108.924891,7.6236215 L108.924891,7.6236215 Z M117.548958,18.0134222 C117.636938,18.0134222 117.93566,17.8947518 118.44717,17.661503 C118.954589,17.4262082 119.210344,17.2625248 119.210344,17.172499 L119.142825,13.2788813 C119.142825,13.11929 119.146917,12.9965275 119.155101,12.9024096 C119.163285,12.8103377 119.271725,12.7039435 119.474283,12.5914112 C119.68298,12.4747868 119.783236,12.3581624 119.783236,12.2476762 C119.783236,12.1290057 119.449731,11.9182634 118.778629,11.6113571 L119.386303,11.3965227 C119.783236,11.2532998 120.047175,11.0937085 120.180168,10.9157029 L120.145385,8.55866264 C120.145385,8.00418529 120.153569,7.68295671 120.17403,7.60520712 C120.192444,7.52336545 120.329529,7.41697127 120.581192,7.2819325 C120.836947,7.14893978 120.961756,7.04459164 120.961756,6.96888809 C120.961756,6.89318454 120.68554,6.70290265 120.137201,6.39599636 C119.586816,6.09113612 119.251265,5.93768298 119.132594,5.93768298 C119.058937,5.93768298 118.991417,5.96223548 118.923898,6.01338653 L118.13208,6.58423222 L108.660952,6.58423222 L107.371946,6.01338653 C108.086014,5.6553292 108.728471,5.30954812 109.311593,4.97399725 L109.45277,4.97399725 L109.827196,5.5919019 L111.050729,5.39343584 L116.556628,5.39343584 C116.703943,5.39343584 116.7776,5.34228479 116.7776,5.23589061 C116.7776,5.18678561 116.480924,4.92693829 115.889618,4.44816448 C115.298312,3.97552881 114.958669,3.73614191 114.858413,3.73614191 C114.786801,3.73614191 114.719282,3.76478649 114.664039,3.82412171 L113.716721,4.82463619 L109.608269,4.82463619 L109.608269,4.80417577 C110.187299,4.44202636 110.786789,4.03077194 111.402648,3.56836647 L113.483473,2.00519047 C115.355601,3.80366129 118.068653,5.34637687 121.624673,6.64152139 C121.909073,6.09113612 122.614958,5.68192774 123.746419,5.41389626 L123.834399,5.12540435 C119.519296,4.33767822 116.204708,3.17552643 113.892681,1.63894897 C114.009305,1.57756771 114.15662,1.53255479 114.33258,1.50595624 C114.506494,1.47731166 114.641532,1.43025269 114.729512,1.36887144 C114.743834,1.33818081 114.749973,1.30544414 114.749973,1.27884559 C114.749973,1.1765435 114.498309,0.996491813 113.990891,0.734598451 C113.483473,0.470659047 113.021067,0.270146942 112.603675,0.12692401 C111.78935,1.19700392 110.762237,2.21797882 109.53052,3.18575664 C108.296756,4.15558049 107.277828,4.86964911 106.471687,5.34023875 L102.790858,7.48449065 L103.11004,7.79139693 L106.359155,6.49011429 L106.447135,6.49011429 C106.453273,6.86453996 106.459411,7.24714979 106.459411,7.64203588 C106.459411,8.87784518 106.434858,10.187312 106.381661,11.5724823 C106.483963,11.701383 106.60468,11.7689024 106.741765,11.7689024 C106.854297,11.7689024 107.0855,11.6768305 107.437419,11.4906407 C107.517214,11.8773426 107.558135,12.2006172 107.558135,12.4706947 L107.558135,16.0226235 L107.482432,17.9745474 C107.482432,18.050251 107.574504,18.0891258 107.758647,18.0891258 C107.824121,18.0891258 108.092152,17.9827316 108.560696,17.7740353 C109.033332,17.563293 109.299317,17.4241622 109.372974,17.3484586 C109.440494,17.2727551 109.475277,17.0783811 109.475277,16.7694288 L117.272742,16.7694288 L117.272742,17.7985878 C117.272742,17.9418108 117.364814,18.0134222 117.548958,18.0134222 L117.548958,18.0134222 Z M108.296756,10.2793839 L112.272216,10.2793839 L112.272216,7.15507791 L108.296756,7.15507791 L108.296756,10.2793839 Z" id="Fill-45"></path>
        </g>
    </g>
</svg>