<?xml version="1.0" encoding="UTF-8"?>
<svg width="36px" height="36px" viewBox="0 0 36 36" version="1.1" xmlns="http://www.w3.org/2000/svg" xmlns:xlink="http://www.w3.org/1999/xlink">
    <!-- Generator: Sketch 41.2 (35397) - http://www.bohemiancoding.com/sketch -->
    <title>Shape</title>
    <desc>Created with Sketch.</desc>
    <defs></defs>
    <g id="â-B2-Contingency-Control" stroke="none" stroke-width="1" fill="none" fill-rule="evenodd">
        <g id="Contingency-Control_Final" transform="translate(-856.000000, -346.000000)" fill="#FF7400">
            <path d="M862.764626,361.975844 C863.485274,361.130688 864.2859,360.300719 865.17636,359.507031 C864.856166,358.456563 864.634537,357.474156 864.48669,356.569656 C863.920084,353.097625 864.325607,350.329844 864.833074,348.489625 C859.854719,351.423344 856.41369,356.677938 856,362.764469 C857.046756,361.843375 858.438769,360.950406 859.940329,360.905969 C860.980889,360.883188 861.924856,361.240094 862.764626,361.975844 Z M875.391309,354.137969 C879.425697,353.136438 883.936574,353.051781 888.886768,353.887656 C887.508272,351.864344 885.725662,350.139719 883.658341,348.821219 C881.572152,348.7225 877.616897,348.945813 876.024375,350.854938 C875.335268,351.680406 875.129972,352.762375 875.391309,354.137969 Z M866.639903,358.302719 C867.089921,357.961281 867.555145,357.628 868.044589,357.309063 C869.800164,356.166063 871.690632,355.268875 873.709798,354.616375 C873.302867,352.647344 873.631228,351.010469 874.691219,349.741469 C876.053663,348.110781 878.391896,347.450406 880.45274,347.202906 C878.442305,346.428625 876.259804,346 873.975922,346 C871.525044,346 869.189064,346.490781 867.058662,347.375875 C866.529229,348.619281 865.450651,351.8725 866.224524,356.423125 C866.32506,357.014313 866.462768,357.642906 866.639903,358.302719 Z M891.811319,366.590594 C891.933539,365.744313 892,364.880031 892,364 C892,361.074156 891.296531,358.313969 890.055744,355.871594 C884.800282,354.805938 880.061016,354.784844 875.886385,355.806344 C878.553542,362.365938 888.556718,365.769906 891.811319,366.590594 Z M863.923745,363.315156 C867.047397,367.761156 866.451786,373.760219 865.172418,379.705 C867.77593,381.164406 870.777643,382 873.975922,382 C876.747276,382 879.371909,381.373656 881.717746,380.257937 C872.301169,373.142594 867.831689,366.531531 865.800978,361.301687 C865.117785,361.953906 864.492885,362.629469 863.923745,363.315156 Z M868.993906,358.763125 C868.357461,359.177406 867.761849,359.618688 867.195807,360.075719 C869.040091,365.227375 873.441421,371.97625 883.397567,379.345844 C887.379857,376.902344 890.335667,372.956688 891.478453,368.298906 C887.536997,367.356719 877.009176,363.445375 874.205437,356.281656 C872.344538,356.885781 870.605859,357.7135 868.993906,358.763125 Z M857.495084,371.283813 C858.194047,369.262469 859.477358,366.289656 861.681261,363.333719 C861.155489,362.849969 860.598177,362.617094 859.992146,362.641281 C858.479039,362.686 856.867368,364.211781 856,365.23525 C856.145312,367.375844 856.664888,369.413219 857.495084,371.283813 Z M858.644628,373.462375 C859.927375,375.530688 861.618743,377.318313 863.604678,378.71725 C864.66298,373.589781 865.108491,368.507875 862.801518,364.770063 C860.210959,368.39875 859.043955,371.999313 858.644628,373.462375 Z" id="Shape"></path>
        </g>
    </g>
</svg>