<?xml version="1.0" encoding="UTF-8"?>
<svg width="22px" height="23px" viewBox="0 0 22 23" version="1.1" xmlns="http://www.w3.org/2000/svg" xmlns:xlink="http://www.w3.org/1999/xlink">
    <!-- Generator: Sketch 40 (33762) - http://www.bohemiancoding.com/sketch -->
    <title>Icon - Broadcast</title>
    <desc>Created with Sketch.</desc>
    <defs></defs>
    <g id="Page-1" stroke="none" stroke-width="1" fill="none" fill-rule="evenodd">
        <g id="Bottom_Panel_Three" transform="translate(-1806.000000, -58.000000)" fill="#FFFFFF">
            <g id="Nav_01">
                <g id="nav-/-navbar-1st-(wo-Event-Directory)" transform="translate(0.000000, 35.000000)">
                    <g id="navbar-1st">
                        <g id="notifications/broadcast/action" transform="translate(1755.000000, 22.000000)">
                            <path d="M64,12 C64,10.8973333 63.1026667,10 62,10 C60.8973333,10 60,10.8973333 60,12 C60,13.1026667 60.8973333,14 62,14 C63.1026667,14 64,13.1026667 64,12 Z M62,1 C55.935,1 51,5.935 51,12 C51,15.44 52.565,18.618 55.293,20.719 C55.475,20.86 55.689,20.927 55.903,20.927 C56.202,20.927 56.499,20.793 56.696,20.537 C57.033,20.099 56.951,19.472 56.514,19.135 C54.281,17.415 53,14.814 53,12 C53,7.037 57.038,3 62,3 C66.963,3 71,7.037 71,12 C71,14.813 69.72,17.414 67.487,19.135 C67.049,19.472 66.968,20.1 67.305,20.537 C67.642,20.975 68.271,21.057 68.707,20.719 C71.436,18.616 73,15.438 73,12 C73,5.935 68.065,1 62,1 Z M62,5.625 C58.5057375,5.625 55.6630113,8.4677262 55.6630113,11.9619887 C55.6630113,13.9428845 56.5642719,15.7745089 58.1358451,16.9855779 C58.4447146,17.2240364 58.8859568,17.16583 59.1234765,16.8578993 C59.3600574,16.5499686 59.3037286,16.1077876 58.9957979,15.8702678 C57.7725244,14.9276994 57.071231,13.5035199 57.071231,11.9619887 C57.071231,9.24412467 59.2821359,7.03321972 62,7.03321972 C64.7178641,7.03321972 66.928769,9.24412467 66.928769,11.9619887 C66.928769,13.5035199 66.2274756,14.9276994 65.0051409,15.8702678 C64.6972102,16.1077876 64.6399426,16.5499686 64.8765235,16.8578993 C65.0154678,17.0372126 65.2238843,17.1320327 65.4351173,17.1320327 C65.5843886,17.1320327 65.7364763,17.0841532 65.8650937,16.9855779 C67.4357281,15.7745089 68.3369887,13.9438233 68.3369887,11.9619887 C68.3369887,8.4677262 65.4952013,5.625 62,5.625 Z M63,17 C62.774,16.396 62.552,16 62,16 C61.448,16 61.15,16.472 61,17 L59,23 C58.766,23.531 59.448,24 60,24 L64,24 C64.553,24 65.219,23.484 65,23 L63,17 Z" id="Icon---Broadcast"></path>
                        </g>
                    </g>
                </g>
            </g>
        </g>
    </g>
</svg>