<?xml version="1.0" encoding="UTF-8"?>
<svg width="13px" height="13px" viewBox="0 0 13 13" version="1.1" xmlns="http://www.w3.org/2000/svg" xmlns:xlink="http://www.w3.org/1999/xlink">
    <!-- Generator: Sketch 41.2 (35397) - http://www.bohemiancoding.com/sketch -->
    <title>noun_392999_cc</title>
    <desc>Created with Sketch.</desc>
    <defs></defs>
    <g id="â-B2-My-Profile-&amp;-User-Profile-(Spec)" stroke="none" stroke-width="1" fill="none" fill-rule="evenodd">
        <g id="MyProfile_02(SelectRole02)@2x" transform="translate(-789.000000, -409.000000)" fill="#EA5758">
            <g id="popup-/-logout-w-tasklist-copy-3" transform="translate(445.000000, 243.000000)">
                <g id="Group-27" transform="translate(30.000000, 72.000000)">
                    <g id="noun_392999_cc" transform="translate(314.000000, 94.000000)">
                        <g id="Group">
                            <g id="Cross">
                                <path d="M12.6333333,0.362025316 C12.15,-0.115189873 11.35,-0.115189873 10.8666667,0.362025316 L6.5,4.67341772 L2.13333333,0.362025316 C1.65,-0.115189873 0.85,-0.115189873 0.366666667,0.362025316 C-0.116666667,0.839240506 -0.116666667,1.62911392 0.366666667,2.10632911 L4.73333333,6.41772152 L0.366666667,10.7291139 C-0.116666667,11.2063291 -0.116666667,11.9962025 0.366666667,12.4734177 C0.616666667,12.7202532 0.933333333,12.835443 1.25,12.835443 C1.56666667,12.835443 1.88333333,12.7202532 2.13333333,12.4734177 L6.5,8.16202532 L10.8666667,12.4734177 C11.1166667,12.7202532 11.4333333,12.835443 11.75,12.835443 C12.0666667,12.835443 12.3833333,12.7202532 12.6333333,12.4734177 C13.1166667,11.9962025 13.1166667,11.2063291 12.6333333,10.7291139 L8.26666667,6.41772152 L12.6333333,2.10632911 C13.1166667,1.62911392 13.1166667,0.839240506 12.6333333,0.362025316 L12.6333333,0.362025316 Z" id="Shape"></path>
                            </g>
                        </g>
                    </g>
                </g>
            </g>
        </g>
    </g>
</svg>