<?xml version="1.0" encoding="UTF-8"?>
<svg width="38px" height="38px" viewBox="0 0 38 38" version="1.1" xmlns="http://www.w3.org/2000/svg" xmlns:xlink="http://www.w3.org/1999/xlink">
    <!-- Generator: Sketch 41.2 (35397) - http://www.bohemiancoding.com/sketch -->
    <title>Group 7</title>
    <desc>Created with Sketch.</desc>
    <defs></defs>
    <g id="â-B2-Contingency-Control" stroke="none" stroke-width="1" fill="none" fill-rule="evenodd">
        <g id="Contingency-Control_Final" transform="translate(-519.000000, -345.000000)">
            <g id="Group-7" transform="translate(520.000000, 346.000000)">
                <path d="M13.0737681,10.5764474 C15.5278883,8.40907252 18.0043188,6.69228347 20.508637,5.67133582 C23.1858591,7.08583312 25.5730489,8.7170679 27.5976981,10.6163727 C27.5084574,13.8161025 26.9339701,16.9873142 26.0248301,19.4912025 L16.7047506,19.6737183 C15.483268,17.5348615 14.3064057,14.1412087 13.0737681,10.5764474 Z M29.3880904,26.2442864 C30.7099688,25.9819199 32.1080871,26.2442864 35.0270041,24.3055556 C34.5696454,28.3836425 30.0350857,31.2064341 26.7610662,33.7559514 C25.9411669,33.7274333 25.2383961,33.4707705 24.6973741,32.9232232 C26.6718254,31.2178414 28.1833404,28.9249869 29.3880904,26.2442864 Z M15.6896372,33.5278067 C13.8936673,31.8281285 12.5383236,29.7520115 11.5901408,27.339381 C9.05235732,27.1967906 6.60381458,26.7062794 4.24451258,25.8678476 C4.28913295,27.8241886 4.4285716,29.5466813 4.83573247,30.5847398 C6.49226366,32.3642686 8.77905756,33.7730623 11.3670389,34.9993402 C13.0179926,35.0221546 14.4235342,34.4517928 15.6896372,33.5278067 Z M1.61191082,17.0386467 C2.97283207,13.7476591 4.50665725,10.6620017 5.9289315,9.97186388 C5.71698475,8.3406291 5.69467457,6.79494859 5.9289315,5.34622959 C2.68279967,6.92042819 0.396005773,10.1030471 0,15.5956313 C0.301187489,16.2002149 0.88682983,16.6850224 1.61191082,17.0386467 Z M11.3099258,1.28657456 C14.0473473,0.979568614 16.8058259,0.431343711 19.4379619,1.94444444 C20.2662074,1.0782491 21.9999077,1.17692958 23.7616841,1.28657456 C19.8520847,-0.687035092 15.6336479,-0.149774687 11.3099258,1.28657456 Z M31.1351148,10.2057122 C33.2609108,12.0875071 35.0270041,12.6388889 35.9999765,18.4722222 C36.0089461,14.7011946 33.4525855,8.34623113 30.071045,4.35950366 C31.1351148,6.80555556 31.1351148,7.77777778 31.1351148,10.2057122 Z" id="Shape-Copy" fill="#70AD27"></path>
                <circle id="Oval" stroke="#6FAE24" cx="18" cy="18" r="18"></circle>
            </g>
        </g>
    </g>
</svg>