<?xml version="1.0" encoding="UTF-8"?>
<svg width="29px" height="36px" viewBox="0 0 29 36" version="1.1" xmlns="http://www.w3.org/2000/svg" xmlns:xlink="http://www.w3.org/1999/xlink">
    <!-- Generator: Sketch 41.2 (35397) - http://www.bohemiancoding.com/sketch -->
    <title>Fill 1</title>
    <desc>Created with Sketch.</desc>
    <defs></defs>
    <g id="â-B2-Contingency-Control" stroke="none" stroke-width="1" fill="none" fill-rule="evenodd">
        <g id="Contingency-Control_Final" transform="translate(-1193.000000, -346.000000)" fill="#B49462">
            <path d="M1221.27635,367.893141 C1221.27635,367.893141 1221.06494,355.224482 1205.76705,350.548823 C1205.76705,350.548823 1208.47502,353.815162 1209.14282,356.53084 C1209.81139,359.246519 1209.81139,361.963011 1206.54087,364.67832 C1206.54087,364.67832 1205.90754,365.05676 1205.90754,365.813198 C1205.90754,365.813198 1205.66135,369.009909 1206.82199,372.654319 C1206.82199,372.654319 1209.00226,378.636337 1208.36969,380.905426 C1208.36969,380.905426 1208.26444,381.352385 1208.01817,381.798531 C1208.01817,381.798531 1207.81614,382.091083 1208.15836,381.97112 C1208.15836,381.97149 1222.01539,377.897565 1221.27635,367.893141 M1202.49691,355.566187 C1200.94218,355.66878 1200.61659,356.704908 1200.61659,356.704908 C1200.5589,356.89945 1200.80555,356.959616 1200.80555,356.959616 C1202.11091,357.303613 1202.93395,355.784604 1202.93395,355.784604 C1203.10007,355.520065 1202.49691,355.566187 1202.49691,355.566187 M1195.38757,366.65264 C1195.38757,366.65264 1195.15763,366.320692 1194.89012,366.613244 C1194.89012,366.613244 1194.11041,367.575236 1194.83318,368.470632 C1194.83318,368.470632 1195.10728,368.822981 1195.32723,368.561472 C1195.32723,368.561472 1196.23813,367.811761 1195.38757,366.65264 M1195.29542,368.621269 C1195.27221,368.656792 1195.27943,368.645187 1195.29542,368.621269 M1205.48056,364.453843 L1201.72809,367.208918 C1201.72809,367.208918 1200.86785,367.893141 1200.52177,368.523259 C1200.4141,368.718909 1200.30454,368.869103 1200.31966,368.972065 C1200.31966,368.972065 1200.34015,369.177916 1200.19233,369.443637 C1199.78894,370.168291 1198.82413,371.517076 1197.24044,371.492093 C1197.24044,371.492093 1194.35509,371.434958 1193.28041,369.216943 C1193.28041,369.216943 1192.37723,367.787592 1193.81272,365.289073 L1195.59777,361.58154 C1196.00585,360.73308 1196.13363,359.974278 1196.13363,359.974278 L1197.10222,356.374586 C1198.43314,350.757335 1200.87208,349.893352 1200.87208,349.893352 C1200.87208,349.893352 1200.4699,347.914524 1200.86014,346 C1200.86014,346 1201.38504,347.435412 1203.4686,349.001431 C1203.4686,349.001431 1204.98575,349.802216 1207.29812,353.994921 C1207.29812,353.994921 1208.67206,356.512658 1208.71116,358.858618 C1208.75063,361.204578 1207.78982,362.934834 1205.48056,364.453843 M1197.13897,346.703515 C1197.13897,346.703515 1197.53079,348.037886 1200.18341,349.698145 C1200.18341,349.698145 1199.00764,350.386877 1198.40804,351.608825 C1196.41272,349.796894 1197.13897,346.703515 1197.13897,346.703515" id="Fill-1"></path>
        </g>
    </g>
</svg>