<?xml version="1.0" encoding="UTF-8"?>
<svg width="20px" height="16px" viewBox="0 0 20 16" version="1.1" xmlns="http://www.w3.org/2000/svg" xmlns:xlink="http://www.w3.org/1999/xlink">
    <!-- Generator: Sketch 41.2 (35397) - http://www.bohemiancoding.com/sketch -->
    <title>icon / reassign</title>
    <desc>Created with Sketch.</desc>
    <defs>
        <rect id="path-1" x="30" y="90" width="1331" height="529"></rect>
        <mask id="mask-2" maskContentUnits="userSpaceOnUse" maskUnits="objectBoundingBox" x="0" y="0" width="1331" height="529" fill="white">
            <use xlink:href="#path-1"></use>
        </mask>
        <rect id="path-3" x="0" y="0" width="300" height="40"></rect>
        <mask id="mask-4" maskContentUnits="userSpaceOnUse" maskUnits="objectBoundingBox" x="0" y="0" width="300" height="40" fill="white">
            <use xlink:href="#path-3"></use>
        </mask>
        <rect id="path-5" x="0" y="60" width="1331" height="529"></rect>
        <mask id="mask-6" maskContentUnits="userSpaceOnUse" maskUnits="objectBoundingBox" x="0" y="0" width="1331" height="529" fill="white">
            <use xlink:href="#path-5"></use>
        </mask>
    </defs>
    <g id="Action" stroke="none" stroke-width="1" fill="none" fill-rule="evenodd">
        <g id="Action_List_Monitor" transform="translate(-1269.000000, -240.000000)">
            <g id="Group-9">
                <g id="Table-/-action" transform="translate(0.000000, 98.000000)">
                    <g id="Group" stroke-width="1" fill-rule="evenodd" transform="translate(50.000000, 120.000000)"></g>
                    <g id="Group-5" stroke-width="1" fill-rule="evenodd" transform="translate(345.000000, 119.000000)"></g>
                    <g id="Group-6" stroke-width="1" fill-rule="evenodd" transform="translate(438.775742, 119.000000)"></g>
                    <g id="Group-7" stroke-width="1" fill-rule="evenodd" transform="translate(525.000000, 119.000000)"></g>
                    <g id="Group-13" stroke-width="1" fill-rule="evenodd" transform="translate(804.000000, 119.000000)"></g>
                    <g id="Group-14" stroke-width="1" fill-rule="evenodd" transform="translate(998.000000, 119.000000)"></g>
                    <g id="Group-16" stroke-width="1" fill-rule="evenodd" transform="translate(1260.000000, 119.000000)"></g>
                    <g id="Group-2" stroke-width="1" fill-rule="evenodd" transform="translate(365.000000, 357.000000)"></g>
                    <g id="Group-2" stroke-width="1" fill-rule="evenodd" transform="translate(365.000000, 478.000000)"></g>
                    <g id="Group-2" stroke-width="1" fill-rule="evenodd" transform="translate(365.000000, 158.000000)"></g>
                    <g id="Group-2" stroke-width="1" fill-rule="evenodd" transform="translate(456.000000, 357.000000)"></g>
                    <g id="Group-2" stroke-width="1" fill-rule="evenodd" transform="translate(456.000000, 158.000000)"></g>
                    <g id="Group-2" stroke-width="1" fill-rule="evenodd" transform="translate(544.000000, 158.000000)"></g>
                    <g id="Group-2" stroke-width="1" fill-rule="evenodd" transform="translate(544.000000, 477.000000)"></g>
                    <g id="Group-2" stroke-width="1" fill-rule="evenodd" transform="translate(456.000000, 477.000000)"></g>
                    <g id="Group-2" stroke-width="1" fill-rule="evenodd" transform="translate(544.000000, 357.000000)"></g>
                    <use id="left-bg" stroke="#2F5091" mask="url(#mask-2)" stroke-width="2" fill="#FFFFFF" fill-rule="evenodd" xlink:href="#path-1"></use>
                    <rect id="Rectangle-9" fill="#F8F9FB" fill-rule="evenodd" x="31" y="170" width="1329" height="40"></rect>
                    <rect id="Rectangle-9" fill="#F8F9FB" fill-rule="evenodd" x="31" y="330" width="1329" height="40"></rect>
                    <rect id="Rectangle" fill="#F8F9FB" fill-rule="evenodd" x="31" y="250" width="1329" height="40"></rect>
                    <rect id="Rectangle" fill="#F8F9FB" fill-rule="evenodd" x="31" y="410" width="1329" height="40"></rect>
                    <rect id="Rectangle" fill="#F8F9FB" fill-rule="evenodd" x="31" y="490" width="1329" height="40"></rect>
                    <rect id="Rectangle-Copy" fill="#F8F9FB" fill-rule="evenodd" x="31" y="570" width="1329" height="40"></rect>
                    <rect id="Table-Header-BKG" fill="#2F5091" fill-rule="evenodd" x="30" y="90" width="1331" height="40"></rect>
                    <text id="Status" font-family="Roboto-Medium, Roboto" font-size="14" font-weight="400" line-spacing="20" fill="#FFFFFF">
                        <tspan x="1076" y="113">Status</tspan>
                    </text>
                    <path d="M1045,90 L1045,618" id="Line-Copy" stroke="#ACB8D1" stroke-width="1" stroke-linecap="square" opacity="0.313957556"></path>
                    <g id="Group-3" stroke-width="1" fill-rule="evenodd" transform="translate(1076.000000, 130.000000)" font-size="14" font-family="Roboto-Regular, Roboto" line-spacing="40" fill="#2F5091" font-weight="normal">
                        <text id="In-Progress-In-Progr">
                            <tspan x="0" y="13">In Progress</tspan>
                            <tspan x="0" y="53">In Progress</tspan>
                            <tspan x="0" y="93">Expired</tspan>
                            <tspan x="0" y="133">In Completed</tspan>
                            <tspan x="0" y="173">Cancelled</tspan>
                            <tspan x="0" y="213">In Progress</tspan>
                            <tspan x="0" y="253">In Progress</tspan>
                            <tspan x="0" y="293">In Progress</tspan>
                        </text>
                    </g>
                    <text id="Receive-time" font-family="Roboto-Medium, Roboto" font-size="14" font-weight="400" line-spacing="20" fill="#FFFFFF">
                        <tspan x="169" y="113">Receive time</tspan>
                    </text>
                    <text id="Priority" font-family="Roboto-Medium, Roboto" font-size="14" font-weight="400" line-spacing="20" fill="#FFFFFF">
                        <tspan x="61" y="113">Priority</tspan>
                    </text>
                    <g id="component-/-27-Oct-2016-08:30:00" stroke-width="1" fill-rule="evenodd" transform="translate(169.000000, 130.000000)" font-size="14" font-family="Roboto-Regular, Roboto" line-spacing="40" fill="#2F5091" font-weight="normal">
                        <text id="27-Oct-2016-08:30:00">
                            <tspan x="0" y="13">27 Oct 2016 08:30:00</tspan>
                            <tspan x="0" y="53">26 Oct 2016 08:30:00</tspan>
                            <tspan x="0" y="93">25 Oct 2016 08:30:00</tspan>
                            <tspan x="0" y="133">24 Oct 2016 08:30:00</tspan>
                            <tspan x="0" y="173">23 Oct 2016 08:30:00</tspan>
                            <tspan x="0" y="213">22 Oct 2016 08:30:00</tspan>
                            <tspan x="0" y="253">21 Oct 2016 08:30:00</tspan>
                            <tspan x="0" y="293">20 Oct 2016 08:30:00</tspan>
                        </text>
                    </g>
                    <text id="Recipient" font-family="Roboto-Medium, Roboto" font-size="14" font-weight="400" line-spacing="20" fill="#FFFFFF">
                        <tspan x="1221" y="113">Recipient</tspan>
                    </text>
                    <text id="EL-EL-EL-EL-EL-EL-EL" font-family="Roboto-Regular, Roboto" font-size="14" font-weight="normal" line-spacing="40" fill="#2F5091">
                        <tspan x="1221" y="143">EL</tspan>
                        <tspan x="1221" y="183">EL</tspan>
                        <tspan x="1221" y="223">EL</tspan>
                        <tspan x="1221" y="263">EL</tspan>
                        <tspan x="1221" y="303">EL</tspan>
                        <tspan x="1221" y="343">EL</tspan>
                        <tspan x="1221" y="383">EL</tspan>
                        <tspan x="1221" y="423">EL</tspan>
                    </text>
                    <path d="M1190,90 L1190,618" id="Line-Copy-2" stroke="#ACB8D1" stroke-width="1" stroke-linecap="square" opacity="0.313957556"></path>
                    <path d="M138,90 L138,618" id="Line" stroke="#ACB8D1" stroke-width="1" stroke-linecap="square" opacity="0.313957556"></path>
                    <g id="Group-4" stroke-width="1" fill-rule="evenodd" transform="translate(333.000000, 90.000000)">
                        <text id="Category" font-family="Roboto-Medium, Roboto" font-size="14" font-weight="400" line-spacing="20" fill="#FFFFFF">
                            <tspan x="624" y="23">Category</tspan>
                        </text>
                        <text id="Start-Sell-Start-Sel" font-family="Roboto-Regular, Roboto" font-size="14" font-weight="normal" line-spacing="40" fill="#2F5091">
                            <tspan x="624" y="53">Start Sell</tspan>
                            <tspan x="624" y="93">Start Sell</tspan>
                            <tspan x="624" y="133">Start Sell</tspan>
                            <tspan x="624" y="173">Start Sell</tspan>
                            <tspan x="624" y="213">Start Sell</tspan>
                            <tspan x="624" y="253">Start Sell</tspan>
                            <tspan x="624" y="293">Start Sell</tspan>
                            <tspan x="624" y="333">Start Sell</tspan>
                        </text>
                        <path d="M593,0 L593,528" id="Line-Copy-4" stroke="#ACB8D1" stroke-linecap="square" opacity="0.313957556"></path>
                        <text id="Target-Completion-Ti" font-family="Roboto-Medium, Roboto" font-size="14" font-weight="400" line-spacing="20" fill="#FFFFFF">
                            <tspan x="421" y="23">Target Completion Time</tspan>
                        </text>
                        <g id="component-/-27-Oct-2016-08:30:00" transform="translate(421.000000, 40.000000)" font-size="14" font-family="Roboto-Regular, Roboto" line-spacing="40" fill="#2F5091" font-weight="normal">
                            <text id="27-Oct-2016-08:30:00">
                                <tspan x="0" y="13">27 Oct 2016 08:30:00</tspan>
                                <tspan x="0" y="53">26 Oct 2016 08:30:00</tspan>
                                <tspan x="0" y="93">25 Oct 2016 08:30:00</tspan>
                                <tspan x="0" y="133">24 Oct 2016 08:30:00</tspan>
                                <tspan x="0" y="173">23 Oct 2016 08:30:00</tspan>
                                <tspan x="0" y="213">22 Oct 2016 08:30:00</tspan>
                                <tspan x="0" y="253">21 Oct 2016 08:30:00</tspan>
                                <tspan x="0" y="293">20 Oct 2016 08:30:00</tspan>
                            </text>
                        </g>
                        <path d="M390,0 L390,528" id="Line" stroke="#ACB8D1" stroke-linecap="square" opacity="0.313957556"></path>
                        <g id="Group-10">
                            <g id="Group-8" transform="translate(32.000000, 10.000000)" font-size="14" font-family="Roboto-Medium, Roboto" line-spacing="20" fill="#FFFFFF" font-weight="400">
                                <text id="Detail">
                                    <tspan x="0" y="13">Detail</tspan>
                                </text>
                            </g>
                            <path d="M1,0 L1,528" id="Line" stroke="#ACB8D1" stroke-linecap="square" opacity="0.313957556"></path>
                            <text id="Please-see-below-the" font-family="Roboto-Medium, Roboto" font-size="14" font-weight="400" fill="#D3221B">
                                <tspan x="32" y="225">Please see below the upcoming events (match) …</tspan>
                            </text>
                            <text id="Event-Update:-The-&lt;U" font-family="Roboto-Medium, Roboto" font-size="14" font-weight="400" fill="#D3221B">
                                <tspan x="32" y="265">Event Update: The &lt;Updated Field&gt; of Event …</tspan>
                            </text>
                            <text id="A-new-Event-Template" font-family="Roboto-Regular, Roboto" font-size="14" font-weight="normal" fill="#2F5091">
                                <tspan x="32" y="65">A new Event Template &lt;Event Level 1&gt; has …</tspan>
                            </text>
                            <text id="The-SDA-Status-of-&lt;E" font-family="Roboto-Regular, Roboto" font-size="14" font-weight="normal" fill="#2F5091">
                                <tspan x="32" y="145">The SDA Status of &lt;Event Level 1&gt;&lt;Home Team&gt; vs  …</tspan>
                            </text>
                            <text id="The-request-of-chang" font-family="Roboto-Regular, Roboto" font-size="14" font-weight="normal" fill="#2F5091">
                                <tspan x="32" y="185">The request of changing the SDA Status of …</tspan>
                            </text>
                            <text id="The-SDA-Status-of-&lt;E" font-family="Roboto-Regular, Roboto" font-size="14" font-weight="normal" fill="#2F5091">
                                <tspan x="32" y="305">The SDA Status of &lt;Event Level 1&gt;&lt;Home …</tspan>
                            </text>
                            <text id="The-request-of-chang" font-family="Roboto-Regular, Roboto" font-size="14" font-weight="normal" fill="#2F5091">
                                <tspan x="32" y="345">The request of changing the SDA Status of …</tspan>
                            </text>
                            <text id="A-new-Event-Template" font-family="Roboto-Regular, Roboto" font-size="14" font-weight="normal" fill="#2F5091">
                                <tspan x="32" y="105">A new Event Template &lt;Event Level 1&gt; has been …</tspan>
                            </text>
                        </g>
                    </g>
                    <g id="Group" stroke-width="1" fill-rule="evenodd" transform="translate(30.000000, 30.000000)">
                        <g id="component-/-Search-Comp">
                            <g id="Search-Comp">
                                <g id="filter">
                                    <g id="Group-4">
                                        <use id="Rectangle-104" stroke="#305091" mask="url(#mask-4)" stroke-width="2" fill="#FFFFFF" xlink:href="#path-3"></use>
                                        <text id="Search-with-keywords" font-family="Roboto-Regular, Roboto" font-size="16" font-weight="normal" line-spacing="30" fill="#9B9B9B">
                                            <tspan x="39" y="20">Search with keywords &amp; filters</tspan>
                                        </text>
                                        <path d="M25.7656392,25.6342754 L22.710109,22.5789053 C23.2696309,21.7939426 23.600032,20.8350595 23.600032,19.800016 C23.600032,17.1532872 21.4467448,15 18.800016,15 C16.1532872,15 14,17.1532872 14,19.800016 C14,22.4467448 16.1532872,24.600032 18.800016,24.600032 C19.8350595,24.600032 20.7939426,24.2696309 21.5789053,23.710109 L24.6344354,26.7656392 C24.790436,26.9219597 24.9953967,27.00004 25.2000373,27.00004 C25.404678,27.00004 25.6096387,26.9219597 25.7656392,26.7657992 C26.0781203,26.4533182 26.0781203,25.9467565 25.7656392,25.6342754 L25.7656392,25.6342754 Z M18.800016,23.0000267 C17.0326501,23.0000267 15.6000053,21.5673819 15.6000053,19.800016 C15.6000053,18.0326501 17.0326501,16.6000053 18.800016,16.6000053 C20.5673819,16.6000053 22.0000267,18.0326501 22.0000267,19.800016 C22.0000267,21.5673819 20.5673819,23.0000267 18.800016,23.0000267 L18.800016,23.0000267 Z" id="Shape" fill="#2F5091"></path>
                                    </g>
                                </g>
                            </g>
                        </g>
                    </g>
                    <g id="Icon-/-Critical" transform="translate(77.000000, 302.000000)" fill-rule="evenodd">
                        <polygon id="Triangle-2" fill="#D3221B" points="7.5 0 15 15 0 15"></polygon>
                        <path d="M8.37304688,11.3808594 L6.96679688,11.3808594 L6.76757812,5.46875 L8.57226562,5.46875 L8.37304688,11.3808594 Z M6.7265625,13.203125 C6.7265625,13.0742181 6.74902321,12.9550787 6.79394531,12.8457031 C6.83886741,12.7363276 6.90234334,12.641602 6.984375,12.5615234 C7.06640666,12.4814449 7.16503849,12.4189455 7.28027344,12.3740234 C7.39550839,12.3291013 7.5253899,12.3066406 7.66992188,12.3066406 C7.81445385,12.3066406 7.94531191,12.3291013 8.0625,12.3740234 C8.17968809,12.4189455 8.27929646,12.4814449 8.36132812,12.5615234 C8.44335979,12.641602 8.50683571,12.7363276 8.55175781,12.8457031 C8.59667991,12.9550787 8.61914062,13.0742181 8.61914062,13.203125 C8.61914062,13.3320319 8.59667991,13.4501948 8.55175781,13.5576172 C8.50683571,13.6650396 8.44335979,13.7587887 8.36132812,13.8388672 C8.27929646,13.9189457 8.17968809,13.9814451 8.0625,14.0263672 C7.94531191,14.0712893 7.81445385,14.09375 7.66992188,14.09375 C7.5253899,14.09375 7.39550839,14.0712893 7.28027344,14.0263672 C7.16503849,13.9814451 7.06640666,13.9189457 6.984375,13.8388672 C6.90234334,13.7587887 6.83886741,13.6650396 6.79394531,13.5576172 C6.74902321,13.4501948 6.7265625,13.3320319 6.7265625,13.203125 L6.7265625,13.203125 Z" id="!" fill="#FFFFFF"></path>
                    </g>
                    <g id="Icon-/-Critical" transform="translate(77.000000, 342.000000)" fill-rule="evenodd">
                        <polygon id="Triangle-2" fill="#D3221B" points="7.5 0 15 15 0 15"></polygon>
                        <path d="M8.37304688,11.3808594 L6.96679688,11.3808594 L6.76757812,5.46875 L8.57226562,5.46875 L8.37304688,11.3808594 Z M6.7265625,13.203125 C6.7265625,13.0742181 6.74902321,12.9550787 6.79394531,12.8457031 C6.83886741,12.7363276 6.90234334,12.641602 6.984375,12.5615234 C7.06640666,12.4814449 7.16503849,12.4189455 7.28027344,12.3740234 C7.39550839,12.3291013 7.5253899,12.3066406 7.66992188,12.3066406 C7.81445385,12.3066406 7.94531191,12.3291013 8.0625,12.3740234 C8.17968809,12.4189455 8.27929646,12.4814449 8.36132812,12.5615234 C8.44335979,12.641602 8.50683571,12.7363276 8.55175781,12.8457031 C8.59667991,12.9550787 8.61914062,13.0742181 8.61914062,13.203125 C8.61914062,13.3320319 8.59667991,13.4501948 8.55175781,13.5576172 C8.50683571,13.6650396 8.44335979,13.7587887 8.36132812,13.8388672 C8.27929646,13.9189457 8.17968809,13.9814451 8.0625,14.0263672 C7.94531191,14.0712893 7.81445385,14.09375 7.66992188,14.09375 C7.5253899,14.09375 7.39550839,14.0712893 7.28027344,14.0263672 C7.16503849,13.9814451 7.06640666,13.9189457 6.984375,13.8388672 C6.90234334,13.7587887 6.83886741,13.6650396 6.79394531,13.5576172 C6.74902321,13.4501948 6.7265625,13.3320319 6.7265625,13.203125 L6.7265625,13.203125 Z" id="!" fill="#FFFFFF"></path>
                    </g>
                    <g id="Icon-/-High" transform="translate(77.000000, 142.000000)" fill-rule="evenodd" fill="#FF433E">
                        <path d="M7.5,0 C3.35783333,0 0,3.35766667 0,7.5 C0,11.6423333 3.35783333,15 7.5,15 C11.6421667,15 15,11.6423333 15,7.5 C15,3.35766667 11.6421667,0 7.5,0 L7.5,0 Z" id="Shape"></path>
                    </g>
                    <g id="Icon-/-Medium" transform="translate(77.000000, 222.000000)" fill-rule="evenodd" fill="#FF8F00">
                        <path d="M7.5,0 C3.35783333,0 0,3.35766667 0,7.5 C0,11.6423333 3.35783333,15 7.5,15 C11.6421667,15 15,11.6423333 15,7.5 C15,3.35766667 11.6421667,0 7.5,0 L7.5,0 Z" id="Priority_Red"></path>
                    </g>
                    <g id="Icon-/-Medium" transform="translate(77.000000, 262.000000)" fill-rule="evenodd" fill="#FF8F00">
                        <path d="M7.5,0 C3.35783333,0 0,3.35766667 0,7.5 C0,11.6423333 3.35783333,15 7.5,15 C11.6421667,15 15,11.6423333 15,7.5 C15,3.35766667 11.6421667,0 7.5,0 L7.5,0 Z" id="Priority_Red"></path>
                    </g>
                    <g id="Icon-/-Low" transform="translate(77.000000, 382.000000)" fill-rule="evenodd" fill="#85B612">
                        <path d="M7.5,0 C3.35783333,0 0,3.35766667 0,7.5 C0,11.6423333 3.35783333,15 7.5,15 C11.6421667,15 15,11.6423333 15,7.5 C15,3.35766667 11.6421667,0 7.5,0 L7.5,0 Z" id="Shape"></path>
                    </g>
                    <g id="Icon-/-Low" transform="translate(77.000000, 422.000000)" fill-rule="evenodd" fill="#85B612">
                        <path d="M7.5,0 C3.35783333,0 0,3.35766667 0,7.5 C0,11.6423333 3.35783333,15 7.5,15 C11.6421667,15 15,11.6423333 15,7.5 C15,3.35766667 11.6421667,0 7.5,0 L7.5,0 Z" id="Shape"></path>
                    </g>
                    <g id="Icon-/-High" transform="translate(77.000000, 182.000000)" fill-rule="evenodd" fill="#FF433E">
                        <path d="M7.5,0 C3.35783333,0 0,3.35766667 0,7.5 C0,11.6423333 3.35783333,15 7.5,15 C11.6421667,15 15,11.6423333 15,7.5 C15,3.35766667 11.6421667,0 7.5,0 L7.5,0 Z" id="Shape"></path>
                    </g>
                    <g id="icon-/-table-column-setting" transform="translate(1335.000000, 102.000000)" stroke-width="1" fill-rule="evenodd" fill="#FFFFFF">
                        <g id="Group-3">
                            <g id="Group-9">
                                <g id="Group">
                                    <polygon id="Shape" points="9.14285714 0 6.85714286 0 6.85714286 3.42857143 5.71428571 3.42857143 5.71428571 5.71428571 6.85714286 5.71428571 6.85714286 16 9.14285714 16 9.14285714 5.71428571 10.2857143 5.71428571 10.2857143 3.42857143 9.14285714 3.42857143"></polygon>
                                    <polygon id="Shape" points="3.42857143 0 1.14285714 0 1.14285714 11.4285714 0 11.4285714 0 13.7142857 1.14285714 13.7142857 1.14285714 16 3.42857143 16 3.42857143 13.7142857 4.57142857 13.7142857 4.57142857 11.4285714 3.42857143 11.4285714"></polygon>
                                    <polygon id="Shape" points="14.8571429 8 14.8571429 0 12.5714286 0 12.5714286 8 11.4285714 8 11.4285714 10.2857143 12.5714286 10.2857143 12.5714286 16 14.8571429 16 14.8571429 10.2857143 16 10.2857143 16 8"></polygon>
                                </g>
                            </g>
                        </g>
                    </g>
                    <g id="Group-9" stroke-width="1" fill-rule="evenodd" transform="translate(1269.000000, 142.000000)" fill="#2F5091">
                        <g id="icon-/-reassign" transform="translate(1.000000, 0.000000)">
                            <g id="Group-17" stroke-width="1" stroke="#2F5091">
                                <g id="Group" stroke-width="0.3">
                                    <path d="M3.29195402,6.28028169 L2.37241379,7.19577465 L2.37241379,3.36901408 C2.37241379,2.05070423 3.45747126,0.970422535 4.7816092,0.970422535 L12.3954023,0.970422535 L12.3954023,0.164788732 L4.76321839,0.164788732 C2.99770115,0.164788732 1.56321839,1.59295775 1.56321839,3.35070423 L1.56321839,7.17746479 L0.643678161,6.26197183 L0.0735632184,6.82957746 L1.67356322,8.42253521 C1.74712644,8.49577465 1.85747126,8.53239437 1.94942529,8.53239437 C2.04137931,8.53239437 2.15172414,8.49577465 2.22528736,8.42253521 L3.82528736,6.82957746 L3.29195402,6.28028169 L3.29195402,6.28028169 Z" id="Shape"></path>
                                    <path d="M14.2712644,4.68732394 C14.1057471,4.52253521 13.8666667,4.52253521 13.7011494,4.68732394 L12.1011494,6.28028169 L12.6712644,6.84788732 L13.5908046,5.93239437 L13.5908046,9.75915493 C13.5908046,11.0774648 12.5057471,12.1577465 11.1816092,12.1577465 L3.56781609,12.1577465 L3.56781609,12.9633803 L11.1816092,12.9633803 C12.9471264,12.9633803 14.3816092,11.5352113 14.3816092,9.77746479 L14.3816092,5.91408451 L15.3011494,6.82957746 L15.8712644,6.28028169 L14.2712644,4.68732394 Z" id="Shape"></path>
                                </g>
                            </g>
                            <path d="M8.00000024,7.13529429 C9.22015481,7.13529429 10.2090912,6.18701192 10.2090912,5.01764719 C10.2090912,3.84828247 9.22015481,2.9000001 8.00000024,2.9000001 C6.77984567,2.9000001 5.79090929,3.84828247 5.79090929,5.01764719 C5.79090929,6.18701192 6.77984567,7.13529429 8.00000024,7.13529429 L8.00000024,7.13529429 L8.00000024,7.13529429 Z M10.1361912,6.99108252 C9.64233663,7.59291783 8.87038207,7.98235313 8.00000024,7.98235313 C7.1296184,7.98235313 6.35766385,7.59291783 5.86380929,6.99108252 C5.5218911,7.22232958 5.30000019,7.5780943 5.30000019,7.98235313 L5.30000019,8.82941196 C5.30000019,9.53098845 5.95953657,10.1000002 6.77272749,10.1000002 L9.22727299,10.1000002 C10.0404639,10.1000002 10.7000003,9.53098845 10.7000003,8.82941196 L10.7000003,7.98235313 C10.7000003,7.5780943 10.4781094,7.22232958 10.1361912,6.99108252 L10.1361912,6.99108252 L10.1361912,6.99108252 Z" id="user"></path>
                        </g>
                        <g id="icon-/-reassign" transform="translate(1.000000, 40.000000)">
                            <g id="Group-17" stroke-width="1" stroke="#2F5091">
                                <g id="Group" stroke-width="0.3">
                                    <path d="M3.29195402,6.28028169 L2.37241379,7.19577465 L2.37241379,3.36901408 C2.37241379,2.05070423 3.45747126,0.970422535 4.7816092,0.970422535 L12.3954023,0.970422535 L12.3954023,0.164788732 L4.76321839,0.164788732 C2.99770115,0.164788732 1.56321839,1.59295775 1.56321839,3.35070423 L1.56321839,7.17746479 L0.643678161,6.26197183 L0.0735632184,6.82957746 L1.67356322,8.42253521 C1.74712644,8.49577465 1.85747126,8.53239437 1.94942529,8.53239437 C2.04137931,8.53239437 2.15172414,8.49577465 2.22528736,8.42253521 L3.82528736,6.82957746 L3.29195402,6.28028169 L3.29195402,6.28028169 Z" id="Shape"></path>
                                    <path d="M14.2712644,4.68732394 C14.1057471,4.52253521 13.8666667,4.52253521 13.7011494,4.68732394 L12.1011494,6.28028169 L12.6712644,6.84788732 L13.5908046,5.93239437 L13.5908046,9.75915493 C13.5908046,11.0774648 12.5057471,12.1577465 11.1816092,12.1577465 L3.56781609,12.1577465 L3.56781609,12.9633803 L11.1816092,12.9633803 C12.9471264,12.9633803 14.3816092,11.5352113 14.3816092,9.77746479 L14.3816092,5.91408451 L15.3011494,6.82957746 L15.8712644,6.28028169 L14.2712644,4.68732394 Z" id="Shape"></path>
                                </g>
                            </g>
                            <path d="M8.00000024,7.13529429 C9.22015481,7.13529429 10.2090912,6.18701192 10.2090912,5.01764719 C10.2090912,3.84828247 9.22015481,2.9000001 8.00000024,2.9000001 C6.77984567,2.9000001 5.79090929,3.84828247 5.79090929,5.01764719 C5.79090929,6.18701192 6.77984567,7.13529429 8.00000024,7.13529429 L8.00000024,7.13529429 L8.00000024,7.13529429 Z M10.1361912,6.99108252 C9.64233663,7.59291783 8.87038207,7.98235313 8.00000024,7.98235313 C7.1296184,7.98235313 6.35766385,7.59291783 5.86380929,6.99108252 C5.5218911,7.22232958 5.30000019,7.5780943 5.30000019,7.98235313 L5.30000019,8.82941196 C5.30000019,9.53098845 5.95953657,10.1000002 6.77272749,10.1000002 L9.22727299,10.1000002 C10.0404639,10.1000002 10.7000003,9.53098845 10.7000003,8.82941196 L10.7000003,7.98235313 C10.7000003,7.5780943 10.4781094,7.22232958 10.1361912,6.99108252 L10.1361912,6.99108252 L10.1361912,6.99108252 Z" id="user"></path>
                        </g>
                        <g id="icon-/-reassign" transform="translate(1.000000, 80.000000)">
                            <g id="Group-17" stroke-width="1" stroke="#2F5091">
                                <g id="Group" stroke-width="0.3">
                                    <path d="M3.29195402,6.28028169 L2.37241379,7.19577465 L2.37241379,3.36901408 C2.37241379,2.05070423 3.45747126,0.970422535 4.7816092,0.970422535 L12.3954023,0.970422535 L12.3954023,0.164788732 L4.76321839,0.164788732 C2.99770115,0.164788732 1.56321839,1.59295775 1.56321839,3.35070423 L1.56321839,7.17746479 L0.643678161,6.26197183 L0.0735632184,6.82957746 L1.67356322,8.42253521 C1.74712644,8.49577465 1.85747126,8.53239437 1.94942529,8.53239437 C2.04137931,8.53239437 2.15172414,8.49577465 2.22528736,8.42253521 L3.82528736,6.82957746 L3.29195402,6.28028169 L3.29195402,6.28028169 Z" id="Shape"></path>
                                    <path d="M14.2712644,4.68732394 C14.1057471,4.52253521 13.8666667,4.52253521 13.7011494,4.68732394 L12.1011494,6.28028169 L12.6712644,6.84788732 L13.5908046,5.93239437 L13.5908046,9.75915493 C13.5908046,11.0774648 12.5057471,12.1577465 11.1816092,12.1577465 L3.56781609,12.1577465 L3.56781609,12.9633803 L11.1816092,12.9633803 C12.9471264,12.9633803 14.3816092,11.5352113 14.3816092,9.77746479 L14.3816092,5.91408451 L15.3011494,6.82957746 L15.8712644,6.28028169 L14.2712644,4.68732394 Z" id="Shape"></path>
                                </g>
                            </g>
                            <path d="M8.00000024,7.13529429 C9.22015481,7.13529429 10.2090912,6.18701192 10.2090912,5.01764719 C10.2090912,3.84828247 9.22015481,2.9000001 8.00000024,2.9000001 C6.77984567,2.9000001 5.79090929,3.84828247 5.79090929,5.01764719 C5.79090929,6.18701192 6.77984567,7.13529429 8.00000024,7.13529429 L8.00000024,7.13529429 L8.00000024,7.13529429 Z M10.1361912,6.99108252 C9.64233663,7.59291783 8.87038207,7.98235313 8.00000024,7.98235313 C7.1296184,7.98235313 6.35766385,7.59291783 5.86380929,6.99108252 C5.5218911,7.22232958 5.30000019,7.5780943 5.30000019,7.98235313 L5.30000019,8.82941196 C5.30000019,9.53098845 5.95953657,10.1000002 6.77272749,10.1000002 L9.22727299,10.1000002 C10.0404639,10.1000002 10.7000003,9.53098845 10.7000003,8.82941196 L10.7000003,7.98235313 C10.7000003,7.5780943 10.4781094,7.22232958 10.1361912,6.99108252 L10.1361912,6.99108252 L10.1361912,6.99108252 Z" id="user"></path>
                        </g>
                        <g id="icon-/-reassign" transform="translate(1.000000, 120.000000)">
                            <g id="Group-17" stroke-width="1" stroke="#2F5091">
                                <g id="Group" stroke-width="0.3">
                                    <path d="M3.29195402,6.28028169 L2.37241379,7.19577465 L2.37241379,3.36901408 C2.37241379,2.05070423 3.45747126,0.970422535 4.7816092,0.970422535 L12.3954023,0.970422535 L12.3954023,0.164788732 L4.76321839,0.164788732 C2.99770115,0.164788732 1.56321839,1.59295775 1.56321839,3.35070423 L1.56321839,7.17746479 L0.643678161,6.26197183 L0.0735632184,6.82957746 L1.67356322,8.42253521 C1.74712644,8.49577465 1.85747126,8.53239437 1.94942529,8.53239437 C2.04137931,8.53239437 2.15172414,8.49577465 2.22528736,8.42253521 L3.82528736,6.82957746 L3.29195402,6.28028169 L3.29195402,6.28028169 Z" id="Shape"></path>
                                    <path d="M14.2712644,4.68732394 C14.1057471,4.52253521 13.8666667,4.52253521 13.7011494,4.68732394 L12.1011494,6.28028169 L12.6712644,6.84788732 L13.5908046,5.93239437 L13.5908046,9.75915493 C13.5908046,11.0774648 12.5057471,12.1577465 11.1816092,12.1577465 L3.56781609,12.1577465 L3.56781609,12.9633803 L11.1816092,12.9633803 C12.9471264,12.9633803 14.3816092,11.5352113 14.3816092,9.77746479 L14.3816092,5.91408451 L15.3011494,6.82957746 L15.8712644,6.28028169 L14.2712644,4.68732394 Z" id="Shape"></path>
                                </g>
                            </g>
                            <path d="M8.00000024,7.13529429 C9.22015481,7.13529429 10.2090912,6.18701192 10.2090912,5.01764719 C10.2090912,3.84828247 9.22015481,2.9000001 8.00000024,2.9000001 C6.77984567,2.9000001 5.79090929,3.84828247 5.79090929,5.01764719 C5.79090929,6.18701192 6.77984567,7.13529429 8.00000024,7.13529429 L8.00000024,7.13529429 L8.00000024,7.13529429 Z M10.1361912,6.99108252 C9.64233663,7.59291783 8.87038207,7.98235313 8.00000024,7.98235313 C7.1296184,7.98235313 6.35766385,7.59291783 5.86380929,6.99108252 C5.5218911,7.22232958 5.30000019,7.5780943 5.30000019,7.98235313 L5.30000019,8.82941196 C5.30000019,9.53098845 5.95953657,10.1000002 6.77272749,10.1000002 L9.22727299,10.1000002 C10.0404639,10.1000002 10.7000003,9.53098845 10.7000003,8.82941196 L10.7000003,7.98235313 C10.7000003,7.5780943 10.4781094,7.22232958 10.1361912,6.99108252 L10.1361912,6.99108252 L10.1361912,6.99108252 Z" id="user"></path>
                        </g>
                        <g id="icon-/-reassign" transform="translate(1.000000, 160.000000)">
                            <g id="Group-17" stroke-width="1" stroke="#2F5091">
                                <g id="Group" stroke-width="0.3">
                                    <path d="M3.29195402,6.28028169 L2.37241379,7.19577465 L2.37241379,3.36901408 C2.37241379,2.05070423 3.45747126,0.970422535 4.7816092,0.970422535 L12.3954023,0.970422535 L12.3954023,0.164788732 L4.76321839,0.164788732 C2.99770115,0.164788732 1.56321839,1.59295775 1.56321839,3.35070423 L1.56321839,7.17746479 L0.643678161,6.26197183 L0.0735632184,6.82957746 L1.67356322,8.42253521 C1.74712644,8.49577465 1.85747126,8.53239437 1.94942529,8.53239437 C2.04137931,8.53239437 2.15172414,8.49577465 2.22528736,8.42253521 L3.82528736,6.82957746 L3.29195402,6.28028169 L3.29195402,6.28028169 Z" id="Shape"></path>
                                    <path d="M14.2712644,4.68732394 C14.1057471,4.52253521 13.8666667,4.52253521 13.7011494,4.68732394 L12.1011494,6.28028169 L12.6712644,6.84788732 L13.5908046,5.93239437 L13.5908046,9.75915493 C13.5908046,11.0774648 12.5057471,12.1577465 11.1816092,12.1577465 L3.56781609,12.1577465 L3.56781609,12.9633803 L11.1816092,12.9633803 C12.9471264,12.9633803 14.3816092,11.5352113 14.3816092,9.77746479 L14.3816092,5.91408451 L15.3011494,6.82957746 L15.8712644,6.28028169 L14.2712644,4.68732394 Z" id="Shape"></path>
                                </g>
                            </g>
                            <path d="M8.00000024,7.13529429 C9.22015481,7.13529429 10.2090912,6.18701192 10.2090912,5.01764719 C10.2090912,3.84828247 9.22015481,2.9000001 8.00000024,2.9000001 C6.77984567,2.9000001 5.79090929,3.84828247 5.79090929,5.01764719 C5.79090929,6.18701192 6.77984567,7.13529429 8.00000024,7.13529429 L8.00000024,7.13529429 L8.00000024,7.13529429 Z M10.1361912,6.99108252 C9.64233663,7.59291783 8.87038207,7.98235313 8.00000024,7.98235313 C7.1296184,7.98235313 6.35766385,7.59291783 5.86380929,6.99108252 C5.5218911,7.22232958 5.30000019,7.5780943 5.30000019,7.98235313 L5.30000019,8.82941196 C5.30000019,9.53098845 5.95953657,10.1000002 6.77272749,10.1000002 L9.22727299,10.1000002 C10.0404639,10.1000002 10.7000003,9.53098845 10.7000003,8.82941196 L10.7000003,7.98235313 C10.7000003,7.5780943 10.4781094,7.22232958 10.1361912,6.99108252 L10.1361912,6.99108252 L10.1361912,6.99108252 Z" id="user"></path>
                        </g>
                        <g id="icon-/-reassign" transform="translate(1.000000, 200.000000)">
                            <g id="Group-17" stroke-width="1" stroke="#2F5091">
                                <g id="Group" stroke-width="0.3">
                                    <path d="M3.29195402,6.28028169 L2.37241379,7.19577465 L2.37241379,3.36901408 C2.37241379,2.05070423 3.45747126,0.970422535 4.7816092,0.970422535 L12.3954023,0.970422535 L12.3954023,0.164788732 L4.76321839,0.164788732 C2.99770115,0.164788732 1.56321839,1.59295775 1.56321839,3.35070423 L1.56321839,7.17746479 L0.643678161,6.26197183 L0.0735632184,6.82957746 L1.67356322,8.42253521 C1.74712644,8.49577465 1.85747126,8.53239437 1.94942529,8.53239437 C2.04137931,8.53239437 2.15172414,8.49577465 2.22528736,8.42253521 L3.82528736,6.82957746 L3.29195402,6.28028169 L3.29195402,6.28028169 Z" id="Shape"></path>
                                    <path d="M14.2712644,4.68732394 C14.1057471,4.52253521 13.8666667,4.52253521 13.7011494,4.68732394 L12.1011494,6.28028169 L12.6712644,6.84788732 L13.5908046,5.93239437 L13.5908046,9.75915493 C13.5908046,11.0774648 12.5057471,12.1577465 11.1816092,12.1577465 L3.56781609,12.1577465 L3.56781609,12.9633803 L11.1816092,12.9633803 C12.9471264,12.9633803 14.3816092,11.5352113 14.3816092,9.77746479 L14.3816092,5.91408451 L15.3011494,6.82957746 L15.8712644,6.28028169 L14.2712644,4.68732394 Z" id="Shape"></path>
                                </g>
                            </g>
                            <path d="M8.00000024,7.13529429 C9.22015481,7.13529429 10.2090912,6.18701192 10.2090912,5.01764719 C10.2090912,3.84828247 9.22015481,2.9000001 8.00000024,2.9000001 C6.77984567,2.9000001 5.79090929,3.84828247 5.79090929,5.01764719 C5.79090929,6.18701192 6.77984567,7.13529429 8.00000024,7.13529429 L8.00000024,7.13529429 L8.00000024,7.13529429 Z M10.1361912,6.99108252 C9.64233663,7.59291783 8.87038207,7.98235313 8.00000024,7.98235313 C7.1296184,7.98235313 6.35766385,7.59291783 5.86380929,6.99108252 C5.5218911,7.22232958 5.30000019,7.5780943 5.30000019,7.98235313 L5.30000019,8.82941196 C5.30000019,9.53098845 5.95953657,10.1000002 6.77272749,10.1000002 L9.22727299,10.1000002 C10.0404639,10.1000002 10.7000003,9.53098845 10.7000003,8.82941196 L10.7000003,7.98235313 C10.7000003,7.5780943 10.4781094,7.22232958 10.1361912,6.99108252 L10.1361912,6.99108252 L10.1361912,6.99108252 Z" id="user"></path>
                        </g>
                        <g id="icon-/-reassign" transform="translate(1.000000, 240.000000)">
                            <g id="Group-17" stroke-width="1" stroke="#2F5091">
                                <g id="Group" stroke-width="0.3">
                                    <path d="M3.29195402,6.28028169 L2.37241379,7.19577465 L2.37241379,3.36901408 C2.37241379,2.05070423 3.45747126,0.970422535 4.7816092,0.970422535 L12.3954023,0.970422535 L12.3954023,0.164788732 L4.76321839,0.164788732 C2.99770115,0.164788732 1.56321839,1.59295775 1.56321839,3.35070423 L1.56321839,7.17746479 L0.643678161,6.26197183 L0.0735632184,6.82957746 L1.67356322,8.42253521 C1.74712644,8.49577465 1.85747126,8.53239437 1.94942529,8.53239437 C2.04137931,8.53239437 2.15172414,8.49577465 2.22528736,8.42253521 L3.82528736,6.82957746 L3.29195402,6.28028169 L3.29195402,6.28028169 Z" id="Shape"></path>
                                    <path d="M14.2712644,4.68732394 C14.1057471,4.52253521 13.8666667,4.52253521 13.7011494,4.68732394 L12.1011494,6.28028169 L12.6712644,6.84788732 L13.5908046,5.93239437 L13.5908046,9.75915493 C13.5908046,11.0774648 12.5057471,12.1577465 11.1816092,12.1577465 L3.56781609,12.1577465 L3.56781609,12.9633803 L11.1816092,12.9633803 C12.9471264,12.9633803 14.3816092,11.5352113 14.3816092,9.77746479 L14.3816092,5.91408451 L15.3011494,6.82957746 L15.8712644,6.28028169 L14.2712644,4.68732394 Z" id="Shape"></path>
                                </g>
                            </g>
                            <path d="M8.00000024,7.13529429 C9.22015481,7.13529429 10.2090912,6.18701192 10.2090912,5.01764719 C10.2090912,3.84828247 9.22015481,2.9000001 8.00000024,2.9000001 C6.77984567,2.9000001 5.79090929,3.84828247 5.79090929,5.01764719 C5.79090929,6.18701192 6.77984567,7.13529429 8.00000024,7.13529429 L8.00000024,7.13529429 L8.00000024,7.13529429 Z M10.1361912,6.99108252 C9.64233663,7.59291783 8.87038207,7.98235313 8.00000024,7.98235313 C7.1296184,7.98235313 6.35766385,7.59291783 5.86380929,6.99108252 C5.5218911,7.22232958 5.30000019,7.5780943 5.30000019,7.98235313 L5.30000019,8.82941196 C5.30000019,9.53098845 5.95953657,10.1000002 6.77272749,10.1000002 L9.22727299,10.1000002 C10.0404639,10.1000002 10.7000003,9.53098845 10.7000003,8.82941196 L10.7000003,7.98235313 C10.7000003,7.5780943 10.4781094,7.22232958 10.1361912,6.99108252 L10.1361912,6.99108252 L10.1361912,6.99108252 Z" id="user"></path>
                        </g>
                        <g id="icon-/-reassign" transform="translate(1.000000, 280.000000)">
                            <g id="Group-17" stroke-width="1" stroke="#2F5091">
                                <g id="Group" stroke-width="0.3">
                                    <path d="M3.29195402,6.28028169 L2.37241379,7.19577465 L2.37241379,3.36901408 C2.37241379,2.05070423 3.45747126,0.970422535 4.7816092,0.970422535 L12.3954023,0.970422535 L12.3954023,0.164788732 L4.76321839,0.164788732 C2.99770115,0.164788732 1.56321839,1.59295775 1.56321839,3.35070423 L1.56321839,7.17746479 L0.643678161,6.26197183 L0.0735632184,6.82957746 L1.67356322,8.42253521 C1.74712644,8.49577465 1.85747126,8.53239437 1.94942529,8.53239437 C2.04137931,8.53239437 2.15172414,8.49577465 2.22528736,8.42253521 L3.82528736,6.82957746 L3.29195402,6.28028169 L3.29195402,6.28028169 Z" id="Shape"></path>
                                    <path d="M14.2712644,4.68732394 C14.1057471,4.52253521 13.8666667,4.52253521 13.7011494,4.68732394 L12.1011494,6.28028169 L12.6712644,6.84788732 L13.5908046,5.93239437 L13.5908046,9.75915493 C13.5908046,11.0774648 12.5057471,12.1577465 11.1816092,12.1577465 L3.56781609,12.1577465 L3.56781609,12.9633803 L11.1816092,12.9633803 C12.9471264,12.9633803 14.3816092,11.5352113 14.3816092,9.77746479 L14.3816092,5.91408451 L15.3011494,6.82957746 L15.8712644,6.28028169 L14.2712644,4.68732394 Z" id="Shape"></path>
                                </g>
                            </g>
                            <path d="M8.00000024,7.13529429 C9.22015481,7.13529429 10.2090912,6.18701192 10.2090912,5.01764719 C10.2090912,3.84828247 9.22015481,2.9000001 8.00000024,2.9000001 C6.77984567,2.9000001 5.79090929,3.84828247 5.79090929,5.01764719 C5.79090929,6.18701192 6.77984567,7.13529429 8.00000024,7.13529429 L8.00000024,7.13529429 L8.00000024,7.13529429 Z M10.1361912,6.99108252 C9.64233663,7.59291783 8.87038207,7.98235313 8.00000024,7.98235313 C7.1296184,7.98235313 6.35766385,7.59291783 5.86380929,6.99108252 C5.5218911,7.22232958 5.30000019,7.5780943 5.30000019,7.98235313 L5.30000019,8.82941196 C5.30000019,9.53098845 5.95953657,10.1000002 6.77272749,10.1000002 L9.22727299,10.1000002 C10.0404639,10.1000002 10.7000003,9.53098845 10.7000003,8.82941196 L10.7000003,7.98235313 C10.7000003,7.5780943 10.4781094,7.22232958 10.1361912,6.99108252 L10.1361912,6.99108252 L10.1361912,6.99108252 Z" id="user"></path>
                        </g>
                    </g>
                </g>
                <g id="Table-/-action" transform="translate(30.000000, 128.000000)">
                    <use id="left-bg" stroke="#2F5091" mask="url(#mask-6)" stroke-width="2" fill="#FFFFFF" xlink:href="#path-5"></use>
                    <g id="Group-9" transform="translate(1239.000000, 112.000000)" fill="#2F5091">
                        <g id="icon-/-reassign" transform="translate(1.000000, 0.000000)">
                            <g id="Group-17" stroke-width="1" stroke="#2F5091">
                                <g id="Group" stroke-width="0.3">
                                    <path d="M3.29195402,6.28028169 L2.37241379,7.19577465 L2.37241379,3.36901408 C2.37241379,2.05070423 3.45747126,0.970422535 4.7816092,0.970422535 L12.3954023,0.970422535 L12.3954023,0.164788732 L4.76321839,0.164788732 C2.99770115,0.164788732 1.56321839,1.59295775 1.56321839,3.35070423 L1.56321839,7.17746479 L0.643678161,6.26197183 L0.0735632184,6.82957746 L1.67356322,8.42253521 C1.74712644,8.49577465 1.85747126,8.53239437 1.94942529,8.53239437 C2.04137931,8.53239437 2.15172414,8.49577465 2.22528736,8.42253521 L3.82528736,6.82957746 L3.29195402,6.28028169 L3.29195402,6.28028169 Z" id="Shape"></path>
                                    <path d="M14.2712644,4.68732394 C14.1057471,4.52253521 13.8666667,4.52253521 13.7011494,4.68732394 L12.1011494,6.28028169 L12.6712644,6.84788732 L13.5908046,5.93239437 L13.5908046,9.75915493 C13.5908046,11.0774648 12.5057471,12.1577465 11.1816092,12.1577465 L3.56781609,12.1577465 L3.56781609,12.9633803 L11.1816092,12.9633803 C12.9471264,12.9633803 14.3816092,11.5352113 14.3816092,9.77746479 L14.3816092,5.91408451 L15.3011494,6.82957746 L15.8712644,6.28028169 L14.2712644,4.68732394 Z" id="Shape"></path>
                                </g>
                            </g>
                            <path d="M8.00000024,7.13529429 C9.22015481,7.13529429 10.2090912,6.18701192 10.2090912,5.01764719 C10.2090912,3.84828247 9.22015481,2.9000001 8.00000024,2.9000001 C6.77984567,2.9000001 5.79090929,3.84828247 5.79090929,5.01764719 C5.79090929,6.18701192 6.77984567,7.13529429 8.00000024,7.13529429 L8.00000024,7.13529429 L8.00000024,7.13529429 Z M10.1361912,6.99108252 C9.64233663,7.59291783 8.87038207,7.98235313 8.00000024,7.98235313 C7.1296184,7.98235313 6.35766385,7.59291783 5.86380929,6.99108252 C5.5218911,7.22232958 5.30000019,7.5780943 5.30000019,7.98235313 L5.30000019,8.82941196 C5.30000019,9.53098845 5.95953657,10.1000002 6.77272749,10.1000002 L9.22727299,10.1000002 C10.0404639,10.1000002 10.7000003,9.53098845 10.7000003,8.82941196 L10.7000003,7.98235313 C10.7000003,7.5780943 10.4781094,7.22232958 10.1361912,6.99108252 L10.1361912,6.99108252 L10.1361912,6.99108252 Z" id="user"></path>
                        </g>
                    </g>
                </g>
            </g>
        </g>
    </g>
</svg>