<?xml version="1.0" encoding="UTF-8"?>
<svg width="17px" height="16px" viewBox="0 0 17 16" version="1.1" xmlns="http://www.w3.org/2000/svg" xmlns:xlink="http://www.w3.org/1999/xlink">
    <!-- Generator: Sketch 40 (33762) - http://www.bohemiancoding.com/sketch -->
    <title>Setting</title>
    <desc>Created with Sketch.</desc>
    <defs></defs>
    <g id="Symbols" stroke="none" stroke-width="1" fill="none" fill-rule="evenodd">
        <g id="component-/-notification_panel" transform="translate(-251.000000, -12.000000)" fill="#768FC2">
            <g id="Noticebaord-/-Top-Title">
                <g id="Group-3" transform="translate(225.000000, 12.000000)">
                    <path d="M32.8537539,0 L36.6924454,0.00644180733 C36.6924454,0.00644180733 36.5963112,1.7033749 37.9296724,2.52309489 C39.2630335,3.34281487 41.2180958,2.68671679 41.2180958,2.68671679 L42.8732394,5.39227587 C42.8732394,5.39227587 41.2102515,6.39446005 41.2075811,7.68266047 C41.2049107,8.97102193 42.8620572,10.7024187 42.8620572,10.7024187 L41.1306404,13.4327787 C41.1306404,13.4327787 39.471825,12.4867993 37.9882541,13.426659 C36.5045164,14.3665187 36.3708298,16 36.3708298,16 L33.1142842,15.9935582 C33.1142842,15.9935582 33.1832138,14.328512 31.8173072,13.4461455 C30.4514006,12.5637789 28.3658228,13.3136053 28.3658228,13.3136053 L26.8732394,10.6710149 C26.8732394,10.6710149 28.2431516,9.66818653 28.3768382,8.00330143 C28.5105248,6.33825528 26.8845886,5.29806444 26.8845886,5.29806444 L28.4207328,2.59878612 C28.4207328,2.59878612 30.3078669,3.41931133 31.7750816,2.54242031 C33.2424631,1.66552929 32.8537539,0 32.8537539,0 L32.8537539,0 Z M34.8638039,4.57049243 C32.8690104,4.56661227 31.2484585,6.12372271 31.2444373,8.04880219 C31.240282,9.97310564 32.8541319,11.5368124 34.8489253,11.5409512 C36.8438529,11.5452194 38.4644047,9.98785027 38.4688281,8.06302946 C38.4724472,6.13794999 36.8584633,4.57450194 34.8638039,4.57049243 L34.8638039,4.57049243 Z" id="Setting"></path>
                </g>
            </g>
        </g>
    </g>
</svg>