<?xml version="1.0" encoding="UTF-8"?>
<svg width="15px" height="10px" viewBox="0 0 15 10" version="1.1" xmlns="http://www.w3.org/2000/svg" xmlns:xlink="http://www.w3.org/1999/xlink">
    <!-- Generator: Sketch 41.2 (35397) - http://www.bohemiancoding.com/sketch -->
    <title>Tick Copy 5</title>
    <desc>Created with Sketch.</desc>
    <defs></defs>
    <g id="â-B2-My-Profile-&amp;-User-Profile-(Spec)" stroke="none" stroke-width="1" fill="none" fill-rule="evenodd">
        <g id="MyProfile_02(SelectRole02)@2x" transform="translate(-887.000000, -410.000000)" fill="#4EA508">
            <g id="popup-/-logout-w-tasklist-copy-3" transform="translate(445.000000, 243.000000)">
                <g id="Group-27" transform="translate(30.000000, 72.000000)">
                    <path d="M416.926136,104.90625 C416.772727,104.84375 416.636364,104.75 416.5,104.625 L412.409091,100.875 C411.863636,100.375 411.863636,99.625 412.409091,99.125 C412.954545,98.625 413.772727,98.625 414.318182,99.125 L417.454545,102 L424.681818,95.375 C425.227273,94.875 426.045455,94.875 426.590909,95.375 C427.136364,95.875 427.136364,96.625 426.590909,97.125 L418.409091,104.625 C418.136364,104.875 417.863636,105 417.454545,105 C417.25,105 417.079545,104.96875 416.926136,104.90625 Z" id="Tick-Copy-5"></path>
                </g>
            </g>
        </g>
    </g>
</svg>