<?xml version="1.0" encoding="UTF-8" standalone="no"?>
<svg width="10px" height="10px" viewBox="0 0 10 10" version="1.1" xmlns="http://www.w3.org/2000/svg" xmlns:xlink="http://www.w3.org/1999/xlink">
    <!-- Generator: Sketch 40.2 (33826) - http://www.bohemiancoding.com/sketch -->
    <title>time-icon</title>
    <desc>Created with Sketch.</desc>
    <defs></defs>
    <g id="â-B2-Audit-Trail" stroke="none" stroke-width="1" fill="none" fill-rule="evenodd">
        <g id="components" transform="translate(-1623.000000, -293.000000)" fill="#7C8CAF">
            <g id="time-icon" transform="translate(1623.000000, 293.000000)">
                <path d="M5,10 C2.25,10 0,7.75 0,5 C0,2.25 2.25,0 5,0 C7.75,0 10,2.25 10,5 C10,7.75 7.75,10 5,10 L5,10 Z M5,0.833333333 C2.70833333,0.833333333 0.833333333,2.70833333 0.833333333,5 C0.833333333,7.29166667 2.70833333,9.16666667 5,9.16666667 C7.29166667,9.16666667 9.16666667,7.29166667 9.16666667,5 C9.16666667,2.70833333 7.29166667,0.833333333 5,0.833333333 L5,0.833333333 Z" id="Shape"></path>
                <path d="M5,5.41666667 C4.75,5.41666667 4.58333333,5.25 4.58333333,5 L4.58333333,2.08333333 C4.58333333,1.83333333 4.75,1.66666667 5,1.66666667 C5.25,1.66666667 5.41666667,1.83333333 5.41666667,2.08333333 L5.41666667,5 C5.41666667,5.25 5.25,5.41666667 5,5.41666667 L5,5.41666667 Z" id="Shape"></path>
                <path d="M6.66666667,7.08333333 C6.54166667,7.08333333 6.45833333,7.04166667 6.375,6.95833333 L4.70833333,5.29166667 C4.54166667,5.125 4.54166667,4.875 4.70833333,4.70833333 C4.875,4.54166667 5.125,4.54166667 5.29166667,4.70833333 L6.95833333,6.375 C7.125,6.54166667 7.125,6.79166667 6.95833333,6.95833333 C6.875,7.04166667 6.79166667,7.08333333 6.66666667,7.08333333 L6.66666667,7.08333333 Z" id="Shape"></path>
            </g>
        </g>
    </g>
</svg>