<?xml version="1.0" encoding="UTF-8"?>
<svg width="51px" height="45px" viewBox="0 0 51 45" version="1.1" xmlns="http://www.w3.org/2000/svg" xmlns:xlink="http://www.w3.org/1999/xlink">
    <!-- Generator: Sketch 41.2 (35397) - http://www.bohemiancoding.com/sketch -->
    <title>Group</title>
    <desc>Created with Sketch.</desc>
    <defs></defs>
    <g id="â-B2-Contingency-Control" stroke="none" stroke-width="1" fill="none" fill-rule="evenodd">
        <g id="Contingency-Control_Warning" transform="translate(-671.000000, -296.000000)" fill="#E25854">
            <g id="Warning-Message" transform="translate(409.000000, 250.000000)">
                <g id="Group-7">
                    <g id="Group" transform="translate(262.000000, 46.000000)">
                        <path d="M50.547726,39.9353982 L28.4300058,1.68027476 C27.8253682,0.636896599 26.7175272,0 25.5133522,0 L25.5003187,0 L25.4872853,0 C24.283677,0 23.1758359,0.636896599 22.5706317,1.68027476 L0.451778137,39.9353982 C-0.150592712,40.9827393 -0.150592712,42.2701196 0.451778137,43.3146301 C1.05074896,44.3602727 2.16539004,45 3.38203182,45 L47.618039,45 C48.8341141,45 49.9493218,44.3602727 50.5482927,43.3146301 C51.1506635,42.2701196 51.1506635,40.9810409 50.547726,39.9353982 L50.547726,39.9353982 Z M5.3330787,40.4964334 L25.4997521,5.6182772 L45.6664254,40.4964334 L5.3330787,40.4964334 L5.3330787,40.4964334 Z" id="Shape"></path>
                        <path d="M26,27 C27.1045376,27 28,27.8964824 28,29.0002872 C28,30.1040919 27.1039632,31 26,31 C24.8960368,31 24,30.1040919 24,29.0002872 C24,27.8964824 24.8954624,27 26,27" id="Shape"></path>
                        <path d="M27.5626593,31 C27.5626593,31 26.872926,31.4098908 26.0557789,31.4098908 C25.2391981,31.4098908 24.4928365,31 24.4928365,31 C24.4084603,31.1454794 21,36.5600728 21,36.5600728 C21,36.5600728 23.0284274,38 26.0563452,38 C29.0848293,38 31,36.5600728 31,36.5600728 C30.7751855,36.1512439 27.5626593,31 27.5626593,31" id="Shape"></path>
                        <path d="M28.2135665,27.3610016 C28.6544254,28.096806 28.6574368,29 28.6574368,29 C28.8447416,28.9934937 35.9761764,29 35.9761764,29 C35.9761764,29 36.2881504,26.3602129 34.654202,23.6352524 C33.0190491,20.9102918 30.5780639,20 30.5780639,20 C30.3004191,20.4341483 27,26.2371845 27,26.2371845 C27,26.2371845 27.7727076,26.6263801 28.2135665,27.3610016 Z" id="Shape"></path>
                        <path d="M25,26.2371845 C25,26.2371845 24.2272913,26.6263801 23.7864318,27.3610016 C23.3455722,28.096806 23.3431632,29 23.3431632,29 C23.1552558,28.9934937 16.0238109,29 16.0238109,29 C16.0238109,29 15.7118365,26.3602129 17.3463895,23.6352524 C18.9809424,20.9102918 21.4219311,20 21.4219311,20 C21.7001785,20.4341483 25,26.2371845 25,26.2371845" id="Shape"></path>
                    </g>
                </g>
            </g>
        </g>
    </g>
</svg>