<?xml version="1.0" encoding="UTF-8" standalone="no"?>
<svg width="34px" height="34px" viewBox="0 0 34 34" version="1.1" xmlns="http://www.w3.org/2000/svg" xmlns:xlink="http://www.w3.org/1999/xlink">
    <!-- Generator: Sketch 40.2 (33826) - http://www.bohemiancoding.com/sketch -->
    <title>basketball-active</title>
    <desc>Created with Sketch.</desc>
    <defs></defs>
    <g id="Event-Directory" stroke="none" stroke-width="1" fill="none" fill-rule="evenodd">
        <g id="Event-Directory_new-flow" transform="translate(-594.000000, -2185.000000)" fill="#FFFFFF">
            <g id="Group-7" transform="translate(491.000000, 2168.000000)">
                <path d="M106.721422,31.0778594 C107.704173,31.0563438 108.595698,31.3934219 109.388814,32.0882969 C110.069425,31.2900938 110.825572,30.5062344 111.666562,29.7566406 C111.364157,28.7645313 111.15484,27.8367031 111.015207,26.9824531 C110.48008,23.7033125 110.863073,21.0892969 111.342348,19.3513125 C106.640568,22.1220469 103.390707,27.0847187 103,32.8331094 C103.988602,31.9631875 105.303282,31.1198281 106.721422,31.0778594 Z M121.91191,21.5852188 C121.261087,22.3648281 121.067196,23.3866875 121.314014,24.6858594 C125.12427,23.7399688 129.384543,23.6600156 134.059725,24.4494531 C132.757813,22.5385469 131.074236,20.9097344 129.121766,19.6644844 C127.151477,19.57125 123.415958,19.7821563 121.91191,21.5852188 Z M112.656495,26.8440625 C112.751445,27.4024063 112.881504,27.9960781 113.048797,28.6192344 C113.473814,28.2967656 113.913193,27.982 114.375445,27.6807813 C116.033488,26.6012813 117.818931,25.7539375 119.72592,25.1376875 C119.341597,23.2780469 119.651715,21.7321094 120.652818,20.5336094 C121.939571,18.9935156 124.147902,18.3698281 126.094254,18.1360781 C124.19551,17.4048125 122.134259,17 119.97726,17 C117.662542,17 115.456338,17.4635156 113.444291,18.2994375 C112.944272,19.4737656 111.925615,22.54625 112.656495,26.8440625 Z M121.781586,26.2615469 C124.300567,32.4567188 133.748011,35.6715781 136.821802,36.4466719 C136.937232,35.6474063 137,34.8311406 137,34 C137,31.2367031 136.335612,28.6298594 135.163758,26.3231719 C130.200266,25.3167188 125.724293,25.2967969 121.781586,26.2615469 Z M112.256479,31.4515938 C111.611241,32.0675781 111.021058,32.7056094 110.483537,33.3532031 C113.433653,37.5522031 112.871131,43.2179844 111.662839,48.8325 C114.121712,50.2108281 116.956663,51 119.97726,51 C122.594649,51 125.07347,50.4084531 127.288982,49.3547188 C118.395549,42.6346719 114.174373,36.3908906 112.256479,31.4515938 Z M120.194024,26.7104531 C118.436508,27.2810156 116.794422,28.06275 115.272023,29.0540625 C114.670935,29.4453281 114.108413,29.8620938 113.573818,30.2937344 C115.315641,35.1591875 119.472453,41.533125 128.87548,48.4932969 C132.636531,46.1855469 135.42813,42.4590938 136.507428,38.0600781 C132.784942,37.1702344 122.841999,33.4761875 120.194024,26.7104531 Z M103,35.166625 C103.137239,37.1882969 103.62795,39.1124844 104.412023,40.8791563 C105.072156,38.9701094 106.284171,36.1624531 108.365635,33.3707344 C107.869073,32.9138594 107.342723,32.6939219 106.77036,32.7167656 C105.341315,32.759 103.819181,34.2000156 103,35.166625 Z M109.423655,34.7272813 C106.977017,38.154375 105.874846,41.5549063 105.497704,42.9366875 C106.709188,44.8900938 108.306591,46.5784063 110.182196,47.899625 C111.181703,43.0570156 111.602464,38.2574375 109.423655,34.7272813 Z" id="basketball-active"></path>
            </g>
        </g>
    </g>
</svg>