<?xml version="1.0" encoding="UTF-8"?>
<svg width="13px" height="12px" viewBox="0 0 13 12" version="1.1" xmlns="http://www.w3.org/2000/svg" xmlns:xlink="http://www.w3.org/1999/xlink">
    <!-- Generator: Sketch 41.2 (35397) - http://www.bohemiancoding.com/sketch -->
    <title>Combined Shape</title>
    <desc>Created with Sketch.</desc>
    <defs></defs>
    <g id="Page-1" stroke="none" stroke-width="1" fill="none" fill-rule="evenodd">
        <g id="Event-Directory_new-flow" transform="translate(-1159.000000, -944.000000)" fill="#2F4E91">
            <g id="Group-8" transform="translate(1159.000000, 940.000000)">
                <path d="M7.12928177,4.00259994 C7.11628209,4.00129997 7.10328242,4 7.09028274,4 C6.74449139,4 6.50529737,4.280143 6.50529737,4.62580435 C6.50529737,4.96639584 6.63789405,5.24328892 7.15788105,5.25043874 L7.15788105,5.25238869 C9.62768931,5.28618785 11.7881053,7.3959051 11.7881053,9.98531037 C11.7881053,12.5955151 9.64458889,14.7494313 7.03438414,14.7494313 C4.54312642,14.7494313 2.47500812,12.8696783 2.29288268,10.4 L3.3920052,10.4 L1.69567761,7.5799805 L0,10.40013 L1.039974,10.40013 C1.22378941,13.519792 3.83269418,16 7.01358466,16 C10.3140721,16 12.999675,13.3013975 12.999675,10.00039 C12.999675,6.73890153 10.3763406,4.06434839 7.12928177,4.00259994 Z M7.03438414,13.0245044 C7.24107897,13.0245044 7.41007475,13.1922002 7.41007475,13.400195 C7.41007475,13.6083198 7.24107897,13.7758856 7.03438414,13.7758856 C6.82703932,13.7758856 6.65869353,13.6083198 6.65869353,13.400195 C6.65882353,13.1922002 6.82716932,13.0245044 7.03438414,13.0245044 Z M9.5158921,7.34923627 C9.7238869,7.34923627 9.89158271,7.51758206 9.89158271,7.72492688 C9.89158271,7.93227169 9.7238869,8.0999675 9.5158921,8.0999675 C9.30919727,8.0999675 9.14150146,7.93227169 9.14150146,7.72492688 C9.14150146,7.51758206 9.30919727,7.34923627 9.5158921,7.34923627 Z M9.5158921,11.8533637 C9.7238869,11.8533637 9.89158271,12.0223594 9.89158271,12.2290543 C9.89158271,12.4357491 9.7238869,12.6048749 9.5158921,12.6048749 C9.30919727,12.6048749 9.14150146,12.4357491 9.14150146,12.2290543 C9.14150146,12.0223594 9.30919727,11.8533637 9.5158921,11.8533637 Z M10.3504712,9.64354891 C10.558466,9.64354891 10.7261618,9.81124472 10.7261618,10.0185895 C10.7261618,10.2259344 10.558466,10.3942801 10.3504712,10.3942801 C10.1423464,10.3942801 9.9760806,10.2259344 9.9760806,10.0185895 C9.9760806,9.81124472 10.1424764,9.64354891 10.3504712,9.64354891 Z M7.67786805,6.91764706 C7.67786805,6.62320442 7.44140396,6.37036074 7.14761131,6.37036074 L7.03308417,6.37036074 C6.73929152,6.37036074 6.5080273,6.62320442 6.5080273,6.91764706 L6.5080273,10.0640884 L4.96691583,11.6024699 C4.73942151,11.8299643 4.75112122,12.199155 4.96626584,12.4253494 C5.18206045,12.6541436 5.56022099,12.6541436 5.78771531,12.4253494 L7.49067273,10.7223919 C7.50367241,10.7080923 7.51407215,10.6937927 7.52707182,10.680793 C7.62066948,10.5839454 7.67773806,10.4526487 7.67773806,10.3077023 L7.67773806,6.91764706 L7.67786805,6.91764706 Z" id="Combined-Shape"></path>
            </g>
        </g>
    </g>
</svg>