<?xml version="1.0" encoding="UTF-8" standalone="no"?>
<svg width="22px" height="22px" viewBox="0 0 22 22" version="1.1" xmlns="http://www.w3.org/2000/svg" xmlns:xlink="http://www.w3.org/1999/xlink">
    <!-- Generator: Sketch 40.2 (33826) - http://www.bohemiancoding.com/sketch -->
    <title>Event Directory_new-flow</title>
    <desc>Created with Sketch.</desc>
    <defs>
        <rect id="path-1" x="0" y="29" width="200" height="30" rx="2"></rect>
        <mask id="mask-2" maskContentUnits="userSpaceOnUse" maskUnits="objectBoundingBox" x="0" y="0" width="200" height="30" fill="white">
            <use xlink:href="#path-1"></use>
        </mask>
    </defs>
    <g id="Event-Directory" stroke="none" stroke-width="1" fill="none" fill-rule="evenodd">
        <g id="Event-Directory_new-flow" transform="translate(-2046.000000, -2189.000000)">
            <rect id="Rectangle" fill="#FFFFFF" x="322" y="1911" width="2828" height="606"></rect>
            <g id="Group-4" transform="translate(1872.000000, 2156.000000)">
                <use id="Rectangle-104" stroke="#ACB8D1" mask="url(#mask-2)" stroke-width="2" fill="#FFFFFF" xlink:href="#path-1"></use>
                <g id="Group-12" transform="translate(174.000000, 33.000000)" fill="#2F5091">
                    <path d="M5.42962963,17.1805385 L7.26065926,17.1805385 L7.26065926,15.3495089 L5.42962963,15.3495089 L5.42962963,17.1805385 Z M5.42962963,14.7509089 L7.26065926,14.7509089 L7.26065926,12.9198793 L5.42962963,12.9198793 L5.42962963,14.7509089 Z M7.85925926,17.1805385 L9.69028889,17.1805385 L9.69028889,15.3495089 L7.85925926,15.3495089 L7.85925926,17.1805385 Z M7.85925926,14.7509089 L9.69028889,14.7509089 L9.69028889,12.9198793 L7.85925926,12.9198793 L7.85925926,14.7509089 Z M7.85925926,12.3212793 L9.69028889,12.3212793 L9.69028889,10.4902496 L7.85925926,10.4902496 L7.85925926,12.3212793 Z M10.2888889,17.1805385 L12.1199185,17.1805385 L12.1199185,15.3495089 L10.2888889,15.3495089 L10.2888889,17.1805385 Z M10.2888889,14.7509089 L12.1199185,14.7509089 L12.1199185,12.9198793 L10.2888889,12.9198793 L10.2888889,14.7509089 Z M10.2888889,12.3212793 L12.1199185,12.3212793 L12.1199185,10.4902496 L10.2888889,10.4902496 L10.2888889,12.3212793 Z M12.7185185,17.1805385 L14.5495481,17.1805385 L14.5495481,15.3495089 L12.7185185,15.3495089 L12.7185185,17.1805385 Z M12.7185185,14.7509089 L14.5495481,14.7509089 L14.5495481,12.9198793 L12.7185185,12.9198793 L12.7185185,14.7509089 Z M12.7185185,12.3212793 L14.5495481,12.3212793 L14.5495481,10.4902496 L12.7185185,10.4902496 L12.7185185,12.3212793 Z M15.1481481,14.7509089 L16.9791778,14.7509089 L16.9791778,12.9198793 L15.1481481,12.9198793 L15.1481481,14.7509089 Z M15.1481481,12.3212793 L16.9791778,12.3212793 L16.9791778,10.4902496 L15.1481481,10.4902496 L15.1481481,12.3212793 Z M3,18.6945015 C3,19.5333311 3.67999259,20.21302 4.51851852,20.21302 L17.8814815,20.21302 C18.7200074,20.21302 19.4,19.5333311 19.4,18.6945015 L19.4,8.06487185 L3,8.06487185 L3,18.6945015 Z" id="Fill-1"></path>
                    <path d="M14.237037,5.03703704 C14.5726296,5.03703704 14.8444444,4.76491852 14.8444444,4.42962963 L14.8444444,3.51851852 L14.8444444,2.60740741 C14.8444444,2.27181481 14.5726296,2 14.237037,2 C13.9017481,2 13.6296296,2.27181481 13.6296296,2.60740741 L13.6296296,3.51851852 L13.6296296,4.42962963 C13.6296296,4.76491852 13.9017481,5.03703704 14.237037,5.03703704" id="Fill-3"></path>
                    <path d="M17.8814815,3.51851852 L17.8623481,3.51851852 L17.1601852,3.51851852 L15.4518519,3.51851852 L15.4518519,4.42962963 C15.4518519,5.0992963 14.9070074,5.64444444 14.237037,5.64444444 C13.5670667,5.64444444 13.0222222,5.0992963 13.0222222,4.42962963 L13.0222222,3.51851852 L11.8074074,3.51851852 L10.5925926,3.51851852 L9.37777778,3.51851852 L9.37777778,4.42962963 C9.37777778,5.0992963 8.83293333,5.64444444 8.16296296,5.64444444 C7.49299259,5.64444444 6.94814815,5.0992963 6.94814815,4.42962963 L6.94814815,3.51851852 L4.51851852,3.51851852 C3.67999259,3.51851852 3,4.19820741 3,5.03703704 L3,7.45755556 L19.4,7.45755556 L19.4,5.03703704 C19.4,4.19820741 18.7200074,3.51851852 17.8814815,3.51851852" id="Fill-4"></path>
                    <path d="M8.16296296,5.03703704 C8.49855556,5.03703704 8.77037037,4.76491852 8.77037037,4.42962963 L8.77037037,3.51851852 L8.77037037,2.60740741 C8.77037037,2.27181481 8.49855556,2 8.16296296,2 C7.82767407,2 7.55555556,2.27181481 7.55555556,2.60740741 L7.55555556,3.51851852 L7.55555556,4.42962963 C7.55555556,4.76491852 7.82767407,5.03703704 8.16296296,5.03703704" id="Fill-5"></path>
                </g>
            </g>
        </g>
    </g>
</svg>