<?xml version="1.0" encoding="UTF-8" standalone="no"?>
<svg width="34px" height="34px" viewBox="0 0 34 34" version="1.1" xmlns="http://www.w3.org/2000/svg" xmlns:xlink="http://www.w3.org/1999/xlink">
    <!-- Generator: Sketch 40.2 (33826) - http://www.bohemiancoding.com/sketch -->
    <title>football-active</title>
    <desc>Created with Sketch.</desc>
    <defs></defs>
    <g id="Event-Directory" stroke="none" stroke-width="1" fill="none" fill-rule="evenodd">
        <g id="Event-Directory_new-flow" transform="translate(-514.000000, -2061.000000)" fill="#FFFFFF">
            <g id="Group-7" transform="translate(491.000000, 2044.000000)">
                <path d="M52.0208889,21.9791111 C48.8101556,18.7683778 44.5408889,17 40,17 C35.4591111,17 31.1902222,18.7683778 27.9791111,21.9791111 C24.7683778,25.1898444 23,29.4591111 23,34 C23,38.5408889 24.7683778,42.8097778 27.9791111,46.0208889 C31.1898444,49.2316222 35.4591111,51 40,51 C44.5408889,51 48.8097778,49.2316222 52.0208889,46.0208889 C55.2316222,42.8101556 57,38.5408889 57,34 C57,29.4591111 55.2316222,25.1902222 52.0208889,21.9791111 L52.0208889,21.9791111 Z M35.2849556,18.8843556 C36.7749111,18.4185556 38.3585556,18.1673333 40,18.1673333 C41.6410667,18.1673333 43.2247111,18.4185556 44.7146667,18.8839778 L45.8113556,20.8661778 L40,23.3440222 L34.1886444,20.8646667 L35.2849556,18.8843556 L35.2849556,18.8843556 Z M24.1692222,33.8594667 C24.1979333,30.5599556 25.2409778,27.4984444 27.0014222,24.9718667 L29.4509333,24.5396889 L29.9314667,30.8448 L25.6973333,35.5394444 L24.1692222,33.8594667 L24.1692222,33.8594667 Z M35.427,49.1583333 C32.2374222,48.1942444 29.4698222,46.2490667 27.4766667,43.6752667 L27.6610222,41.6892889 L33.8675333,42.891 L37.2777333,48.2157778 L35.427,49.1583333 L35.427,49.1583333 Z M36.4084667,39.9099556 L34.1886444,33.0506444 L40,28.8146222 L45.8113556,33.0574444 L43.5915333,39.9095778 L36.4084667,39.9099556 L36.4084667,39.9099556 L36.4084667,39.9099556 Z M44.573,49.1583333 L42.7218889,48.2154 L46.1320889,42.8906222 L52.3386,41.6889111 L52.5229556,43.6748889 C50.5301778,46.2494444 47.7625778,48.1942444 44.573,49.1583333 L44.573,49.1583333 Z M50.0685333,30.8444222 L50.5490667,24.5393111 L52.9985778,24.9714889 C54.7590222,27.4984444 55.8020667,30.5599556 55.8307778,33.8590889 L54.3022889,35.5386889 L50.0685333,30.8444222 L50.0685333,30.8444222 Z" id="football-active"></path>
            </g>
        </g>
    </g>
</svg>