<?xml version="1.0" encoding="UTF-8" standalone="no"?>
<svg width="15px" height="15px" viewBox="0 0 15 15" version="1.1" xmlns="http://www.w3.org/2000/svg" xmlns:xlink="http://www.w3.org/1999/xlink">
    <!-- Generator: Sketch 40.2 (33826) - http://www.bohemiancoding.com/sketch -->
    <title>func cc</title>
    <desc>Created with Sketch.</desc>
    <defs>
        <path d="M7.49941495,14.9988299 C11.6412275,14.9988299 14.9988299,11.6412275 14.9988299,7.49941495 C14.9988299,3.35760244 11.6412275,0 7.49941495,0 C3.35760244,0 0,3.35760244 0,7.49941495 C0,11.6412275 3.35760244,14.9988299 7.49941495,14.9988299 Z" id="path-1"></path>
        <mask id="mask-2" maskContentUnits="userSpaceOnUse" maskUnits="objectBoundingBox" x="0" y="0" width="14.9988299" height="14.9988299" fill="white">
            <use xlink:href="#path-1"></use>
        </mask>
    </defs>
    <g id="Event-Directory" stroke="none" stroke-width="1" fill="none" fill-rule="evenodd">
        <g id="Event-Directory_new-flow" transform="translate(-2550.000000, -2281.000000)">
            <g id="func-cc" transform="translate(2550.000000, 2281.000000)">
                <use id="Oval-2" stroke="#000000" mask="url(#mask-2)" stroke-width="2" fill="#000000" xlink:href="#path-1"></use>
                <path d="M7.74686613,9.19832493 C7.7058535,9.55035001 7.61955738,9.87759172 7.48797519,10.1800599 C7.356393,10.482528 7.17440218,10.7439796 6.94199728,10.9644225 C6.70959237,11.1848654 6.42592593,11.3574576 6.09098945,11.4822044 C5.75605296,11.6069511 5.36472998,11.6693236 4.91700877,11.6693236 C4.47612299,11.6693236 4.07625584,11.5872995 3.71739532,11.423249 C3.3585348,11.2591985 3.0517991,11.0259427 2.79717902,10.7234745 C2.54255894,10.4210064 2.34604303,10.0578791 2.2076254,9.63408196 C2.06920778,9.21028477 2,8.73693776 2,8.21402672 L2,7.46554996 C2,6.94263892 2.07006219,6.46843749 2.21018868,6.04293145 C2.35031517,5.6174254 2.55024874,5.25344377 2.8099954,4.95097562 C3.06974206,4.64850747 3.38502193,4.41439721 3.75584447,4.24863783 C4.126667,4.08287845 4.54276808,4 5.00416017,4 C5.42453963,4 5.79706544,4.06151802 6.12174876,4.18455591 C6.44643209,4.30759381 6.72240878,4.47933162 6.9496871,4.69977451 C7.17696543,4.9202174 7.35724742,5.18337783 7.49053847,5.4892637 C7.62382952,5.79514957 7.70927121,6.13264428 7.74686613,6.50175796 L6.75744136,6.50175796 C6.71984645,6.2420113 6.66174609,6.00790104 6.58313855,5.79942017 C6.50453101,5.5909393 6.39602005,5.41322056 6.25760242,5.26625864 C6.1191848,5.11929671 5.94744698,5.00651367 5.74238383,4.92790613 C5.53732068,4.84929859 5.29124858,4.8099954 5.00416017,4.8099954 C4.67264141,4.8099954 4.38128521,4.87407668 4.13008285,5.00224115 C3.87888049,5.13040562 3.66869391,5.30983319 3.49951681,5.54052923 C3.33033971,5.77122528 3.20303158,6.04976522 3.1175886,6.3761574 C3.03214562,6.70254959 2.98942477,7.06225914 2.98942477,7.45529685 L2.98942477,8.21402672 C2.98942477,8.57972268 3.02787353,8.92319831 3.10477221,9.24446391 C3.18167089,9.56572952 3.29872602,9.84683271 3.45594111,10.0877819 C3.61315619,10.3287311 3.81308976,10.5184117 4.05574783,10.6568293 C4.29840589,10.7952469 4.58549,10.8644547 4.91700877,10.8644547 C5.23143893,10.8644547 5.4963082,10.8268604 5.71162451,10.7516706 C5.92694082,10.6764807 6.10551397,10.5679698 6.24734932,10.4261344 C6.38918467,10.2842991 6.49940446,10.109998 6.578012,9.903226 C6.65661954,9.69645399 6.71642873,9.46148931 6.75744136,9.19832493 L7.74686613,9.19832493 Z M13.83062,9.19832493 C13.7896074,9.55035001 13.7033113,9.87759172 13.5717291,10.1800599 C13.4401469,10.482528 13.2581561,10.7439796 13.0257512,10.9644225 C12.7933463,11.1848654 12.5096798,11.3574576 12.1747434,11.4822044 C11.8398069,11.6069511 11.4484839,11.6693236 11.0007627,11.6693236 C10.5598769,11.6693236 10.1600097,11.5872995 9.80114923,11.423249 C9.44228871,11.2591985 9.13555301,11.0259427 8.88093293,10.7234745 C8.62631285,10.4210064 8.42979694,10.0578791 8.29137931,9.63408196 C8.15296168,9.21028477 8.08375391,8.73693776 8.08375391,8.21402672 L8.08375391,7.46554996 C8.08375391,6.94263892 8.1538161,6.46843749 8.29394259,6.04293145 C8.43406908,5.6174254 8.63400265,5.25344377 8.89374931,4.95097562 C9.15349597,4.64850747 9.46877584,4.41439721 9.83959837,4.24863783 C10.2104209,4.08287845 10.626522,4 11.0879141,4 C11.5082935,4 11.8808193,4.06151802 12.2055027,4.18455591 C12.530186,4.30759381 12.8061627,4.47933162 13.033441,4.69977451 C13.2607193,4.9202174 13.4410013,5.18337783 13.5742924,5.4892637 C13.7075834,5.79514957 13.7930251,6.13264428 13.83062,6.50175796 L12.8411953,6.50175796 C12.8036004,6.2420113 12.7455,6.00790104 12.6668925,5.79942017 C12.5882849,5.5909393 12.479774,5.41322056 12.3413563,5.26625864 C12.2029387,5.11929671 12.0312009,5.00651367 11.8261377,4.92790613 C11.6210746,4.84929859 11.3750025,4.8099954 11.0879141,4.8099954 C10.7563953,4.8099954 10.4650391,4.87407668 10.2138368,5.00224115 C9.96263439,5.13040562 9.75244782,5.30983319 9.58327071,5.54052923 C9.41409361,5.77122528 9.28678548,6.04976522 9.2013425,6.3761574 C9.11589952,6.70254959 9.07317867,7.06225914 9.07317867,7.45529685 L9.07317867,8.21402672 C9.07317867,8.57972268 9.11162744,8.92319831 9.18852612,9.24446391 C9.2654248,9.56572952 9.38247993,9.84683271 9.53969501,10.0877819 C9.6969101,10.3287311 9.89684367,10.5184117 10.1395017,10.6568293 C10.3821598,10.7952469 10.6692439,10.8644547 11.0007627,10.8644547 C11.3151928,10.8644547 11.5800621,10.8268604 11.7953784,10.7516706 C12.0106947,10.6764807 12.1892679,10.5679698 12.3311032,10.4261344 C12.4729386,10.2842991 12.5831584,10.109998 12.6617659,9.903226 C12.7403734,9.69645399 12.8001826,9.46148931 12.8411953,9.19832493 L13.83062,9.19832493 Z" id="CC" fill="#FFFFFF"></path>
            </g>
        </g>
    </g>
</svg>