<?xml version="1.0" encoding="UTF-8" standalone="no"?>
<svg width="15px" height="15px" viewBox="0 0 15 15" version="1.1" xmlns="http://www.w3.org/2000/svg" xmlns:xlink="http://www.w3.org/1999/xlink">
    <!-- Generator: Sketch 40.2 (33826) - http://www.bohemiancoding.com/sketch -->
    <title>func 10</title>
    <desc>Created with Sketch.</desc>
    <defs></defs>
    <g id="Event-Directory" stroke="none" stroke-width="1" fill="none" fill-rule="evenodd">
        <g id="Event-Directory_new-flow" transform="translate(-2550.000000, -2332.000000)">
            <g id="func-10" transform="translate(2550.000000, 2332.000000)">
                <path d="M7.5,15 C11.6421356,15 15,11.6421356 15,7.5 C15,3.35786438 11.6421356,0 7.5,0 C3.35786438,0 0,3.35786438 0,7.5 C0,11.6421356 3.35786438,15 7.5,15 Z" id="Oval-2" fill="#9B9B9B"></path>
                <path d="M5.8659668,11.5673828 L4.91235352,11.5673828 L4.91235352,5.24584961 L3,5.94824219 L3,5.08691406 L5.71728516,4.06665039 L5.8659668,4.06665039 L5.8659668,11.5673828 Z M12.2006836,8.38354492 C12.2006836,8.99536439 12.1459966,9.51061802 12.0366211,9.92932129 C11.9272455,10.3480246 11.770875,10.6864001 11.5675049,10.944458 C11.3641347,11.2025159 11.1180434,11.3879389 10.8292236,11.5007324 C10.5404038,11.613526 10.2148456,11.6699219 9.85253906,11.6699219 C9.49365055,11.6699219 9.16894677,11.613526 8.87841797,11.5007324 C8.58788917,11.3879389 8.34008892,11.2025159 8.13500977,10.944458 C7.92993062,10.6864001 7.77099666,10.3480246 7.65820313,9.92932129 C7.54540959,9.51061802 7.48901367,8.99536439 7.48901367,8.38354492 L7.48901367,7.24536133 C7.48901367,6.63354186 7.54455511,6.12085168 7.65563965,5.70727539 C7.76672419,5.2936991 7.92480366,4.96045048 8.12988281,4.70751953 C8.33496196,4.45458858 8.58190774,4.27343805 8.87072754,4.1640625 C9.15954734,4.05468695 9.48339664,4 9.84228516,4 C10.2045917,4 10.5310044,4.05468695 10.8215332,4.1640625 C11.112062,4.27343805 11.3598623,4.45458858 11.5649414,4.70751953 C11.7700206,4.96045048 11.9272455,5.2936991 12.0366211,5.70727539 C12.1459966,6.12085168 12.2006836,6.63354186 12.2006836,7.24536133 L12.2006836,8.38354492 Z M11.2521973,7.08642578 C11.2521973,6.66601352 11.2222903,6.30883936 11.1624756,6.01489258 C11.1026608,5.7209458 11.0129401,5.48254486 10.8933105,5.29968262 C10.773681,5.11682037 10.6258554,4.98437541 10.4498291,4.90234375 C10.2738028,4.82031209 10.0712902,4.77929688 9.84228516,4.77929688 C9.61669809,4.77929688 9.41589443,4.82031209 9.23986816,4.90234375 C9.06384189,4.98437541 8.91687071,5.11682037 8.7989502,5.29968262 C8.68102968,5.48254486 8.5913089,5.7209458 8.52978516,6.01489258 C8.46826141,6.30883936 8.4375,6.66601352 8.4375,7.08642578 L8.4375,8.53222656 C8.4375,8.94922083 8.46826141,9.30724948 8.52978516,9.60632324 C8.5913089,9.905397 8.68273865,10.1506338 8.80407715,10.342041 C8.92541565,10.5334482 9.0740958,10.6735835 9.25012207,10.7624512 C9.42614834,10.8513188 9.626952,10.895752 9.85253906,10.895752 C10.0849621,10.895752 10.2883292,10.8513188 10.4626465,10.7624512 C10.6369638,10.6735835 10.7830805,10.5334482 10.901001,10.342041 C11.0189215,10.1506338 11.1069333,9.905397 11.1650391,9.60632324 C11.2231448,9.30724948 11.2521973,8.94922083 11.2521973,8.53222656 L11.2521973,7.08642578 Z" id="10" fill="#FFFFFF"></path>
            </g>
        </g>
    </g>
</svg>