<?xml version="1.0" encoding="UTF-8" standalone="no"?>
<svg width="15px" height="15px" viewBox="0 0 15 15" version="1.1" xmlns="http://www.w3.org/2000/svg" xmlns:xlink="http://www.w3.org/1999/xlink">
    <!-- Generator: Sketch 40.2 (33826) - http://www.bohemiancoding.com/sketch -->
    <title>func e</title>
    <desc>Created with Sketch.</desc>
    <defs>
        <path d="M7.5,15 C11.6421356,15 15,11.6421356 15,7.5 C15,3.35786438 11.6421356,0 7.5,0 C3.35786438,0 0,3.35786438 0,7.5 C0,11.6421356 3.35786438,15 7.5,15 Z" id="path-1"></path>
        <mask id="mask-2" maskContentUnits="userSpaceOnUse" maskUnits="objectBoundingBox" x="0" y="0" width="15" height="15" fill="white">
            <use xlink:href="#path-1"></use>
        </mask>
    </defs>
    <g id="Event-Directory" stroke="none" stroke-width="1" fill="none" fill-rule="evenodd">
        <g id="Event-Directory_new-flow" transform="translate(-2550.000000, -2230.000000)">
            <g id="func-e" transform="translate(2550.000000, 2230.000000)">
                <use id="Oval-2" stroke="#000000" mask="url(#mask-2)" stroke-width="2" fill="#000000" xlink:href="#path-1"></use>
                <polygon id="E" fill="#FFFFFF" points="9.60205078 7.79956055 6.36694336 7.79956055 6.36694336 10.4450684 10.125 10.4450684 10.125 11.25 5.38256836 11.25 5.38256836 3.78515625 10.0737305 3.78515625 10.0737305 4.59521484 6.36694336 4.59521484 6.36694336 6.99462891 9.60205078 6.99462891"></polygon>
            </g>
        </g>
    </g>
</svg>