<?xml version="1.0" encoding="UTF-8" standalone="no"?>
<svg width="28px" height="36px" viewBox="0 0 28 36" version="1.1" xmlns="http://www.w3.org/2000/svg" xmlns:xlink="http://www.w3.org/1999/xlink">
    <!-- Generator: Sketch 40.2 (33826) - http://www.bohemiancoding.com/sketch -->
    <title>horseracing-inactive</title>
    <desc>Created with Sketch.</desc>
    <defs></defs>
    <g id="Event-Directory" stroke="none" stroke-width="1" fill="none" fill-rule="evenodd">
        <g id="Event-Directory_new-flow" transform="translate(-677.000000, -2059.000000)" fill="#516B9F">
            <g id="Group-7" transform="translate(491.000000, 2044.000000)">
                <path d="M213.97177,36.667788 C213.97177,36.667788 213.762636,24.1295318 198.629529,19.5020004 C198.629529,19.5020004 201.308327,22.7347179 201.968939,25.4224433 C202.630298,28.1101686 202.630298,30.7986987 199.395007,33.4860584 C199.395007,33.4860584 198.768503,33.8606032 198.768503,34.6092541 C198.768503,34.6092541 198.524962,37.7730612 199.673104,41.3799578 C199.673104,41.3799578 201.82989,47.3004007 201.204134,49.5461338 C201.204134,49.5461338 201.100016,49.9884918 200.856401,50.4300451 C200.856401,50.4300451 200.656542,50.7195859 200.995075,50.6008581 C200.995075,50.6012239 214.702841,46.5692334 213.97177,36.667788 M195.394612,24.4677195 C193.856626,24.5692563 193.534548,25.5947193 193.534548,25.5947193 C193.477477,25.7872588 193.721466,25.8468055 193.721466,25.8468055 C195.012771,26.187261 195.826942,24.6838875 195.826942,24.6838875 C195.991272,24.4220719 195.394612,24.4677195 195.394612,24.4677195 M188.361851,35.4400561 C188.361851,35.4400561 188.134392,35.1115247 187.869758,35.4010654 C187.869758,35.4010654 187.098446,36.3531556 187.813436,37.2393347 C187.813436,37.2393347 188.084577,37.5880565 188.302163,37.3292401 C188.302163,37.3292401 189.203248,36.5872462 188.361851,35.4400561 M188.27029,37.3884211 C188.247965,37.4216078 188.254908,37.4107659 188.27029,37.3884211 M198.346122,33.2638918 L194.634071,35.9906079 C194.634071,35.9906079 193.7831,36.667788 193.440751,37.2914199 C193.33424,37.4850566 193.225858,37.6337041 193.240818,37.7356067 C193.240818,37.7356067 193.261088,37.9393386 193.114859,38.2023248 C192.715814,38.9195197 191.761398,40.2544211 190.194764,40.2296953 C190.194764,40.2296953 187.340491,40.1731478 186.277394,37.9779636 C186.277394,37.9779636 185.383938,36.5633251 186.803969,34.0905241 L188.569788,30.4211545 C188.97347,29.5814278 189.099878,28.830436 189.099878,28.830436 L190.058034,25.2677972 C191.37462,19.7083658 193.787288,18.8532769 193.787288,18.8532769 C193.787288,18.8532769 193.38944,16.8948168 193.77547,15 C193.77547,15 194.294715,16.4206371 196.355835,17.9705361 C196.355835,17.9705361 197.856647,18.7630789 200.144104,22.9126267 C200.144104,22.9126267 201.50325,25.4044475 201.54192,27.7262601 C201.580964,30.0480727 200.630512,31.7605183 198.346122,33.2638918 M190.094386,15.6962731 C190.094386,15.6962731 190.481986,17.0169096 193.106033,18.6600791 C193.106033,18.6600791 191.942931,19.3417215 191.349787,20.5510919 C189.375956,18.7578119 190.094386,15.6962731 190.094386,15.6962731" id="horseracing-inactive"></path>
            </g>
        </g>
    </g>
</svg>