<?xml version="1.0" encoding="UTF-8" standalone="no"?>
<svg width="10px" height="10px" viewBox="0 0 10 10" version="1.1" xmlns="http://www.w3.org/2000/svg" xmlns:xlink="http://www.w3.org/1999/xlink">
    <!-- Generator: Sketch 40.2 (33826) - http://www.bohemiancoding.com/sketch -->
    <title>inline filter</title>
    <desc>Created with Sketch.</desc>
    <defs></defs>
    <g id="Event-Directory" stroke="none" stroke-width="1" fill="none" fill-rule="evenodd">
        <g id="Event-Directory_new-flow" transform="translate(-444.000000, -1718.000000)" fill="#305091">
            <path d="M448.167292,1728 C448.084022,1728 448.000751,1727.95833 447.959115,1727.95833 C447.834209,1727.875 447.750939,1727.70833 447.750939,1727.58333 L447.750939,1723.95833 L444.087025,1718.66667 C444.003754,1718.54167 443.962119,1718.375 444.04539,1718.20833 C444.12866,1718.08333 444.253567,1718 444.420108,1718 L453.579892,1718 C453.746433,1718 453.87134,1718.08333 453.95461,1718.20833 C454.037881,1718.33333 453.996246,1718.5 453.912975,1718.625 L450.249061,1723.95833 L450.249061,1726.75 C450.249061,1726.91667 450.165791,1727.04167 449.999249,1727.125 L448.333834,1727.95833 C448.292199,1728 448.250563,1728 448.167292,1728 L448.167292,1728 Z" id="inline-filter"></path>
        </g>
    </g>
</svg>