<?xml version="1.0" encoding="UTF-8"?>
<svg width="10px" height="10px" viewBox="0 0 10 10" version="1.1" xmlns="http://www.w3.org/2000/svg" xmlns:xlink="http://www.w3.org/1999/xlink">
    <!-- Generator: Sketch 41.2 (35397) - http://www.bohemiancoding.com/sketch -->
    <title>inline filter copy 4</title>
    <desc>Created with Sketch.</desc>
    <defs></defs>
    <g id="Page-1" stroke="none" stroke-width="1" fill="none" fill-rule="evenodd">
        <g id="Event-Directory_new-flow" transform="translate(-2588.000000, -609.000000)" fill="#305091">
            <g id="Group-16-Copy-2" transform="translate(2378.000000, 453.000000)">
                <g id="Group-14-Copy-3">
                    <g id="event-directory_1" transform="translate(0.000000, 68.000000)">
                        <path d="M214.167292,98 C214.084022,98 214.000751,97.9583333 213.959115,97.9583333 C213.834209,97.875 213.750939,97.7083333 213.750939,97.5833333 L213.750939,93.9583333 L210.087025,88.6666667 C210.003754,88.5416667 209.962119,88.375 210.04539,88.2083333 C210.12866,88.0833333 210.253567,88 210.420108,88 L219.579892,88 C219.746433,88 219.87134,88.0833333 219.95461,88.2083333 C220.037881,88.3333333 219.996246,88.5 219.912975,88.625 L216.249061,93.9583333 L216.249061,96.75 C216.249061,96.9166667 216.165791,97.0416667 215.999249,97.125 L214.333834,97.9583333 C214.292199,98 214.250563,98 214.167292,98 L214.167292,98 Z" id="inline-filter-copy-4"></path>
                    </g>
                </g>
            </g>
        </g>
    </g>
</svg>