<?xml version="1.0" encoding="UTF-8" standalone="no"?>
<svg width="14px" height="14px" viewBox="0 0 14 14" version="1.1" xmlns="http://www.w3.org/2000/svg" xmlns:xlink="http://www.w3.org/1999/xlink">
    <!-- Generator: Sketch 40.2 (33826) - http://www.bohemiancoding.com/sketch -->
    <title>inplay pending</title>
    <desc>Created with Sketch.</desc>
    <defs></defs>
    <g id="Event-Directory" stroke="none" stroke-width="1" fill="none" fill-rule="evenodd">
        <g id="Event-Directory_new-flow" transform="translate(-2550.000000, -2079.000000)">
            <g id="inplay-pending" transform="translate(2550.000000, 2079.000000)">
                <ellipse id="Oval-2" fill="#F8B300" cx="7" cy="7" rx="7" ry="7"></ellipse>
                <path d="M4.46806723,10.5 L3.5,10.5 L3.5,3.5 L4.46806723,3.5 L4.46806723,10.5 Z M7.20588235,7.75961538 L7.20588235,10.5 L6.23781513,10.5 L6.23781513,3.5 L8.94537815,3.5 C9.36218696,3.5 9.7302505,3.55288409 10.0495798,3.65865385 C10.3689092,3.76442361 10.6369737,3.9126593 10.8537815,4.10336538 C11.0705893,4.29407147 11.2352936,4.52003075 11.3478992,4.78125 C11.4605048,5.04246925 11.5168067,5.32852409 11.5168067,5.63942308 C11.5168067,5.97596322 11.4605048,6.27644099 11.3478992,6.54086538 C11.2352936,6.80528978 11.0705893,7.02724269 10.8537815,7.20673077 C10.6369737,7.38621885 10.3689092,7.52323671 10.0495798,7.61778846 C9.7302505,7.71234022 9.36218696,7.75961538 8.94537815,7.75961538 L7.20588235,7.75961538 Z M7.20588235,7.00480769 L8.94537815,7.00480769 C9.2277325,7.00480769 9.47058722,6.97115418 9.67394958,6.90384615 C9.87731194,6.83653812 10.0436968,6.74278906 10.1731092,6.62259615 C10.3025217,6.50240325 10.3974787,6.35977647 10.4579832,6.19471154 C10.5184877,6.02964661 10.5487395,5.8477574 10.5487395,5.64903846 C10.5487395,5.46955038 10.5184877,5.29567392 10.4579832,5.12740385 C10.3974787,4.95913377 10.3025217,4.81089808 10.1731092,4.68269231 C10.0436968,4.55448654 9.87731194,4.45192346 9.67394958,4.375 C9.47058722,4.29807654 9.2277325,4.25961538 8.94537815,4.25961538 L7.20588235,4.25961538 L7.20588235,7.00480769 Z" id="IP" fill="#FFFFFF"></path>
            </g>
        </g>
    </g>
</svg>