<?xml version="1.0" encoding="UTF-8"?>
<svg width="9px" height="9px" viewBox="0 0 9 9" version="1.1" xmlns="http://www.w3.org/2000/svg" xmlns:xlink="http://www.w3.org/1999/xlink">
    <!-- Generator: Sketch 41.2 (35397) - http://www.bohemiancoding.com/sketch -->
    <title>Path Copy 2</title>
    <desc>Created with Sketch.</desc>
    <defs></defs>
    <g id="â-B2-Audit-Trail" stroke="none" stroke-width="1" fill="none" fill-rule="evenodd">
        <g id="Show_More_Filter_Tags" transform="translate(-1578.000000, -208.000000)" fill="#7C8CAF">
            <g id="Group-2" transform="translate(1402.000000, 159.000000)">
                <g id="Group-3" transform="translate(176.000000, 23.000000)">
                    <path d="M8.2641501,26.0170664 C8.07071552,26.0200731 7.88651834,26.1003201 7.75259567,26.2399292 L4.50849533,29.4840295 L1.264395,26.2399292 C1.24754831,26.2212287 1.22973852,26.2034189 1.21103808,26.1865723 C1.01851377,26.0130492 0.748033498,25.9554326 0.501505195,26.0354305 C0.254976892,26.1154285 0.0698631249,26.3208844 0.0159085816,26.5743894 C-0.0380459617,26.8278944 0.0473576778,27.0909257 0.23994226,27.2643819 L3.48404259,30.5084822 L0.23994226,33.7525826 C0.0526025312,33.9346973 -0.0221670812,34.2035757 0.0442641694,34.456259 C0.11069542,34.7089422 0.308035338,34.9062821 0.560718608,34.9727134 C0.813401879,35.0391447 1.08228027,34.964375 1.264395,34.7770353 L4.50849533,31.532935 L7.75259567,34.7770353 C7.93471039,34.964375 8.20358878,35.0391447 8.45627205,34.9727134 C8.70895532,34.9062821 8.90629524,34.7089422 8.97272649,34.456259 C9.03915774,34.2035757 8.96438813,33.9346973 8.7770484,33.7525826 L5.53294807,30.5084822 L8.7770484,27.2643819 C8.918547,27.1286473 8.99898496,26.9413549 8.99999046,26.7452816 C9.00099596,26.5492084 8.92248314,26.3611008 8.78238409,26.2239221 C8.64418699,26.0885429 8.45758467,26.0140596 8.2641501,26.0170664 Z" id="Path-Copy-2"></path>
                </g>
            </g>
        </g>
    </g>
</svg>