<?xml version="1.0" encoding="UTF-8"?>
<svg width="10px" height="10px" viewBox="0 0 10 10" version="1.1" xmlns="http://www.w3.org/2000/svg" xmlns:xlink="http://www.w3.org/1999/xlink">
    <!-- Generator: Sketch 40 (33762) - http://www.bohemiancoding.com/sketch -->
    <title>Path</title>
    <desc>Created with Sketch.</desc>
    <defs></defs>
    <g id="Page-1" stroke="none" stroke-width="1" fill="none" fill-rule="evenodd" opacity="0.419134795">
        <path d="M9.48986466,0.729226875 C9.34839362,0.590640471 9.15737064,0.514392675 8.95935354,0.517470661 C8.76133644,0.520548647 8.57277558,0.60269671 8.43568023,0.745613162 L5.11472618,4.06656721 L1.79377213,0.745613162 C1.77652633,0.726469709 1.75829462,0.708238001 1.73915117,0.690992207 C1.5420659,0.513358295 1.26517787,0.454376763 1.01280923,0.536269883 C0.760440599,0.618163002 0.570941432,0.828486255 0.515708689,1.08799686 C0.460475946,1.34750747 0.547902824,1.61677006 0.745049793,1.79433549 L4.06600385,5.11528955 L0.745049793,8.4362436 C0.553271929,8.62267268 0.476731002,8.89792088 0.544736029,9.1565903 C0.612741056,9.41525971 0.814756016,9.61727467 1.07342543,9.6852797 C1.33209484,9.75328472 1.60734305,9.6767438 1.79377213,9.48496593 L5.11472618,6.16401188 L8.43568023,9.48496593 C8.62210931,9.6767438 8.89735751,9.75328472 9.15602693,9.6852797 C9.41469634,9.61727467 9.6167113,9.41525971 9.68471633,9.1565903 C9.75272135,8.89792088 9.67618043,8.62267268 9.48440256,8.4362436 L6.16344851,5.11528955 L9.48440256,1.79433549 C9.62925331,1.65538532 9.71159686,1.46365584 9.71262619,1.26293756 C9.71365551,1.06221927 9.63328269,0.869655354 9.48986466,0.729226875 L9.48986466,0.729226875 Z" id="Path" fill="#FFFFFF"></path>
    </g>
</svg>