<?xml version="1.0" encoding="UTF-8"?>
<svg width="9px" height="9px" viewBox="0 0 9 9" version="1.1" xmlns="http://www.w3.org/2000/svg" xmlns:xlink="http://www.w3.org/1999/xlink">
    <!-- Generator: Sketch 41.2 (35397) - http://www.bohemiancoding.com/sketch -->
    <title>Path Copy</title>
    <desc>Created with Sketch.</desc>
    <defs></defs>
    <g id="â-B2-Audit-Trail" stroke="none" stroke-width="1" fill="none" fill-rule="evenodd">
        <g id="Show_More_Filter_Tags" transform="translate(-1578.000000, -182.000000)" fill="#9BC14D">
            <g id="Group-2" transform="translate(1402.000000, 159.000000)">
                <g id="Group-3" transform="translate(176.000000, 23.000000)">
                    <path d="M8.2641501,0.0170663543 C8.07071552,0.0200731094 7.88651834,0.100320097 7.75259567,0.239929167 L4.50849533,3.4840295 L1.264395,0.239929167 C1.24754831,0.221228733 1.22973852,0.203418944 1.21103808,0.186572254 C1.01851377,0.0130491565 0.748033498,-0.0445674215 0.501505195,0.0354305228 C0.254976892,0.115428467 0.0698631249,0.320884406 0.0159085816,0.574389401 C-0.0380459617,0.827894396 0.0473576778,1.0909257 0.23994226,1.2643819 L3.48404259,4.50848224 L0.23994226,7.75258257 C0.0526025312,7.9346973 -0.0221670812,8.20357569 0.0442641694,8.45625896 C0.11069542,8.70894223 0.308035338,8.90628215 0.560718608,8.9727134 C0.813401879,9.03914465 1.08228027,8.96437504 1.264395,8.77703531 L4.50849533,5.53293498 L7.75259567,8.77703531 C7.93471039,8.96437504 8.20358878,9.03914465 8.45627205,8.9727134 C8.70895532,8.90628215 8.90629524,8.70894223 8.97272649,8.45625896 C9.03915774,8.20357569 8.96438813,7.9346973 8.7770484,7.75258257 L5.53294807,4.50848224 L8.7770484,1.2643819 C8.918547,1.12864732 8.99898496,0.94135486 8.99999046,0.74528161 C9.00099596,0.54920836 8.92248314,0.361100767 8.78238409,0.223922093 C8.64418699,0.0885428637 8.45758467,0.0140595993 8.2641501,0.0170663543 Z" id="Path-Copy"></path>
                </g>
            </g>
        </g>
    </g>
</svg>