<?xml version="1.0" encoding="UTF-8"?>
<svg width="15px" height="15px" viewBox="0 0 15 15" version="1.1" xmlns="http://www.w3.org/2000/svg" xmlns:xlink="http://www.w3.org/1999/xlink">
    <!-- Generator: Sketch 40 (33762) - http://www.bohemiancoding.com/sketch -->
    <title>Icon / Critical</title>
    <desc>Created with Sketch.</desc>
    <defs></defs>
    <g id="Page-1" stroke="none" stroke-width="1" fill="none" fill-rule="evenodd">
        <g id="Components" transform="translate(-60.000000, -160.000000)">
            <g id="Icon-/-Critical" transform="translate(60.000000, 160.000000)">
                <polygon id="Triangle-2" fill="#EF0000" points="7.5 0 15 15 0 15"></polygon>
                <path d="M8.37304688,11.3808594 L6.96679688,11.3808594 L6.76757812,5.46875 L8.57226562,5.46875 L8.37304688,11.3808594 Z M6.7265625,13.203125 C6.7265625,13.0742181 6.74902321,12.9550787 6.79394531,12.8457031 C6.83886741,12.7363276 6.90234334,12.641602 6.984375,12.5615234 C7.06640666,12.4814449 7.16503849,12.4189455 7.28027344,12.3740234 C7.39550839,12.3291013 7.5253899,12.3066406 7.66992188,12.3066406 C7.81445385,12.3066406 7.94531191,12.3291013 8.0625,12.3740234 C8.17968809,12.4189455 8.27929646,12.4814449 8.36132812,12.5615234 C8.44335979,12.641602 8.50683571,12.7363276 8.55175781,12.8457031 C8.59667991,12.9550787 8.61914062,13.0742181 8.61914062,13.203125 C8.61914062,13.3320319 8.59667991,13.4501948 8.55175781,13.5576172 C8.50683571,13.6650396 8.44335979,13.7587887 8.36132812,13.8388672 C8.27929646,13.9189457 8.17968809,13.9814451 8.0625,14.0263672 C7.94531191,14.0712893 7.81445385,14.09375 7.66992188,14.09375 C7.5253899,14.09375 7.39550839,14.0712893 7.28027344,14.0263672 C7.16503849,13.9814451 7.06640666,13.9189457 6.984375,13.8388672 C6.90234334,13.7587887 6.83886741,13.6650396 6.79394531,13.5576172 C6.74902321,13.4501948 6.7265625,13.3320319 6.7265625,13.203125 L6.7265625,13.203125 Z" id="!" fill="#FFFFFF"></path>
            </g>
            <text id="!" font-family="Roboto-Bold, Roboto" font-size="12" font-weight="bold" fill="#FFFFFF">
                <tspan x="66" y="174">!</tspan>
            </text>
        </g>
    </g>
</svg>