<?xml version="1.0" encoding="UTF-8"?>
<svg width="14px" height="11px" viewBox="0 0 14 11" version="1.1" xmlns="http://www.w3.org/2000/svg" xmlns:xlink="http://www.w3.org/1999/xlink">
    <!-- Generator: Sketch 41.2 (35397) - http://www.bohemiancoding.com/sketch -->
    <title>Group 2</title>
    <desc>Created with Sketch.</desc>
    <defs></defs>
    <g id="Symbols" stroke="none" stroke-width="1" fill="none" fill-rule="evenodd">
        <g id="card-/-task_medium" transform="translate(-231.000000, -74.000000)" fill="#FFFFFF">
            <g id="Group-2" transform="translate(231.000000, 74.000000)">
                <path d="M7.54368932,5.50735294 L7.64563107,5.50735294 L7.64563107,4.48161765 C7.64563107,3.25735294 8.39320388,2.49632353 9.34466019,2.16544118 C9.7184466,2.06617647 10.092233,2 10.4660194,2 C10.8398058,2 11.2475728,2.06617647 11.5873786,2.16544118 C12.5728155,2.52941176 13.3543689,3.29044118 13.3543689,4.48161765 L13.3543689,5.50735294 L13.4563107,5.50735294 C13.7621359,5.50735294 14,5.73897059 14,6.03676471 L14,10.4705882 C14,10.7683824 13.7621359,11 13.4563107,11 L7.54368932,11 C7.23786408,11 7,10.7683824 7,10.4705882 L7,6.03676471 C7,5.73897059 7.23786408,5.50735294 7.54368932,5.50735294 L7.54368932,5.50735294 Z M8.86893204,5.50735294 L12.131068,5.50735294 L12.131068,4.48161765 C12.131068,3.88602941 11.723301,3.45588235 11.1796117,3.29044118 C10.9757282,3.22426471 10.7038835,3.15808824 10.4660194,3.15808824 C10.2281553,3.15808824 9.99029126,3.22426471 9.75242718,3.29044118 C9.24271845,3.45588235 8.86893204,3.85294118 8.86893204,4.48161765 L8.86893204,5.50735294 L8.86893204,5.50735294 Z M10.5,7.45955882 C10.9757282,7.45955882 11.3495146,7.85661765 11.3495146,8.31985294 C11.3495146,8.78308824 10.9757282,9.14705882 10.5,9.14705882 C10.0242718,9.14705882 9.61650485,8.78308824 9.61650485,8.31985294 C9.61650485,7.85661765 10.0242718,7.45955882 10.5,7.45955882 L10.5,7.45955882 Z" id="locker"></path>
                <path d="M5,7.6005631 C4.6462726,7.7072888 4.27114185,7.76470588 3.88235294,7.76470588 C2.63082353,7.76470588 1.52082353,7.16973529 0.810705882,6.25026471 C0.319058824,6.60355882 0,7.14708824 0,7.76470588 L0,9.05882353 C0,10.1306765 0.948352941,11 2.11764706,11 L5,11 L5,7.6005631 Z M5,6.26463785 C4.65234874,6.39776456 4.27570683,6.47058824 3.88235294,6.47058824 C2.12788235,6.47058824 0.705882353,5.02182353 0.705882353,3.23529412 C0.705882353,1.44876471 2.12788235,1.83320026e-12 3.88235294,1.83320026e-12 C5.17891115,1.83320026e-12 6.29389895,0.791206258 6.7875958,1.92523298 C6.20632654,2.45418651 5.83009709,3.20585314 5.83009709,4.19065126 L5.83009709,5.50945378 L5.69902913,5.50945378 C5.30582524,5.50945378 5,5.8072479 5,6.19012605 L5,6.26463785 Z" id="Combined-Shape"></path>
            </g>
        </g>
    </g>
</svg>