<?xml version="1.0" encoding="UTF-8"?>
<svg width="10px" height="13px" viewBox="0 0 10 13" version="1.1" xmlns="http://www.w3.org/2000/svg" xmlns:xlink="http://www.w3.org/1999/xlink">
    <!-- Generator: Sketch 41.2 (35397) - http://www.bohemiancoding.com/sketch -->
    <title>locker</title>
    <desc>Created with Sketch.</desc>
    <defs></defs>
    <g id="Symbols" stroke="none" stroke-width="1" fill="none" fill-rule="evenodd">
        <g id="card-/-task_medium_lock" transform="translate(-233.000000, -72.000000)" fill="#FFFFFF">
            <path d="M233.776699,77.0661765 L233.92233,77.0661765 L233.92233,75.5845588 C233.92233,73.8161765 234.990291,72.7169118 236.349515,72.2389706 C236.883495,72.0955882 237.417476,72 237.951456,72 C238.485437,72 239.067961,72.0955882 239.553398,72.2389706 C240.961165,72.7647059 242.07767,73.8639706 242.07767,75.5845588 L242.07767,77.0661765 L242.223301,77.0661765 C242.660194,77.0661765 243,77.4007353 243,77.8308824 L243,84.2352941 C243,84.6654412 242.660194,85 242.223301,85 L233.776699,85 C233.339806,85 233,84.6654412 233,84.2352941 L233,77.8308824 C233,77.4007353 233.339806,77.0661765 233.776699,77.0661765 L233.776699,77.0661765 Z M235.669903,77.0661765 L240.330097,77.0661765 L240.330097,75.5845588 C240.330097,74.7242647 239.747573,74.1029412 238.970874,73.8639706 C238.679612,73.7683824 238.291262,73.6727941 237.951456,73.6727941 C237.61165,73.6727941 237.271845,73.7683824 236.932039,73.8639706 C236.203883,74.1029412 235.669903,74.6764706 235.669903,75.5845588 L235.669903,77.0661765 L235.669903,77.0661765 Z M238,79.8860294 C238.679612,79.8860294 239.213592,80.4595588 239.213592,81.1286765 C239.213592,81.7977941 238.679612,82.3235294 238,82.3235294 C237.320388,82.3235294 236.737864,81.7977941 236.737864,81.1286765 C236.737864,80.4595588 237.320388,79.8860294 238,79.8860294 L238,79.8860294 Z" id="locker"></path>
        </g>
    </g>
</svg>