<?xml version="1.0" encoding="UTF-8"?>
<svg width="16px" height="10px" viewBox="0 0 16 10" version="1.1" xmlns="http://www.w3.org/2000/svg" xmlns:xlink="http://www.w3.org/1999/xlink">
    <!-- Generator: Sketch 40 (33762) - http://www.bohemiancoding.com/sketch -->
    <title>Mail</title>
    <desc>Created with Sketch.</desc>
    <defs></defs>
    <g id="Page-1" stroke="none" stroke-width="1" fill="none" fill-rule="evenodd">
        <g id="Components" transform="translate(-378.000000, -413.000000)">
            <g id="card" transform="translate(147.000000, 355.000000)">
                <g id="noticeboard-/-high-priority">
                    <rect id="Rectangle-4" fill="#EEF1F8" x="0" y="0" width="261.633803" height="79" rx="6"></rect>
                    <path d="M246.633803,59.0490938 L246.633803,67.0401786 C246.633803,67.4017857 246.383803,67.6428571 246.008803,67.6428571 L232.258803,67.6428571 C231.883803,67.6428571 231.633803,67.4017857 231.633803,67.0401786 L231.633803,59.0566676 C231.666651,59.087569 231.703799,59.1159194 231.745247,59.1410154 L238.774741,63.6552146 C238.775608,63.6558111 238.776477,63.6564065 238.77735,63.6570006 C238.841376,63.7214082 238.969024,63.7857143 239.096673,63.7857143 C239.107541,63.7857143 239.118614,63.7852999 239.129846,63.7844948 C239.141078,63.7852999 239.152152,63.7857143 239.163019,63.7857143 C239.290668,63.7857143 239.418317,63.7214082 239.482343,63.6570006 C239.483216,63.6564065 239.484085,63.6558111 239.484952,63.6552146 L246.514446,59.1410154 C246.559258,59.1138826 246.599043,59.0829458 246.633803,59.0490938 Z M246.114597,58.0067354 C246.080592,58.0022821 246.045289,58 246.008803,58 L232.258803,58 C232.220762,58 232.184007,58.0024808 232.148669,58.0073165 C232.232578,58.0212535 232.313472,58.0551013 232.384502,58.1088601 L239.129846,62.4405845 L245.875191,58.1088601 C245.947228,58.0543387 246.029412,58.0202971 246.114597,58.0067354 Z" id="Mail" fill="#516B9F"></path>
                </g>
            </g>
        </g>
    </g>
</svg>