<?xml version="1.0" encoding="UTF-8"?>
<svg width="15px" height="10px" viewBox="0 0 15 10" version="1.1" xmlns="http://www.w3.org/2000/svg" xmlns:xlink="http://www.w3.org/1999/xlink">
    <!-- Generator: Sketch 40 (33762) - http://www.bohemiancoding.com/sketch -->
    <title>Tick</title>
    <desc>Created with Sketch.</desc>
    <defs></defs>
    <g id="Symbols" stroke="none" stroke-width="1" fill="none" fill-rule="evenodd">
        <g id="card-/-high_read" transform="translate(-228.000000, -75.000000)">
            <g id="noticeboard-/-high-priority2">
                <g id="noticeboard-/-high-priority">
                    <rect id="Rectangle-4" fill="#EEF1F8" x="0" y="0" width="258" height="96" rx="6"></rect>
                    <path d="M232.926136,84.90625 C232.772727,84.84375 232.636364,84.75 232.5,84.625 L228.409091,80.875 C227.863636,80.375 227.863636,79.625 228.409091,79.125 C228.954545,78.625 229.772727,78.625 230.318182,79.125 L233.454545,82 L240.681818,75.375 C241.227273,74.875 242.045455,74.875 242.590909,75.375 C243.136364,75.875 243.136364,76.625 242.590909,77.125 L234.409091,84.625 C234.136364,84.875 233.863636,85 233.454545,85 C233.25,85 233.079545,84.96875 232.926136,84.90625 Z" id="Tick" fill="#D8D8D8"></path>
                </g>
            </g>
        </g>
    </g>
</svg>