<?xml version="1.0" encoding="UTF-8"?>
<svg width="10px" height="13px" viewBox="0 0 10 13" version="1.1" xmlns="http://www.w3.org/2000/svg" xmlns:xlink="http://www.w3.org/1999/xlink">
    <!-- Generator: Sketch 41.2 (35397) - http://www.bohemiancoding.com/sketch -->
    <title>user</title>
    <desc>Created with Sketch.</desc>
    <defs></defs>
    <g id="Symbols" stroke="none" stroke-width="1" fill="none" fill-rule="evenodd">
        <g id="card-/-task_high" transform="translate(-232.000000, -72.000000)" fill="#FFFFFF">
            <g id="noticeboard-/-high-priority">
                <path d="M237,79.6470588 C239.073465,79.6470588 240.754011,77.9348824 240.754011,75.8235294 C240.754011,73.7121765 239.073465,72 237,72 C234.926535,72 233.245989,73.7121765 233.245989,75.8235294 C233.245989,77.9348824 234.926535,79.6470588 237,79.6470588 L237,79.6470588 L237,79.6470588 Z M240.630128,79.3866765 C239.790898,80.4733235 238.47908,81.1764706 237,81.1764706 C235.52092,81.1764706 234.209102,80.4733235 233.369872,79.3866765 C232.788834,79.8042059 232.411765,80.4465588 232.411765,81.1764706 L232.411765,82.7058824 C232.411765,83.9726176 233.532545,85 234.914439,85 L239.085561,85 C240.467455,85 241.588235,83.9726176 241.588235,82.7058824 L241.588235,81.1764706 C241.588235,80.4465588 241.211166,79.8042059 240.630128,79.3866765 L240.630128,79.3866765 L240.630128,79.3866765 Z" id="user"></path>
            </g>
        </g>
    </g>
</svg>