<?xml version="1.0" encoding="UTF-8"?>
<svg width="18px" height="16px" viewBox="0 0 18 16" version="1.1" xmlns="http://www.w3.org/2000/svg" xmlns:xlink="http://www.w3.org/1999/xlink">
    <!-- Generator: Sketch 41.2 (35397) - http://www.bohemiancoding.com/sketch -->
    <title>Group 2</title>
    <desc>Created with Sketch.</desc>
    <defs></defs>
    <g id="Action" stroke="none" stroke-width="1" fill="none" fill-rule="evenodd">
        <g id="Components" transform="translate(-4433.000000, -349.000000)">
            <g id="Group-2" transform="translate(4433.000000, 349.000000)">
                <path d="M9.10610264,7.58665966 L9.24653259,7.58665966 L9.24653259,6.17365696 C9.24653259,4.48716987 10.2763523,3.43881303 11.5870319,2.9830057 C12.1019417,2.84626351 12.6168516,2.75510204 13.1317614,2.75510204 C13.6466713,2.75510204 14.2083911,2.84626351 14.676491,2.9830057 C16.0339806,3.48439376 17.1106103,4.5327506 17.1106103,6.17365696 L17.1106103,7.58665966 L17.2510402,7.58665966 C17.6723301,7.58665966 18,7.90572479 18,8.31595138 L18,14.4237695 C18,14.8339961 17.6723301,15.1530612 17.2510402,15.1530612 L9.10610264,15.1530612 C8.68481276,15.1530612 8.35714286,14.8339961 8.35714286,14.4237695 L8.35714286,8.31595138 C8.35714286,7.90572479 8.68481276,7.58665966 9.10610264,7.58665966 L9.10610264,7.58665966 Z M10.9316921,7.58665966 L15.4254508,7.58665966 L15.4254508,6.17365696 C15.4254508,5.35320378 14.8637309,4.76065426 14.1147712,4.5327506 C13.8339112,4.44158914 13.4594313,4.35042767 13.1317614,4.35042767 C12.8040915,4.35042767 12.4764216,4.44158914 12.1487517,4.5327506 C11.4466019,4.76065426 10.9316921,5.30762305 10.9316921,6.17365696 L10.9316921,7.58665966 L10.9316921,7.58665966 Z M13.1785714,10.2759229 C13.8339112,10.2759229 14.3488211,10.8228917 14.3488211,11.4610219 C14.3488211,12.0991522 13.8339112,12.6005402 13.1785714,12.6005402 C12.5232316,12.6005402 11.9615118,12.0991522 11.9615118,11.4610219 C11.9615118,10.8228917 12.5232316,10.2759229 13.1785714,10.2759229 L13.1785714,10.2759229 Z" id="locker" fill="#305091"></path>
                <path d="M6.8877551,10.4701635 C6.40047756,10.6171836 5.88371582,10.6962785 5.34813926,10.6962785 C3.62409364,10.6962785 2.095012,9.87667617 1.11678872,8.61005852 C0.439519808,9.0967392 0,9.84547869 0,10.6962785 L0,12.4789916 C0,13.9555237 1.30640456,15.1530612 2.91716687,15.1530612 L6.8877551,15.1530612 L6.8877551,10.4701635 Z M6.8877551,8.62985826 C6.40884775,8.8132471 5.89000431,8.91356543 5.34813926,8.91356543 C2.93126651,8.91356543 0.972388956,6.91781813 0.972388956,4.45678271 C0.972388956,1.9957473 2.93126651,2.48486945e-12 5.34813926,2.48486945e-12 C7.13421434,2.48486945e-12 8.67016692,1.08992699 9.35025952,2.65210666 C8.54953146,3.38076713 8.03125619,4.41622627 8.03125619,5.77283592 L8.03125619,7.58955368 L7.85070339,7.58955368 C7.30904498,7.58955368 6.8877551,7.99978027 6.8877551,8.52721446 L6.8877551,8.62985826 Z" id="Combined-Shape" fill="#2F5091"></path>
            </g>
        </g>
    </g>
</svg>