<?xml version="1.0" encoding="UTF-8"?>
<svg width="15px" height="19px" viewBox="0 0 15 19" version="1.1" xmlns="http://www.w3.org/2000/svg" xmlns:xlink="http://www.w3.org/1999/xlink">
    <!-- Generator: Sketch 41.2 (35397) - http://www.bohemiancoding.com/sketch -->
    <title>locker</title>
    <desc>Created with Sketch.</desc>
    <defs></defs>
    <g id="Action" stroke="none" stroke-width="1" fill="none" fill-rule="evenodd">
        <g id="Components" transform="translate(-4436.000000, -781.000000)" fill="#305091">
            <g id="Group-15-Copy" transform="translate(3771.000000, 765.000000)">
                <path d="M666.165049,23.4044118 L666.383495,23.4044118 L666.383495,21.2389706 C666.383495,18.6544118 667.985437,17.0477941 670.024272,16.3492647 C670.825243,16.1397059 671.626214,16 672.427184,16 C673.228155,16 674.101942,16.1397059 674.830097,16.3492647 C676.941748,17.1176471 678.616505,18.7242647 678.616505,21.2389706 L678.616505,23.4044118 L678.834951,23.4044118 C679.490291,23.4044118 680,23.8933824 680,24.5220588 L680,33.8823529 C680,34.5110294 679.490291,35 678.834951,35 L666.165049,35 C665.509709,35 665,34.5110294 665,33.8823529 L665,24.5220588 C665,23.8933824 665.509709,23.4044118 666.165049,23.4044118 L666.165049,23.4044118 Z M669.004854,23.4044118 L675.995146,23.4044118 L675.995146,21.2389706 C675.995146,19.9816176 675.121359,19.0735294 673.956311,18.7242647 C673.519417,18.5845588 672.936893,18.4448529 672.427184,18.4448529 C671.917476,18.4448529 671.407767,18.5845588 670.898058,18.7242647 C669.805825,19.0735294 669.004854,19.9117647 669.004854,21.2389706 L669.004854,23.4044118 L669.004854,23.4044118 Z M672.5,27.5257353 C673.519417,27.5257353 674.320388,28.3639706 674.320388,29.3419118 C674.320388,30.3198529 673.519417,31.0882353 672.5,31.0882353 C671.480583,31.0882353 670.606796,30.3198529 670.606796,29.3419118 C670.606796,28.3639706 671.480583,27.5257353 672.5,27.5257353 L672.5,27.5257353 Z" id="locker"></path>
            </g>
        </g>
    </g>
</svg>