<?xml version="1.0" encoding="UTF-8"?>
<svg width="15px" height="22px" viewBox="0 0 15 22" version="1.1" xmlns="http://www.w3.org/2000/svg" xmlns:xlink="http://www.w3.org/1999/xlink">
    <!-- Generator: Sketch 41.2 (35397) - http://www.bohemiancoding.com/sketch -->
    <title>user</title>
    <desc>Created with Sketch.</desc>
    <defs></defs>
    <g id="Action" stroke="none" stroke-width="1" fill="none" fill-rule="evenodd">
        <g id="Components" transform="translate(-3557.000000, -347.000000)" fill="#2F5091">
            <path d="M3564.5,359.5 C3567.88932,359.5 3570.63636,356.70125 3570.63636,353.25 C3570.63636,349.79875 3567.88932,347 3564.5,347 C3561.11068,347 3558.36364,349.79875 3558.36364,353.25 C3558.36364,356.70125 3561.11068,359.5 3564.5,359.5 L3564.5,359.5 L3564.5,359.5 Z M3570.43386,359.074375 C3569.06205,360.850625 3566.91773,362 3564.5,362 C3562.08227,362 3559.93795,360.850625 3558.56614,359.074375 C3557.61636,359.756875 3557,360.806875 3557,362 L3557,364.5 C3557,366.570625 3558.83205,368.25 3561.09091,368.25 L3567.90909,368.25 C3570.16795,368.25 3572,366.570625 3572,364.5 L3572,362 C3572,360.806875 3571.38364,359.756875 3570.43386,359.074375 L3570.43386,359.074375 L3570.43386,359.074375 Z" id="user"></path>
        </g>
    </g>
</svg>