<?xml version="1.0" encoding="UTF-8" standalone="no"?>
<svg width="24px" height="24px" viewBox="0 0 24 24" version="1.1" xmlns="http://www.w3.org/2000/svg" xmlns:xlink="http://www.w3.org/1999/xlink">
    <!-- Generator: Sketch 40.2 (33826) - http://www.bohemiancoding.com/sketch -->
    <title>basketball</title>
    <desc>Created with Sketch.</desc>
    <defs></defs>
    <g id="â-B2-Audit-Trail" stroke="none" stroke-width="1" fill="none" fill-rule="evenodd">
        <g id="components" transform="translate(-213.000000, -376.000000)" fill="#FFFFFF">
            <path d="M215.626886,385.937313 C216.320593,385.922125 216.949904,386.160063 217.509751,386.650563 C217.990183,386.087125 218.523933,385.533813 219.117573,385.004688 C218.904111,384.304375 218.756358,383.649438 218.657793,383.046438 C218.280056,380.73175 218.550405,378.886563 218.888716,377.65975 C215.569813,379.615563 213.275793,383.118625 213,387.176313 C213.697837,386.56225 214.625846,385.966938 215.626886,385.937313 Z M226.349583,379.236625 C225.890179,379.786938 225.753315,380.50825 225.927539,381.425313 C228.617131,380.757625 231.624383,380.701188 234.924512,381.258438 C234.005515,379.909563 232.817108,378.759813 231.438894,377.880813 C230.048101,377.815 227.411265,377.963875 226.349583,379.236625 Z M219.816349,382.94875 C219.883373,383.342875 219.975179,383.761938 220.093269,384.201813 C220.39328,383.974188 220.70343,383.752 221.029726,383.539375 C222.20011,382.777375 223.460422,382.17925 224.806532,381.74425 C224.535245,380.431563 224.754152,379.340313 225.460813,378.494313 C226.369109,377.407188 227.927931,376.966938 229.301827,376.801938 C227.961536,376.28575 226.506536,376 224.983948,376 C223.350029,376 221.792709,376.327187 220.372441,376.91725 C220.019486,377.746188 219.300434,379.915 219.816349,382.94875 Z M226.25759,382.537563 C228.035694,386.910625 234.704478,389.179938 236.874213,389.727063 C236.955693,389.162875 237,388.586688 237,388 C237,386.049438 236.53102,384.209313 235.703829,382.581063 C232.200188,381.870625 229.040677,381.856563 226.25759,382.537563 Z M219.533985,386.201125 C219.078523,386.635937 218.661924,387.086312 218.282497,387.543437 C220.364931,390.507437 219.967857,394.506812 219.114945,398.47 C220.85062,399.442937 222.851762,400 224.983948,400 C226.831517,400 228.581273,399.582437 230.145164,398.838625 C223.867446,394.095062 220.887793,389.687687 219.533985,386.201125 Z M225.136958,382.854438 C223.896359,383.257188 222.737239,383.809 221.662604,384.50875 C221.238307,384.784938 220.841233,385.079125 220.463871,385.383813 C221.693394,388.81825 224.627614,393.3175 231.265045,398.230563 C233.919905,396.601563 235.890445,393.971125 236.652302,390.865938 C234.024665,390.237813 227.006117,387.63025 225.136958,382.854438 Z M213,388.8235 C213.096875,390.250563 213.443259,391.608813 213.996722,392.855875 C214.462698,391.508313 215.318238,389.526438 216.787507,387.555813 C216.436993,387.233313 216.065452,387.078063 215.661431,387.094188 C214.652693,387.124 213.578245,388.141188 213,388.8235 Z M217.534345,388.513375 C215.807306,390.9325 215.029303,393.332875 214.763085,394.30825 C215.61825,395.687125 216.745829,396.878875 218.069785,397.8115 C218.77532,394.393188 219.072328,391.00525 217.534345,388.513375 Z" id="basketball"></path>
        </g>
    </g>
</svg>