<?xml version="1.0" encoding="UTF-8" standalone="no"?>
<svg width="24px" height="24px" viewBox="0 0 24 24" version="1.1" xmlns="http://www.w3.org/2000/svg" xmlns:xlink="http://www.w3.org/1999/xlink">
    <!-- Generator: Sketch 40.2 (33826) - http://www.bohemiancoding.com/sketch -->
    <title>football</title>
    <desc>Created with Sketch.</desc>
    <defs></defs>
    <g id="â-B2-Audit-Trail" stroke="none" stroke-width="1" fill="none" fill-rule="evenodd">
        <g id="components" transform="translate(-162.000000, -174.000000)" fill="#FFFFFF">
            <g id="Search-Comp" transform="translate(149.000000, 166.000000)">
                <g id="Sports-Selector">
                    <path d="M33.4853333,11.5146667 C31.2189333,9.24826667 28.2053333,8 25,8 C21.7946667,8 18.7813333,9.24826667 16.5146667,11.5146667 C14.2482667,13.7810667 13,16.7946667 13,20 C13,23.2053333 14.2482667,26.2186667 16.5146667,28.4853333 C18.7810667,30.7517333 21.7946667,32 25,32 C28.2053333,32 31.2186667,30.7517333 33.4853333,28.4853333 C35.7517333,26.2189333 37,23.2053333 37,20 C37,16.7946667 35.7517333,13.7813333 33.4853333,11.5146667 L33.4853333,11.5146667 Z M21.6717333,9.33013333 C22.7234667,9.00133333 23.8413333,8.824 25,8.824 C26.1584,8.824 27.2762667,9.00133333 28.328,9.32986667 L29.1021333,10.7290667 L25,12.4781333 L20.8978667,10.728 L21.6717333,9.33013333 L21.6717333,9.33013333 Z M13.8253333,19.9008 C13.8456,17.5717333 14.5818667,15.4106667 15.8245333,13.6272 L17.5536,13.3221333 L17.8928,17.7728 L14.904,21.0866667 L13.8253333,19.9008 L13.8253333,19.9008 Z M21.772,30.7 C19.5205333,30.0194667 17.5669333,28.6464 16.16,26.8296 L16.2901333,25.4277333 L20.6712,26.276 L23.0784,30.0346667 L21.772,30.7 L21.772,30.7 Z M22.4648,24.1717333 L20.8978667,19.3298667 L25,16.3397333 L29.1021333,19.3346667 L27.5352,24.1714667 L22.4648,24.1717333 L22.4648,24.1717333 L22.4648,24.1717333 Z M28.228,30.7 L26.9213333,30.0344 L29.3285333,26.2757333 L33.7096,25.4274667 L33.8397333,26.8293333 C32.4330667,28.6466667 30.4794667,30.0194667 28.228,30.7 L28.228,30.7 Z M32.1072,17.7725333 L32.4464,13.3218667 L34.1754667,13.6269333 C35.4181333,15.4106667 36.1544,17.5717333 36.1746667,19.9005333 L35.0957333,21.0861333 L32.1072,17.7725333 L32.1072,17.7725333 Z" id="football"></path>
                </g>
            </g>
        </g>
    </g>
</svg>