<?xml version="1.0" encoding="UTF-8" standalone="no"?>
<svg width="19px" height="24px" viewBox="0 0 19 24" version="1.1" xmlns="http://www.w3.org/2000/svg" xmlns:xlink="http://www.w3.org/1999/xlink">
    <!-- Generator: Sketch 40.2 (33826) - http://www.bohemiancoding.com/sketch -->
    <title>horse racing</title>
    <desc>Created with Sketch.</desc>
    <defs></defs>
    <g id="â-B2-Audit-Trail" stroke="none" stroke-width="1" fill="none" fill-rule="evenodd">
        <g id="components" transform="translate(-266.000000, -376.000000)" fill="#FFFFFF">
            <path d="M284.841791,390.595427 C284.841791,390.595427 284.700918,382.149655 274.507254,379.032549 C274.507254,379.032549 276.311693,381.210108 276.756681,383.02056 C277.202173,384.831013 277.202173,386.642007 275.02288,388.452213 C275.02288,388.452213 274.600867,388.704507 274.600867,389.208798 C274.600867,389.208798 274.436818,391.33994 275.210206,393.769546 C275.210206,393.769546 276.663018,397.757558 276.241509,399.270284 C276.241509,399.270284 276.171375,399.568257 276.007275,399.865687 C276.007275,399.865687 275.87265,400.060722 276.100686,399.980747 C276.100686,399.980993 285.33424,397.265043 284.841791,390.595427 M272.328213,382.377458 C271.292225,382.445853 271.075273,383.136605 271.075273,383.136605 C271.03683,383.2663 271.201182,383.306411 271.201182,383.306411 C272.071005,383.535742 272.61943,382.523069 272.61943,382.523069 C272.730123,382.34671 272.328213,382.377458 272.328213,382.377458 M267.590943,389.768427 C267.590943,389.768427 267.437727,389.547128 267.25947,389.742163 C267.25947,389.742163 266.739914,390.383491 267.221531,390.980421 C267.221531,390.980421 267.404171,391.21532 267.550737,391.040982 C267.550737,391.040982 268.157709,390.541174 267.590943,389.768427 M267.530138,391.080846 C267.513738,391.105946 267.518838,391.097746 267.530138,391.080846 M274.316351,388.302562 L271.815912,390.139279 C271.815912,390.139279 271.242698,390.595427 271.012092,391.015506 C270.940346,391.14594 270.86734,391.246069 270.877417,391.31471 C270.877417,391.31471 270.891071,391.451944 270.792571,391.629092 C270.523774,392.112194 269.880879,393.011384 268.825594,392.994729 C268.825594,392.994729 266.902955,392.956639 266.186853,391.477962 C266.186853,391.477962 265.58502,390.525061 266.541553,388.859382 L267.73101,386.387693 C268.00293,385.822053 268.088079,385.316185 268.088079,385.316185 L268.733493,382.916391 C269.620345,379.171556 271.245519,378.595568 271.245519,378.595568 C271.245519,378.595568 270.977529,377.276349 271.237559,376 C271.237559,376 271.587322,376.956941 272.975693,378.000954 C272.975693,378.000954 273.98664,378.534811 275.527472,381.329947 C275.527472,381.329947 276.442993,383.008438 276.469041,384.572412 C276.495341,386.136385 275.855117,387.289889 274.316351,388.302562 M268.757979,376.46901 C268.757979,376.46901 269.019067,377.358591 270.786625,378.46543 C270.786625,378.46543 270.00316,378.924585 269.603618,379.739217 C268.274045,378.531263 268.757979,376.46901 268.757979,376.46901" id="horse-racing"></path>
        </g>
    </g>
</svg>